<svg width="117" height="212" viewBox="0 0 117 212" fill="none" xmlns="http://www.w3.org/2000/svg">
<path d="M4.23244 11.7182C3.86911 15.5277 2.34107 19.1268 1.51323 22.8478C0.600311 26.9527 -0.262039 30.9369 -1.81538 34.8636C-3.10313 38.1168 -4.72545 41.2308 -6.16611 44.4184C-7.53204 47.4439 -8.51166 50.4487 -9.33029 53.6593C-10.9193 59.8977 -12.2174 66.4534 -10.334 72.7734C-9.83734 74.4345 -9.13484 76.0243 -8.59675 77.6715C-8.0736 79.2739 -7.52514 80.8844 -6.76744 82.3926C-5.35322 85.2135 -2.2385 87.0676 -1.2382 90.0564C-0.164304 93.2624 -0.253972 96.8316 -1.68199 99.9077C-2.94904 102.637 -5.00138 104.853 -6.09942 107.681L-6.03045 107.9C-6.21211 108.043 -6.39836 108.183 -6.58922 108.318C-6.72719 108.392 -6.86632 108.465 -7.00315 108.541L-7.12964 108.68C-7.42972 108.87 -7.74245 109.052 -8.06669 109.223C-8.2702 109.331 -8.33688 109.49 -8.31849 109.649L-8.59214 109.837C-11.5839 111.83 -14.6652 113.755 -18.0467 115.019C-20.0991 115.787 -22.1652 116.5 -24.2279 117.229C-21.2845 114.387 -19.3115 110.738 -18.4469 106.529C-17.9249 103.999 -17.4672 101.132 -17.8099 98.5593C-18.1571 95.958 -18.6745 93.3739 -19.2425 90.8128C-19.8162 88.2275 -20.129 85.7124 -20.3819 83.0777C-20.7683 79.0521 -21.6041 75.1047 -22.4457 71.1549C-24.083 63.4566 -24.551 55.6066 -26.3446 47.9336C-27.2564 44.0379 -28.5005 40.2491 -29.5905 36.4028C-30.0653 34.7291 -30.4827 33.0566 -31.0644 31.4163C-31.1346 31.2151 -31.207 31.0151 -31.2795 30.8139C-31.3427 29.3092 -31.6554 27.8321 -32.3764 26.417C-32.6569 25.8664 -33.5744 25.9561 -33.5077 26.663C-33.3939 27.8551 -33.0432 28.9816 -32.6258 30.0909C-32.4568 31.8324 -32.6132 33.5877 -32.5316 35.4315C-32.3994 38.4214 -33.3594 41.371 -34.1056 44.2379C-35.6843 50.3085 -37.3641 56.3986 -37.617 62.698C-37.8872 69.4169 -37.4135 76.9059 -34.9864 83.2294C-32.4833 89.7472 -27.4105 95.1913 -25.4145 101.891C-23.7772 107.382 -26.4228 112.671 -28.3683 117.702C-28.4579 117.936 -28.4223 118.136 -28.3188 118.28C-28.5315 118.516 -28.75 118.746 -28.9753 118.972C-33.4617 120.686 -37.9999 122.193 -42.4944 123.849L-42.4645 123.815L-42.4104 123.726C-41.6412 123.009 -40.9824 122.191 -40.4029 121.297C-38.6886 118.656 -37.0145 115.63 -35.9291 112.672C-31.5462 100.732 -36.1005 88.2218 -39.7384 76.7887C-41.9552 69.8203 -43.505 62.5658 -44.825 55.379C-45.9311 49.3579 -44.0638 43.2597 -45.1883 37.2328C-45.3309 36.4707 -46.5128 36.5339 -46.4128 37.3305C-46.0161 40.4905 -47.1073 44.0368 -47.727 47.1358C-48.333 50.1648 -49.2481 53.1191 -49.7736 56.1641C-50.7164 61.6301 -49.8931 67.0316 -49.1205 72.4573C-48.2881 78.29 -47.105 84.041 -45.2009 89.6242C-43.1934 95.5097 -40.611 101.219 -39.697 107.424C-39.2646 110.36 -39.2221 113.581 -39.9752 116.471C-40.4604 118.331 -41.5044 120.012 -42.3886 121.743C-43.9282 123.48 -45.8896 124.59 -47.8512 125.93C-48.3122 126.122 -48.7767 126.309 -49.2378 126.506C-50.529 127.06 -51.8397 127.599 -53.1459 128.149L-53.1079 128.029C-50.1783 124.482 -48.2237 119.875 -47.0981 115.678C-46.3312 112.81 -46.0449 109.997 -46.6243 107.066C-47.2038 104.13 -48.4019 101.37 -49.6782 98.6789C-51.0429 95.8039 -52.3847 92.9129 -53.8967 90.1115C-55.7122 86.7446 -57.699 83.4708 -59.3776 80.0315C-62.5614 73.5149 -62.9086 66.4868 -64.4493 59.5104C-65.8613 53.1168 -67.7492 46.7542 -71.0916 41.0802C-72.0459 39.4571 -74.5696 40.5756 -74.4351 42.2929C-74.1454 45.9668 -74.5236 49.6452 -74.0488 53.3122C-73.5889 56.8699 -72.5862 60.7323 -73.2968 64.3084C-73.5716 65.6959 -74.2718 66.7121 -74.795 67.9834C-75.3756 69.3973 -75.4492 71.1285 -75.4929 72.6412C-75.5872 75.8024 -74.7387 79.0325 -73.2566 81.8121C-71.801 84.5456 -69.7969 87.0297 -67.9941 89.5425C-66.2729 91.9404 -64.6034 94.5257 -62.5625 96.6695C-60.5688 98.7639 -58.1003 100.33 -56.4389 102.739C-54.3934 105.705 -52.8021 109.12 -52.3606 112.719C-51.6868 118.21 -53.8633 123.075 -55.0131 128.282C-55.3074 128.642 -55.6052 129 -55.9134 129.353C-56.9735 129.832 -58.0209 130.331 -59.0431 130.87C-62.4821 132.687 -65.7371 134.805 -69.3738 136.228C-70.289 136.586 -69.7843 137.975 -68.8529 137.661C-64.7758 136.288 -61.0379 134.099 -57.1068 132.376C-55.596 131.714 -54.0749 131.076 -52.5503 130.441C-52.1467 130.393 -51.7408 130.356 -51.3338 130.333C-51.1637 130.468 -50.9383 130.545 -50.6509 130.516C-44.779 129.925 -41.2515 135.836 -38.4092 140.046C-36.3201 143.142 -33.9769 146.173 -32.5167 149.636C-31.0116 153.204 -31.46 156.901 -31.5669 160.669C-31.6692 164.266 -31.5393 167.908 -31.0196 171.473C-30.5655 174.587 -29.94 178.049 -28.3498 180.798C-27.5231 182.229 -26.4159 183.418 -25.4053 184.713C-24.3257 186.098 -23.415 187.616 -22.5699 189.152C-20.9625 192.079 -19.7036 195.167 -18.3813 198.228C-16.26 203.137 -13.919 208.591 -9.46365 211.84C-8.84967 212.287 -8.16786 211.726 -8.32539 211.039C-8.79679 208.988 -9.61774 207.066 -10.2892 205.077C-10.994 202.989 -11.4516 200.83 -11.854 198.666C-12.6175 194.568 -13.4499 190.604 -14.8331 186.661C-16.0967 183.056 -17.5707 179.528 -18.7918 175.907C-20.0105 172.296 -21.0315 168.618 -22.125 164.968C-24.2175 157.993 -26.8747 151.228 -30.6954 145.004C-33.8722 139.829 -37.9574 134.141 -43.1762 130.845L-43.4027 130.711C-44.7905 129.649 -46.3312 128.856 -48.0294 128.56C-47.3372 128.27 -46.6428 127.981 -45.9529 127.686C-45.186 127.358 -44.4145 127.043 -43.6418 126.735C-43.405 126.958 -43.0566 127.067 -42.637 126.93C-39.1497 125.789 -36.1637 125.618 -32.8535 127.36C-29.2754 129.246 -25.802 131.719 -22.5711 134.152C-19.7668 136.265 -17.1717 138.565 -14.0409 140.209C-12.683 140.922 -11.2263 141.496 -9.94313 142.343C-8.60134 143.229 -7.42512 144.408 -6.31789 145.568C-3.87347 148.129 -2.08097 151.289 -0.748385 154.542C0.564657 157.746 2.10077 160.692 3.9473 163.619C5.82258 166.594 8.0819 169.226 10.0768 172.103C12.1958 175.161 13.9906 178.323 16.4074 181.174C18.8633 184.073 21.2445 187.072 23.7774 189.9L23.789 189.912C24.5984 191.363 25.4228 192.806 26.2483 194.231C27.4211 196.255 28.9698 197.769 31.4016 197.861C31.7718 197.875 32.0777 197.383 31.9202 197.055C30.4519 194.002 27.6223 192.091 25.2825 189.748L25.117 189.463C22.5875 185.274 20.4155 180.99 18.2861 176.585C16.3948 172.673 14.2527 168.781 12.7362 164.706C11.2576 160.732 10.5918 156.47 9.34664 152.416C8.2486 148.84 7.16092 145.016 5.09362 141.853C3.17005 138.911 0.259984 136.821 -2.42128 134.625C-5.15085 132.391 -7.5378 130.599 -10.9492 129.509C-14.5146 128.371 -18.1571 127.425 -21.7479 126.366C-25.4191 125.284 -29.3778 124.292 -33.3043 124.075C-33.8861 123.884 -34.4747 123.724 -35.0737 123.606C-34.7414 123.492 -34.4092 123.38 -34.0769 123.267C-30.2033 121.958 -26.4539 120.333 -22.5941 119.009C-19.2655 117.869 -15.9806 116.841 -12.8589 115.188C-12.8187 115.576 -12.5692 115.907 -12.0506 115.937C-8.80253 116.13 -5.46475 116.137 -2.46039 117.55C0.894649 119.13 3.34138 122.124 5.16838 125.275C8.62919 131.242 9.6295 138.711 15.6026 142.931C18.4874 144.97 21.8067 146.271 24.6651 148.331C27.3532 150.27 29.6758 152.695 31.9524 155.088C36.5813 159.953 41.0804 164.329 47.234 167.205C49.8773 168.442 52.562 169.74 55.3675 170.561C56.4345 170.873 58.3236 171.172 59.778 171.799C60.3874 172.421 61.0508 172.985 61.8361 173.42C62.3098 173.681 63.0078 173.103 62.741 172.593C62.3098 171.767 61.5188 171.205 60.607 170.786C59.8758 170.028 59.2307 169.171 58.5512 168.385C57.4888 167.157 56.2758 166.133 55.0088 165.121C51.7285 162.503 48.8793 159.894 46.3613 156.507C44.263 153.684 42.1267 151.127 39.4374 148.845C36.6664 146.489 34.061 144.073 31.5442 141.443C28.9675 138.747 26.4415 135.991 23.7223 133.433C21.1376 131.003 18.2838 128.893 15.6842 126.481C13.0869 124.074 11.2311 121.206 8.98217 118.51C7.269 116.456 5.27298 114.8 2.67794 114.019C-0.379307 113.1 -3.54693 112.501 -6.74215 112.443C-7.24805 112.434 -7.74244 112.447 -8.22879 112.476C-6.78008 111.557 -5.35323 110.6 -3.93441 109.636C-2.16146 108.431 -0.452901 107.136 1.23497 105.812C1.52932 105.708 1.82595 105.609 2.12259 105.512C2.36405 105.484 2.59748 105.46 2.81018 105.437C5.14308 105.187 7.53231 105.135 9.82381 105.699C12.604 106.386 15.1921 107.78 17.6526 109.21C20.2568 110.725 22.8484 112.263 25.1399 114.234C27.3222 116.11 29.2734 118.207 31.7247 119.751C34.2002 121.308 36.9205 122.426 39.4535 123.884C42.2118 125.473 44.9 127.411 47.894 128.541C50.4235 129.497 53.1576 129.538 55.786 130.067C62.0764 131.34 68.5037 132.171 74.6837 133.932C75.3667 134.128 75.6265 133.09 75.0459 132.796C73.4328 131.984 71.7219 131.372 70.1249 130.527C68.3519 129.588 66.8388 128.243 65.4073 126.855C62.787 124.314 60.3943 121.585 57.2968 119.599C52.6299 116.609 47.2075 115.318 41.968 113.721C36.0996 111.933 30.9118 108.947 25.3963 106.339C20.1833 103.874 14.7379 101.925 8.89478 102.741C7.92437 102.876 6.9643 103.059 6.01459 103.278C5.88697 103.277 5.76048 103.272 5.63171 103.275C5.23503 103.283 4.81192 103.294 4.37156 103.314C7.23449 101.022 10.1089 98.7456 13.2041 96.7776C16.5638 94.6418 20.2246 93.0738 23.8326 91.4105C23.9821 91.8289 24.4156 92.1565 24.9801 91.9956C28.4984 90.9944 31.8765 91.3795 35.4155 92.0037C38.1956 92.4945 40.8206 92.9796 43.4225 94.1222C47.5755 95.9453 51.2398 98.7191 55.4112 100.518C57.4348 101.391 59.5757 102.056 61.7717 102.301C64.407 102.595 66.8491 102.012 69.4568 101.794C72.6796 101.525 75.7714 102.121 78.9632 102.393C82.1825 102.668 85.403 102.517 88.6178 102.91C91.8981 103.313 95.2704 103.547 98.5542 104.132C98.6565 104.201 98.7588 104.27 98.8646 104.337C101.064 105.728 103.589 106.099 106.122 106.429C106.758 106.511 107.054 105.645 106.465 105.358C104.15 104.231 101.687 103.538 99.175 103.046C98.3231 102.421 97.5492 101.695 96.7203 100.976C94.2356 98.8168 91.4187 97.2408 88.42 95.9109C82.5125 93.29 76.4107 91.7117 69.9455 91.4047C62.2765 91.0404 55.0743 88.9747 47.6514 87.2332C42.7579 86.0871 37.4552 86.0561 32.4376 86.9021C33.7782 86.2423 35.1154 85.5698 36.4434 84.8824L36.4503 84.8813C39.5949 83.9628 42.7913 83.2478 45.9485 82.3753C49.0173 81.5281 51.8722 80.2694 55.0939 80.1188C57.6487 80.0016 60.1816 80.4177 62.7134 80.689C65.3211 80.9683 67.938 80.9649 70.5549 80.8154C76.183 80.4924 81.7698 80.097 87.2864 78.9061C89.9539 78.3302 92.6512 77.8359 95.3716 77.6071C97.6677 77.414 99.8948 77.3405 102.162 76.8876C106.511 76.0185 111.338 74.3874 115.613 76.3576C116.355 76.6691 116.884 75.5541 116.143 75.2231C113.306 73.9977 110.621 72.5205 107.466 72.3665C103.628 72.1803 100.441 71.2354 96.8766 69.8399C94.1597 68.7754 91.3474 67.988 88.4177 67.8593C85.1788 67.7167 82.0262 68.5087 78.8942 69.2352C71.9208 70.8492 64.8233 71.4917 57.9143 73.4723C51.0191 75.4495 44.7206 78.475 38.4819 81.9328C41.5817 79.1578 44.4768 76.099 47.1236 73.0344C47.7951 72.2573 48.4091 71.4492 48.9978 70.6273C50.1418 70.2215 51.3054 69.9249 52.477 69.6812C52.7897 69.6215 53.1001 69.5617 53.4083 69.4973C57.0324 68.8111 60.6921 68.4248 63.9931 66.4488C66.4019 65.0073 68.5818 63.1716 71.2574 62.2175C73.8432 61.2979 76.6142 61.2243 79.323 61.0794C88.773 60.5748 99.3624 59.4621 106.788 52.9742C107.315 52.5133 106.919 51.5707 106.191 51.8351C103.627 52.7684 100.88 52.2592 98.2472 52.8236C95.6993 53.3697 93.2192 54.1582 90.6288 54.5088C88.2326 54.8318 85.8871 54.9882 83.5301 55.5767C80.9178 56.2285 78.417 56.717 75.7346 56.9573C70.9561 57.3849 67.2148 59.2299 63.4159 62.0749C61.5406 63.4785 59.6309 64.828 57.7912 66.2764C56.7219 67.1178 55.6308 67.6294 54.4948 67.9995C53.3749 68.1972 52.2608 68.4064 51.1674 68.6915C52.7954 67.3339 54.4212 65.9706 55.9217 64.4774C58.127 62.2818 59.7573 59.6012 62.2156 57.6562C66.9595 53.903 73.2453 52.957 78.371 49.8119C81.2305 48.0566 83.591 45.738 86.0458 43.4769C88.5799 41.1446 91.1243 38.8226 93.6596 36.4913C98.7726 31.7898 103.863 27.0619 108.876 22.2558C109.517 21.6385 108.66 20.797 107.977 20.9752C104.463 21.8948 101.534 24.7905 98.4576 26.6205C95.0221 28.6655 91.521 30.6058 88.0556 32.6003C84.2935 34.7659 80.4924 36.6592 76.4199 38.1685C73.0108 39.4318 69.7569 40.848 66.8468 43.062C64.3875 44.9311 62.1914 47.1692 60.3771 49.6682C58.6237 52.0833 57.4854 54.7859 56.0344 57.3723C54.366 60.3483 52.0067 62.7692 50.1533 65.6143C48.2861 68.4812 46.282 71.1032 43.9502 73.6149C39.1511 78.7854 33.7621 83.7812 27.3809 86.9136C28.0661 86.2411 28.6996 85.5238 29.2941 84.7732C30.2541 83.7915 31.0981 82.7259 31.604 81.3936C33.1435 78.7923 34.3807 75.976 35.5419 73.208C38.0002 67.3431 40.563 61.922 44.7689 57.086C49.4519 51.7017 53.9475 46.1105 57.1473 39.6927C58.642 36.6925 59.6435 33.6118 59.8505 30.2483C60.0482 27.0297 59.6343 23.8214 59.2123 20.6373C58.3695 14.2874 57.0059 7.06151 59.6228 0.956454C59.9654 0.157534 58.7478 -0.414945 58.3983 0.385119C55.594 6.8086 52.3378 13.1942 50.6615 20.0361C49.199 26.002 47.2202 31.5956 44.4585 37.0983C41.607 42.7861 38.36 48.2348 35.8179 54.0824C33.5137 59.3805 31.9822 64.9177 31.558 70.6905C31.3659 73.3068 31.3476 75.9875 30.8497 78.5762C29.0687 82.0707 27.021 85.3733 24.3477 88.3425C22.5138 89.1839 20.6811 89.9955 18.8679 90.8404C17.8527 91.2691 16.8639 91.7416 15.9038 92.2588C16.0832 91.9703 16.2545 91.6783 16.42 91.3829L16.4476 91.3565C18.7564 89.1954 20.7443 87.0481 22.1034 84.1628C24.4397 79.2107 25.048 73.4965 25.7401 68.1248C26.5611 61.7611 26.6105 55.3353 26.4127 48.9314C26.2058 42.247 26.0828 35.566 25.9206 28.8816C25.8436 25.6825 25.4561 22.4719 24.8364 19.3326C24.7375 18.8291 24.6271 18.3233 24.5179 17.8141C24.5432 17.5071 24.5696 17.2002 24.588 16.891C24.7134 14.7954 25.3733 12.024 23.8752 10.2629C23.505 9.82839 22.7748 9.92609 22.6518 10.5342C22.1896 12.8378 22.5909 15.1449 23.0646 17.4186C22.9623 18.5153 22.8542 19.6096 22.6794 20.7016C22.0988 24.3318 21.448 27.9712 20.7604 31.5818C19.5946 37.7144 18.0769 43.7551 15.5186 49.4682C13.4904 53.9961 11.9302 58.5068 12.9466 63.5268C14.2596 70.0135 17.6687 76.1185 17.4066 82.8995C17.2801 86.1618 16.059 89.0551 14.4275 91.7565C13.7756 92.452 13.2306 93.2129 12.7224 93.9946C11.2656 94.8395 9.8422 95.7603 8.46476 96.7948C5.63517 98.9203 2.9056 101.147 0.14844 103.338C1.31661 101.045 2.13295 98.5064 2.82397 96.2189C4.72109 89.9368 5.63171 83.8605 4.71764 77.3094C4.22209 73.7597 3.44256 70.2687 3.04129 66.7029C2.61702 62.9267 2.42154 59.1218 2.30426 55.3261C2.06856 47.7106 2.69058 40.0548 3.47703 32.4842C3.86105 28.785 4.43826 25.1066 5.19366 21.4661C5.87318 18.1899 6.83552 14.846 5.48683 11.6113C5.25802 11.0607 4.29682 11.0308 4.23244 11.7182Z" fill="#745648" fill-opacity="0.12"/>
</svg>
