<svg width="139" height="195" viewBox="0 0 139 195" fill="none" xmlns="http://www.w3.org/2000/svg">
<path d="M102.912 184.222C103.245 180.717 104.646 177.407 105.405 173.984C106.241 170.209 107.032 166.544 108.456 162.932C109.636 159.94 111.123 157.075 112.444 154.143C113.696 151.361 114.594 148.597 115.344 145.644C116.801 139.905 117.991 133.875 116.265 128.062C115.809 126.534 115.165 125.072 114.672 123.557C114.192 122.083 113.69 120.602 112.995 119.214C111.699 116.62 108.844 114.914 107.927 112.165C106.942 109.216 107.024 105.933 108.333 103.104C109.495 100.594 111.376 98.5551 112.383 95.9541L112.32 95.7521C112.486 95.621 112.657 95.492 112.832 95.3683C112.958 95.2996 113.086 95.233 113.211 95.1632L113.327 95.0352C113.602 94.8597 113.889 94.6927 114.186 94.5351C114.373 94.4357 114.434 94.2898 114.417 94.1439L114.668 93.9705C117.41 92.1371 120.235 90.3671 123.334 89.204C125.216 88.4977 127.11 87.8422 129.001 87.1718C126.302 89.7856 124.494 93.1416 123.701 97.0135C123.223 99.3407 122.803 101.978 123.117 104.344C123.436 106.737 123.91 109.114 124.431 111.469C124.957 113.847 125.243 116.161 125.475 118.584C125.829 122.287 126.595 125.918 127.367 129.551C128.868 136.632 129.297 143.852 130.941 150.91C131.777 154.493 132.917 157.978 133.916 161.516C134.352 163.056 134.734 164.594 135.267 166.103C135.332 166.288 135.398 166.472 135.465 166.657C135.522 168.041 135.809 169.4 136.47 170.701C136.727 171.208 137.568 171.125 137.507 170.475C137.403 169.379 137.081 168.342 136.699 167.322C136.544 165.72 136.687 164.106 136.612 162.41C136.491 159.66 137.371 156.946 138.055 154.309C139.502 148.726 141.042 143.124 141.274 137.33C141.522 131.15 141.087 124.261 138.862 118.445C136.568 112.45 131.918 107.442 130.088 101.28C128.587 96.229 131.013 91.3642 132.796 86.7362C132.878 86.5216 132.845 86.3376 132.751 86.2044C132.946 85.9876 133.146 85.7762 133.352 85.5679C137.465 83.9914 141.625 82.6052 145.745 81.0826L145.717 81.1133L145.668 81.1958C144.963 81.8545 144.359 82.6073 143.828 83.4299C142.256 85.8586 140.722 88.6426 139.727 91.3631C135.709 102.346 139.884 113.853 143.219 124.369C145.251 130.778 146.671 137.451 147.881 144.062C148.895 149.6 147.183 155.209 148.214 160.753C148.345 161.454 149.428 161.396 149.337 160.663C148.973 157.756 149.973 154.495 150.541 151.644C151.097 148.858 151.936 146.14 152.417 143.34C153.282 138.312 152.527 133.344 151.819 128.353C151.056 122.988 149.971 117.698 148.226 112.563C146.386 107.149 144.018 101.897 143.181 96.1898C142.784 93.4894 142.745 90.5268 143.436 87.8686C143.88 86.1579 144.837 84.612 145.648 83.0197C147.059 81.422 148.857 80.4007 150.655 79.1678C151.078 78.9912 151.504 78.8199 151.926 78.6381C153.11 78.1284 154.311 77.6326 155.509 77.1272L155.474 77.2371C152.788 80.5 150.997 84.7379 149.965 88.5982C149.262 91.2362 148.999 93.8235 149.531 96.5197C150.062 99.2202 151.16 101.759 152.33 104.234C153.581 106.878 154.811 109.538 156.197 112.114C157.861 115.211 159.682 118.223 161.221 121.386C164.14 127.38 164.458 133.845 165.87 140.262C167.164 146.143 168.895 151.995 171.959 157.214C172.834 158.707 175.147 157.678 175.024 156.098C174.758 152.719 175.105 149.336 174.67 145.963C174.248 142.69 173.329 139.138 173.98 135.848C174.232 134.572 174.874 133.638 175.354 132.468C175.886 131.168 175.953 129.575 175.993 128.184C176.08 125.276 175.302 122.305 173.944 119.748C172.609 117.234 170.772 114.949 169.12 112.638C167.542 110.432 166.011 108.054 164.141 106.082C162.313 104.156 160.05 102.716 158.527 100.5C156.652 97.7716 155.194 94.6303 154.789 91.3198C154.171 86.2689 156.166 81.7942 157.22 77.0045C157.49 76.6736 157.763 76.3447 158.046 76.0201C159.017 75.5792 159.978 75.1203 160.914 74.6244C164.067 72.9528 167.051 71.0052 170.384 69.6962C171.223 69.3663 170.761 68.089 169.907 68.3777C166.169 69.6412 162.743 71.6544 159.14 73.2393C157.755 73.8484 156.36 74.4352 154.963 75.0188C154.593 75.0632 154.221 75.0971 153.848 75.1182C153.692 74.9945 153.485 74.9237 153.222 74.9501C147.839 75.4936 144.606 70.0567 142 66.1837C140.085 63.3363 137.937 60.5481 136.599 57.3634C135.219 54.0809 135.63 50.6805 135.728 47.2149C135.822 43.9066 135.703 40.5566 135.226 37.2768C134.81 34.4129 134.237 31.2288 132.779 28.6996C132.021 27.3841 131.006 26.2896 130.08 25.0988C129.09 23.8251 128.255 22.4291 127.481 21.0161C126.007 18.3236 124.853 15.4829 123.641 12.6673C121.697 8.15218 119.551 3.13555 115.467 0.147304C114.904 -0.263999 114.279 0.251874 114.423 0.883738C114.855 2.77002 115.608 4.53863 116.223 6.36792C116.87 8.28879 117.289 10.2743 117.658 12.265C118.358 16.0338 119.121 19.68 120.389 23.3072C121.547 26.6233 122.898 29.8684 124.017 33.1986C125.135 36.5205 126.071 39.9028 127.073 43.2602C128.991 49.6761 131.427 55.899 134.929 61.6234C137.841 66.3836 141.586 71.6153 146.37 74.6477L146.577 74.7703C147.85 75.7473 149.262 76.4769 150.819 76.7486C150.184 77.0161 149.548 77.2815 148.915 77.5532C148.212 77.8546 147.505 78.1443 146.797 78.4277C146.58 78.2225 146.26 78.1221 145.876 78.2479C142.679 79.2979 139.942 79.4554 136.907 77.8525C133.627 76.1185 130.443 73.8431 127.482 71.6057C124.911 69.6624 122.532 67.5466 119.662 66.0346C118.418 65.378 117.082 64.8504 115.906 64.0712C114.676 63.256 113.598 62.1722 112.583 61.1053C110.342 58.7496 108.699 55.843 107.478 52.8506C106.274 49.9037 104.866 47.1939 103.173 44.5009C101.454 41.7651 99.3832 39.3443 97.5546 36.6977C95.6122 33.8847 93.967 30.9766 91.7515 28.3538C89.5003 25.6878 87.3175 22.9288 84.9957 20.3276L84.9851 20.3164C84.2431 18.9824 83.4874 17.6546 82.7307 16.344C81.6557 14.4826 80.236 13.0894 78.0068 13.0056C77.6675 12.9923 77.3871 13.445 77.5315 13.747C78.8774 16.555 81.4712 18.3124 83.616 20.4676L83.7678 20.7295C86.0865 24.583 88.0774 28.5232 90.0294 32.5749C91.7631 36.1732 93.7267 39.7529 95.1168 43.5019C96.4722 47.1567 97.0825 51.077 98.2239 54.8057C99.2304 58.0951 100.227 61.6129 102.123 64.5216C103.886 67.2284 106.553 69.1506 109.011 71.1701C111.513 73.2256 113.701 74.874 116.828 75.8763C120.097 76.9231 123.436 77.7933 126.727 78.7671C130.092 79.762 133.721 80.6745 137.321 80.8743C137.854 81.0499 138.393 81.1968 138.943 81.3057C138.638 81.4104 138.333 81.514 138.029 81.6177C134.478 82.822 131.041 84.316 127.503 85.534C124.452 86.5829 121.441 87.5282 118.579 89.0486C118.542 88.6923 118.313 88.3878 117.838 88.3603C114.861 88.1827 111.801 88.1763 109.047 86.8758C105.972 85.423 103.729 82.6687 102.054 79.7705C98.8816 74.2819 97.9646 67.4123 92.4893 63.5309C89.8449 61.6552 86.8021 60.4583 84.182 58.5635C81.7179 56.7798 79.5888 54.5498 77.502 52.3484C73.2588 47.8732 69.1346 43.8484 63.4938 41.2026C61.0708 40.0651 58.6098 38.8715 56.0381 38.116C55.06 37.8294 53.3284 37.5544 51.9951 36.9778C51.4365 36.4049 50.8284 35.8861 50.1085 35.4867C49.6743 35.246 49.0345 35.7783 49.2791 36.2471C49.6743 37.0071 50.3994 37.5238 51.2352 37.9091C51.9055 38.6059 52.4968 39.3948 53.1197 40.1171C54.0936 41.2468 55.2055 42.1889 56.3669 43.1197C59.3739 45.5281 61.9856 47.9274 64.2938 51.0432C66.2173 53.6395 68.1755 55.9921 70.6407 58.0909C73.1808 60.2574 75.569 62.4799 77.8762 64.8991C80.2381 67.3785 82.5536 69.914 85.0463 72.2666C87.4156 74.5018 90.0315 76.4431 92.4145 78.6614C94.7954 80.8754 96.4965 83.5135 98.558 85.9929C100.128 87.8824 101.958 89.406 104.337 90.1239C107.139 90.9698 110.043 91.5207 112.972 91.5735C113.436 91.582 113.889 91.5704 114.335 91.5429C113.007 92.3887 111.699 93.2684 110.398 94.1555C108.773 95.2636 107.207 96.4552 105.66 97.6733C105.39 97.7685 105.118 97.8594 104.846 97.9493C104.625 97.9746 104.411 97.9968 104.216 98.018C102.077 98.2474 99.887 98.2961 97.7865 97.7769C95.238 97.1446 92.8656 95.8631 90.6101 94.5478C88.2229 93.1542 85.8472 91.7395 83.7467 89.9262C81.7463 88.2006 79.9577 86.272 77.7107 84.852C75.4415 83.4194 72.9478 82.3916 70.626 81.0499C68.0975 79.5886 65.6334 77.806 62.8889 76.7666C60.5702 75.8869 58.0638 75.8499 55.6545 75.3625C49.8883 74.192 43.9966 73.4275 38.3316 71.8077C37.7056 71.628 37.4673 72.5827 37.9996 72.8523C39.4783 73.5999 41.0466 74.1624 42.5105 74.9395C44.1357 75.8034 45.5228 77.0405 46.8349 78.3177C49.2369 80.6544 51.4302 83.1645 54.2696 84.9916C58.5476 87.7418 63.5181 88.9291 68.321 90.3978C73.7004 92.043 78.4558 94.7889 83.5117 97.188C88.2903 99.456 93.2819 101.248 98.6381 100.497C99.5277 100.374 100.408 100.206 101.278 100.004C101.395 100.005 101.511 100.009 101.629 100.007C101.993 99.9994 102.381 99.9889 102.784 99.9709C100.16 102.079 97.5251 104.173 94.6879 105.983C91.6082 107.947 88.2524 109.39 84.9451 110.92C84.8081 110.535 84.4107 110.233 83.8932 110.381C80.6681 111.302 77.5716 110.948 74.3275 110.374C71.779 109.923 69.3728 109.476 66.9877 108.425C63.1808 106.748 59.8218 104.197 55.9981 102.542C54.1431 101.74 52.1806 101.128 50.1676 100.902C47.7519 100.632 45.5133 101.168 43.1229 101.369C40.1687 101.616 37.3346 101.068 34.4088 100.818C31.4577 100.565 28.5055 100.704 25.5587 100.342C22.5517 99.9719 19.4604 99.7562 16.4503 99.2181C16.3565 99.1546 16.2627 99.0912 16.1658 99.0299C14.1496 97.7505 11.8351 97.409 9.5132 97.1055C8.93036 97.0304 8.65844 97.8266 9.19912 98.0909C11.3207 99.1271 13.5783 99.7647 15.8812 100.217C16.6622 100.792 17.3715 101.46 18.1314 102.122C20.409 104.107 22.9912 105.557 25.74 106.78C31.1552 109.191 36.7486 110.643 42.675 110.925C49.7049 111.26 56.3069 113.16 63.1112 114.762C67.5969 115.816 72.4578 115.845 77.0572 115.066C75.8283 115.673 74.6026 116.292 73.3853 116.924L73.3789 116.925C70.4963 117.77 67.5663 118.428 64.6722 119.23C61.8591 120.01 59.2422 121.167 56.289 121.306C53.9471 121.414 51.6252 121.031 49.3044 120.781C46.914 120.524 44.5152 120.528 42.1164 120.665C36.9572 120.962 31.836 121.326 26.7791 122.421C24.334 122.951 21.8614 123.406 19.3677 123.616C17.263 123.794 15.2214 123.861 13.143 124.278C9.15695 125.077 4.73138 126.578 0.812757 124.765C0.132953 124.479 -0.351879 125.504 0.326871 125.809C2.92804 126.936 5.38903 128.295 8.2811 128.436C11.7992 128.608 14.7208 129.477 17.9881 130.761C20.4786 131.74 23.0566 132.464 25.7421 132.582C28.7111 132.713 31.601 131.985 34.472 131.317C40.8643 129.832 47.3703 129.241 53.7036 127.419C60.0242 125.601 65.7978 122.818 71.5166 119.637C68.6751 122.19 66.0212 125.003 63.595 127.822C62.9795 128.537 62.4167 129.28 61.8771 130.036C60.8284 130.409 59.7618 130.682 58.6878 130.906C58.4011 130.961 58.1165 131.016 57.8341 131.076C54.512 131.707 51.1572 132.062 48.1313 133.88C45.9233 135.206 43.925 136.894 41.4724 137.772C39.1021 138.618 36.562 138.685 34.0789 138.818C25.4164 139.283 15.7094 140.306 8.90295 146.274C8.41918 146.698 8.78279 147.565 9.44995 147.322C11.8003 146.463 14.3182 146.931 16.7318 146.412C19.0673 145.91 21.3407 145.185 23.7153 144.862C25.9118 144.565 28.0618 144.421 30.2224 143.88C32.617 143.28 34.9094 142.831 37.3683 142.61C41.7485 142.217 45.1781 140.52 48.6604 137.903C50.3794 136.612 52.13 135.37 53.8164 134.038C54.7966 133.264 55.7968 132.794 56.8381 132.453C57.8646 132.271 58.8859 132.079 59.8882 131.817C58.3958 133.065 56.9055 134.32 55.5301 135.693C53.5086 137.712 52.0141 140.178 49.7607 141.967C45.4121 145.419 39.6501 146.29 34.9516 149.182C32.3304 150.797 30.1666 152.93 27.9164 155.009C25.5934 157.155 23.261 159.291 20.9371 161.435C16.2501 165.759 11.5842 170.108 6.98895 174.529C6.40084 175.097 7.1871 175.871 7.81315 175.707C11.0341 174.861 13.7185 172.197 16.5389 170.514C19.6881 168.633 22.8974 166.848 26.0741 165.014C29.5226 163.022 33.007 161.281 36.7401 159.892C39.8651 158.73 42.8478 157.428 45.5154 155.391C47.7698 153.672 49.7829 151.613 51.446 149.315C53.0533 147.093 54.0967 144.607 55.4268 142.228C56.9561 139.491 59.1188 137.264 60.8178 134.647C62.5294 132.01 64.3665 129.598 66.5039 127.288C70.9032 122.532 75.8431 117.937 81.6925 115.056C81.0644 115.674 80.4837 116.334 79.9388 117.025C79.0587 117.928 78.2851 118.908 77.8214 120.133C76.4101 122.526 75.276 125.116 74.2115 127.663C71.9582 133.057 69.6089 138.043 65.7535 142.492C61.4607 147.444 57.3398 152.587 54.4066 158.49C53.0365 161.25 52.1185 164.083 51.9287 167.177C51.7475 170.138 52.1269 173.089 52.5137 176.018C53.2862 181.858 54.5362 188.505 52.1374 194.12C51.8233 194.855 52.9395 195.382 53.2599 194.646C55.8305 188.737 58.8153 182.864 60.352 176.571C61.6926 171.083 63.5065 165.938 66.0381 160.877C68.6519 155.645 71.6283 150.633 73.9586 145.254C76.0707 140.381 77.4746 135.288 77.8635 129.978C78.0395 127.572 78.0564 125.106 78.5128 122.725C80.1453 119.51 82.0225 116.473 84.4729 113.742C86.154 112.968 87.834 112.221 89.4961 111.444C90.4267 111.05 91.3331 110.615 92.2132 110.139C92.0488 110.405 91.8917 110.673 91.7399 110.945L91.7147 110.969C89.5983 112.957 87.776 114.932 86.5302 117.586C84.3886 122.141 83.831 127.397 83.1965 132.338C82.444 138.191 82.3987 144.102 82.58 149.992C82.7697 156.141 82.8825 162.286 83.0311 168.434C83.1017 171.377 83.4569 174.33 84.025 177.218C84.1156 177.681 84.2168 178.146 84.3169 178.614C84.2937 178.897 84.2695 179.179 84.2526 179.463C84.1377 181.391 83.5328 183.94 84.9061 185.56C85.2454 185.96 85.9147 185.87 86.0275 185.311C86.4512 183.192 86.0833 181.07 85.6491 178.978C85.7429 177.969 85.842 176.963 86.0022 175.958C86.5345 172.619 87.131 169.272 87.7613 165.951C88.83 160.31 90.2212 154.754 92.5663 149.499C94.4255 145.334 95.8557 141.185 94.924 136.567C93.7203 130.601 90.5953 124.985 90.8356 118.748C90.9516 115.747 92.0709 113.086 93.5665 110.601C94.1641 109.962 94.6636 109.262 95.1295 108.543C96.4648 107.766 97.7696 106.919 99.0323 105.967C101.626 104.012 104.128 101.964 106.656 99.9487C105.585 102.058 104.836 104.393 104.203 106.497C102.464 112.275 101.629 117.864 102.467 123.89C102.921 127.155 103.636 130.366 104.004 133.646C104.393 137.119 104.572 140.619 104.679 144.11C104.895 151.115 104.325 158.157 103.604 165.121C103.252 168.523 102.723 171.907 102.031 175.255C101.408 178.269 100.526 181.344 101.762 184.32C101.972 184.826 102.853 184.854 102.912 184.222Z" fill="#745648" fill-opacity="0.12"/>
</svg>
