<svg width="174" height="201" viewBox="0 0 174 201" fill="none" xmlns="http://www.w3.org/2000/svg">
<path opacity="0.16" d="M46.4863 -29.4737C45.7942 -27.2472 45.4548 -25.0303 45.259 -22.6991C45.0781 -20.548 44.4815 -18.6764 43.3247 -16.8776C42.1696 -15.0822 40.7332 -13.4981 39.6885 -11.6231C38.4222 -9.34903 37.7458 -6.72003 37.2065 -4.16809C36.9077 -2.75362 36.7028 -1.37207 36.1866 -0.114288C36.9907 -0.593857 37.8164 -1.04225 38.6097 -1.55385C40.4436 -2.7346 40.6071 -4.5836 41.3747 -6.50536C42.2119 -8.60283 43.5031 -10.47 44.6366 -12.397C45.7129 -14.227 47.3684 -15.7825 47.6256 -18.0142C47.702 -18.6782 48.5492 -18.7855 48.7741 -18.3371C48.828 -20.5774 49.14 -22.8056 49.1616 -25.0623C49.1898 -27.8722 48.5484 -30.6371 48.3144 -33.4349C47.3518 -32.423 46.8638 -30.6899 46.4863 -29.4737ZM32.5123 3.88766C31.3265 4.78793 30.4917 5.78688 29.6594 7.04466C28.2122 9.2339 26.8886 11.5002 25.2008 13.5033C23.5968 15.4077 21.6284 16.8456 19.8352 18.5353C19.612 18.7465 19.3847 18.9552 19.1557 19.1612C20.9281 18.647 22.7678 18.3284 24.4382 17.4913C27.1849 16.115 29.0968 13.7215 30.8916 11.2353C32.6235 8.8383 34.9162 7.42903 37.3691 5.96176C39.9465 4.42003 40.6776 1.49237 42.2883 -0.909821C44.0989 -3.60892 47.0165 -5.63972 48.1185 -8.81665C48.2421 -9.16985 48.5608 -9.27979 48.8396 -9.2261C48.9782 -9.84938 49.0936 -10.4778 49.1567 -11.1132C49.301 -12.5649 49.0695 -13.9906 48.8919 -15.4268C48.8015 -16.1643 48.7691 -16.8984 48.7658 -17.6324C48.419 -15.6198 47.2663 -14.2097 46.1602 -12.5407C44.791 -10.4709 43.3048 -8.18994 42.4119 -5.84749C41.7381 -4.07896 41.4991 -2.2334 39.9706 -0.998108C38.1857 0.444061 35.9577 1.12621 34.3238 2.80298C34.1462 2.98737 33.9387 3.00899 33.7545 2.94754C33.3462 3.26956 32.9247 3.5743 32.5123 3.88766ZM15.5343 22.3182C15.4604 22.0412 15.5949 21.6958 15.8696 21.5417C15.8098 21.4777 15.7642 21.4015 15.731 21.3158C15.2787 21.4534 14.8041 21.5348 14.3021 21.5452C14.7128 21.804 15.1236 22.0637 15.5343 22.3182ZM23.508 22.8419C25.6796 22.4117 27.262 21.0275 28.7864 19.4469C30.49 17.6783 32.3928 16.508 34.4864 15.3108C36.3966 14.2183 38.4944 13.0618 40.1092 11.5201C41.7207 9.98268 42.3289 7.56491 43.6168 5.73926C44.225 4.87621 44.9411 4.13869 45.6291 3.34747C46.439 2.41862 46.8738 1.35475 47.0796 0.128128C47.2472 -0.876038 47.297 -1.89838 47.4248 -2.90858C47.5593 -3.98112 47.7891 -5.02771 48.048 -6.06995C46.9684 -4.45119 45.5602 -3.05661 44.3197 -1.56856C42.4692 0.65184 41.6825 3.66257 39.6777 5.72975C38.6421 6.79796 37.2986 7.40738 36.0647 8.17868C34.771 8.9872 33.5579 9.9091 32.5497 11.089C31.5456 12.2637 30.7273 13.6011 29.7207 14.7775C28.7515 15.9081 27.662 16.9304 26.4389 17.7554C25.0249 18.7093 23.4906 19.2885 21.8658 19.7169C20.0867 20.1861 18.2752 20.554 16.6886 21.5556C18.9921 22.0421 21.0792 23.3232 23.508 22.8419ZM-13.4734 62.0802C-13.3381 61.9036 -13.1207 61.8291 -12.9091 61.8577C-12.9099 61.4093 -12.9174 60.9609 -12.9033 60.5125L-12.8975 60.3367C-13.0975 60.9167 -13.2966 61.495 -13.4734 62.0802ZM-14.7214 70.3523C-15.3006 72.5537 -16.0226 74.5074 -16.0334 76.8317C-16.0442 78.9647 -15.791 81.0994 -15.6716 83.228C-15.5471 85.4406 -15.4566 87.6558 -15.2882 89.8667C-15.1123 92.1676 -14.7654 94.4365 -14.4675 96.7218C-14.1929 98.8314 -14.0336 100.939 -14.2178 103.066C-14.3995 105.168 -14.8152 107.235 -15.1189 109.32C-15.7529 113.677 -15.177 118.032 -14.3264 122.319C-13.5107 126.429 -12.0553 130.307 -10.9956 134.342C-10.496 136.245 -10.126 138.198 -10.0446 140.172C-9.96001 142.257 -10.3184 144.289 -10.6205 146.34C-11.2553 150.657 -11.7042 155.115 -10.5608 159.391C-9.9691 161.606 -8.575 163.377 -7.88211 165.529C-7.22905 167.56 -7.18588 169.836 -7.12531 171.955C-7.05727 174.309 -6.94527 176.659 -7.08301 179.013C-7.12367 179.712 -7.17758 180.411 -7.2365 181.108C-6.91287 180.284 -6.57018 179.469 -6.18431 178.672C-5.02174 176.273 -3.65424 174.159 -3.16547 171.465C-2.68999 168.842 -2.9066 166.12 -2.54895 163.473C-2.46016 162.808 -2.3531 162.143 -2.22447 161.484C-2.34065 161.382 -2.41951 161.23 -2.42035 161.024C-2.43694 157.744 -2.88501 154.523 -3.68329 151.352C-4.46498 148.248 -5.69804 145.285 -6.47475 142.188C-8.03894 135.94 -6.58434 129.462 -7.27142 123.13C-7.62077 119.897 -9.22475 117.02 -9.71434 113.821C-10.2089 110.586 -9.86624 107.309 -9.82642 104.055C-9.78575 100.666 -10.2388 97.3208 -11.2105 94.0859C-12.0992 91.1236 -13.5315 88.3388 -14.1381 85.2865C-14.8559 81.6716 -14.6028 77.8177 -14.3364 74.1655C-14.0543 70.2961 -13.6269 66.4361 -13.6045 62.5502C-13.7771 63.1839 -13.919 63.8288 -13.9879 64.504C-14.1912 66.4794 -14.2127 68.4219 -14.7214 70.3523ZM-0.384796 155.853C0.300629 154.488 0.800186 153.298 0.845825 151.733C0.88649 150.327 0.767792 148.916 0.715515 147.511C0.596024 144.309 0.235123 141.125 -0.196381 137.954C-0.607147 134.932 -1.07271 131.917 -1.43616 128.889C-1.81456 125.733 -2.54897 122.706 -3.0842 119.584C-4.09076 113.71 -3.05923 107.725 -3.86165 101.836C-4.62259 96.25 -6.50798 90.928 -8.25058 85.6155C-10.0314 80.1913 -11.5225 74.6832 -12.3407 69.0036C-12.4312 68.3726 -12.5116 67.7398 -12.5846 67.1061C-12.9506 72.4308 -13.6817 77.7511 -13.2278 83.0843C-12.9547 86.2985 -11.6196 89.1525 -10.5699 92.1416C-9.5285 95.1091 -8.87787 98.2142 -8.68121 101.369C-8.47209 104.713 -8.89281 108.055 -8.74011 111.399C-8.58661 114.754 -7.23074 117.604 -6.45238 120.802C-4.91226 127.133 -6.72868 133.817 -5.64825 140.218C-5.05577 143.734 -3.55466 147.058 -2.65349 150.498C-1.99544 153.009 -1.54323 155.562 -1.33827 158.145C-1.06857 157.361 -0.757385 156.593 -0.384796 155.853ZM-6.53537 48.0133C-6.8175 53.7941 -6.3204 59.8658 -4.68401 65.4095C-3.84175 68.2652 -2.60619 70.9713 -1.59547 73.7639C-0.629578 76.4301 0.196106 79.1577 0.682373 81.9676C1.59932 87.2637 0.72467 92.8497 2.46396 97.9917C3.44231 100.885 5.19739 103.443 6.38733 106.247C7.16736 108.084 7.83368 109.971 8.3797 111.895C10.7754 116.698 11.8441 122.077 14.2406 126.876C16.3434 131.086 20.2991 133.807 22.5471 137.904C25.0017 142.379 24.4117 147.71 24.9859 152.636C25.6041 157.935 28.452 162.078 31.2792 166.351C32.9728 168.909 34.3552 171.563 35.5643 174.403C36.5111 176.63 37.9027 178.283 39.6661 179.727C39.2885 178.526 38.9483 177.314 38.6147 176.113C37.0256 170.38 35.4772 164.657 34.3204 158.82C34.2034 158.809 34.0865 158.773 33.9778 158.676C31.3066 156.307 29.6345 152.988 28.5118 149.572C27.8819 147.657 27.4679 145.674 26.9252 143.732C26.3368 141.621 25.6779 139.533 24.9701 137.463C24.2473 135.348 23.5088 133.232 22.5562 131.216C21.6699 129.343 20.6758 127.524 19.8792 125.606C19.1009 123.731 18.6072 121.758 17.7549 119.913C16.8629 117.98 15.7916 116.146 14.7054 114.329C12.6259 110.85 10.3646 107.4 8.98958 103.534C8.29834 101.589 7.81375 99.5455 7.24948 97.5572C6.65451 95.4588 6.09277 93.3432 5.76416 91.1782C5.11525 86.8941 5.57991 82.5017 5.16417 78.1847C4.75259 73.9205 3.79999 69.3767 1.42175 65.8129C0.133057 63.8816 -1.26852 62.0784 -2.32901 59.9896C-3.33226 58.0116 -4.15956 55.915 -4.73628 53.7587C-5.87894 49.4884 -5.28319 45.2285 -5.35289 40.9046C-5.50391 40.4631 -5.64906 40.0208 -5.81171 39.5836C-5.89801 42.4074 -6.4026 45.2848 -6.53537 48.0133ZM10.5447 122.811C11.294 125.333 12.5229 127.646 13.8108 129.906C15.1692 132.291 16.5608 134.648 17.7092 137.155C18.9548 139.875 19.9804 142.698 20.8451 145.572C22.5918 151.374 23.6839 157.355 25.0083 163.269C26.399 169.481 27.7898 176.062 31.9612 180.965C33.9984 183.36 36.5875 185.17 39.1408 186.91C41.3083 188.386 43.5704 189.761 45.9727 190.779C44.5653 188.909 42.8965 187.242 41.8078 185.132C41.241 184.035 40.7614 182.887 40.3357 181.716C40.2544 181.704 40.1698 181.673 40.0851 181.611C38.2703 180.299 36.5634 178.818 35.3926 176.835C34.0582 174.576 33.274 171.991 31.9546 169.706C29.437 165.344 26.0688 161.518 24.5585 156.582C22.9852 151.441 24.0607 145.863 22.4434 140.742C20.9738 136.088 16.8064 133.225 14.2257 129.311C12.0749 126.049 10.9446 122.226 9.68665 118.474C9.89575 119.938 10.1248 121.396 10.5447 122.811ZM32.2426 144.848C31.6949 141.523 30.7398 138.286 29.5764 135.142C28.3383 131.8 26.8413 128.58 25.3809 125.34C23.9013 122.056 22.4533 118.755 20.9273 115.493C19.5216 112.484 17.91 109.573 16.6687 106.484C15.4131 103.361 14.4498 100.118 13.6946 96.8265C12.1653 90.1628 12.1354 83.1501 10.153 76.6058C8.1739 70.0719 5.3351 63.7102 1.83827 57.9164C0.116409 55.0614 -1.58055 52.2239 -2.72237 49.0521C-3.27419 47.5199 -3.74884 45.9609 -4.22681 44.4036C-4.32472 47.0724 -4.41682 49.7351 -3.82932 52.3745C-2.92233 56.4439 -1.09679 60.1558 1.28229 63.4903C2.41 65.0719 3.51038 66.6465 4.22318 68.4851C4.93848 70.3333 5.44302 72.3217 5.81976 74.272C6.65538 78.5977 6.63211 82.9986 6.66116 87.3892C6.6902 91.7287 8.03864 95.8561 9.20287 99.974C9.77957 102.016 10.3712 103.988 11.2956 105.897C12.1727 107.707 13.2026 109.43 14.229 111.152C16.2803 114.597 18.5042 118.009 19.8444 121.844C20.558 123.885 21.2659 125.844 22.2218 127.782C23.0566 129.475 23.9238 131.152 24.615 132.917C26.3949 137.467 27.7907 142.158 28.9989 146.902C29.9283 150.55 31.3979 154.207 33.9603 156.921C33.8757 156.457 33.7877 155.996 33.7089 155.531C33.1081 151.984 32.826 148.392 32.2426 144.848ZM46.6473 103.499C46.4116 107.922 45.8448 112.245 46.4506 116.674C47.0663 121.173 48.7152 125.391 51.495 128.91C53.3057 131.202 55.3993 133.216 57.4199 135.301C60.189 135.931 62.6543 138.022 64.5687 140.087C67.166 142.888 68.4472 146.326 69.8147 149.894C70.6553 152.085 71.579 154.21 72.6893 156.268C73.7074 158.157 74.8044 160.003 75.733 161.943C76.6632 163.886 77.3719 165.905 78.4473 167.775C79.4663 169.55 80.614 171.247 81.5201 173.089C83.3996 176.904 84.2676 181.326 88.1246 183.564C88.0424 179.465 87.6964 175.362 87.313 171.319C87.1387 169.482 86.9961 167.643 86.8542 165.802C86.6376 165.987 86.3189 166.047 86.0534 165.796C84.0477 163.891 82.4536 161.6 81.0405 159.198C80.2936 157.929 79.5377 156.734 78.5892 155.614C77.7063 154.571 76.7653 153.579 75.9247 152.496C74.2261 150.306 72.6726 147.785 71.4221 145.287C70.2612 142.965 69.9508 140.424 69.0223 138.028C68.4655 136.591 67.5137 135.454 66.5794 134.275C65.6682 133.127 64.7538 131.981 63.8526 130.826C62.1133 128.592 60.4205 126.311 58.9044 123.904C57.346 121.432 56.0109 118.857 55.0483 116.07C54.0866 113.286 53.4583 110.396 52.8484 107.511C52.1514 104.217 51.7058 100.948 51.4236 97.5866C51.1639 94.4901 50.9258 91.3842 50.2421 88.357C49.7906 89.1534 49.3317 89.9446 48.9093 90.7445C46.8373 94.6641 46.8796 99.1465 46.6473 103.499ZM60.6404 138.881C63.4352 142.355 65.0384 146.525 66.5038 150.744C68.0639 155.24 70.1666 159.689 70.9848 164.419C71.3815 166.708 71.6254 169.013 72.1648 171.275C72.7224 173.609 73.5631 175.833 74.6526 177.951C75.7563 180.095 77.0938 182.09 78.59 183.954C79.9301 185.624 81.4338 187.142 82.7566 188.827C84.4909 191.038 86.3463 193.718 87.2084 196.594C87.9254 192.703 88.1669 188.742 88.1387 184.77C87.9934 184.83 87.8225 184.831 87.6458 184.733C84.5938 183.033 83.0262 179.969 81.7458 176.753C80.9931 174.865 80.1924 173.071 79.156 171.331C78.1328 169.612 77.0391 167.935 76.2027 166.104C75.3189 164.171 74.5563 162.22 73.5439 160.348C72.5108 158.436 71.4014 156.565 70.4654 154.597C68.7054 150.897 67.7867 146.618 65.5081 143.21C64.4268 141.592 63.0385 140.154 61.5573 138.936C60.8893 138.387 60.1516 137.838 59.3683 137.389C59.8031 137.877 60.2296 138.371 60.6404 138.881ZM84.6543 148.603L84.5962 148.381C84.4792 148.341 84.3663 148.274 84.28 148.144C82.8486 146.011 82.174 143.354 80.5094 141.391C78.8448 139.428 76.4018 138.427 74.5912 136.628C71.067 133.128 69.2613 128.431 67.5212 123.801C65.6616 118.85 63.4219 114.253 60.3541 109.99C58.9077 107.981 57.473 106.06 56.4565 103.764C55.5254 101.662 54.9047 99.4443 54.3869 97.1979C53.3538 92.7164 52.3273 88.0687 52.4883 83.4401C52.1597 84.6139 51.6543 85.7332 51.0809 86.8274L51.1565 86.9823C52.69 92.7969 52.3589 98.9041 53.5115 104.787C54.6632 110.664 55.9561 116.503 58.9791 121.677C60.4321 124.163 62.0851 126.513 63.8219 128.789C65.5495 131.051 67.5112 133.186 69.1036 135.552C70.4438 137.542 70.7549 139.933 71.4636 142.194C72.3598 145.055 74.1099 147.534 75.6874 150.016C77.2972 152.551 79.5767 154.507 81.1874 157.036C82.9325 159.774 84.4435 162.507 86.7736 164.769C86.5554 161.93 86.3264 159.091 85.9803 156.266C85.6658 153.69 85.2451 151.126 84.6543 148.603ZM78.5054 126.834C77.6341 124.651 76.6557 122.514 75.8475 120.302C75.1521 118.397 74.6974 116.435 73.7473 114.638C70.3384 108.185 63.9796 104.167 59.8712 98.2661C57.0689 94.2426 56.3212 89.5455 54.8948 84.9134C54.5885 83.9188 54.2069 82.977 53.7762 82.0637C53.3331 86.7131 54.3388 91.3946 55.3387 95.9159C55.8366 98.1718 56.3843 100.435 57.2589 102.568C58.2215 104.915 59.6114 106.909 61.086 108.927C63.9995 112.915 66.2939 117.209 68.0788 121.861C69.8903 126.582 71.4901 131.53 74.9695 135.248C76.8474 137.253 79.429 138.321 81.2512 140.374C82.0844 141.313 82.6843 142.407 83.2369 143.534C83.0079 142.766 82.7822 141.998 82.5723 141.225C81.2645 136.416 80.3517 131.464 78.5054 126.834ZM83.5996 96.5374C83.6286 96.2509 83.8137 95.9877 84.1714 95.9929C86.4185 96.0301 88.6117 96.5149 90.7866 97.0732C92.9906 97.6394 95.2087 98.1319 97.4143 98.6877C99.7187 99.2677 102.011 99.9082 104.334 100.408C106.451 100.864 108.593 101.177 110.703 101.683C112.704 102.162 114.669 102.78 116.565 103.604C118.614 104.495 120.537 105.664 122.514 106.712C126.651 108.908 130.85 111.027 135.097 112.983C137.457 114.07 139.863 115.051 142.299 115.939C144.771 116.84 147.254 116.861 149.843 116.858C149.983 116.858 150.089 116.908 150.179 116.975C155.897 114.538 161.199 111.099 166.774 108.309C165.43 108.715 164.081 109.104 162.7 109.31C159.166 109.836 155.592 109.939 152.035 110.2C145.477 110.683 138.753 110.721 132.368 108.875C125.876 106.997 120.198 102.921 114.601 99.1491C111.728 97.2126 108.84 95.2727 105.805 93.6202C102.732 91.9477 99.3876 90.9392 95.9771 90.3515C92.3035 89.7187 88.5121 89.4547 84.7896 89.4598C81.2836 89.465 77.7394 89.8078 74.382 90.9003C76.1512 91.8854 77.9063 92.8948 79.629 93.9647C80.9666 94.7957 82.2868 95.6588 83.5996 96.5374ZM93.7814 103.659C96.4185 102.958 99.2747 103.5 101.902 103.979C105.181 104.578 108.406 105.302 111.484 106.661C114.627 108.051 117.197 110.203 119.899 112.327C122.683 114.514 125.636 116.112 128.994 117.108C132.639 118.186 136.41 118.711 140.082 119.674C140.24 119.715 140.341 119.807 140.41 119.915C142.077 119.604 143.729 119.204 145.361 118.725C146.01 118.534 146.65 118.322 147.284 118.099C146.029 118.063 144.777 117.956 143.548 117.651C141.393 117.118 139.28 116.148 137.232 115.281C133.014 113.496 128.906 111.401 124.818 109.314C120.764 107.246 116.894 104.765 112.527 103.47C108.261 102.204 103.825 101.644 99.5196 100.527C97.0567 99.8892 94.5747 99.3482 92.111 98.7154C89.6672 98.0869 87.2284 97.4031 84.7066 97.2784C87.7595 99.3516 90.7658 101.516 93.7814 103.659ZM132.227 120.642C134.009 120.671 135.785 120.564 137.549 120.352C131.985 119.089 126.266 118.3 121.396 114.976C118.713 113.144 116.361 110.822 113.582 109.136C110.553 107.299 107.091 106.251 103.665 105.58C100.991 105.056 97.9728 104.275 95.1904 104.655C102.822 110.047 110.583 115.19 119.421 118.249C123.569 119.684 127.848 120.574 132.227 120.642ZM56.2441 71.9226C59.0107 71.4101 61.6619 70.3463 64.5131 70.5107C69.7119 70.8103 74.4767 74.0885 79.7327 73.7448C81.1633 73.6513 82.5723 73.2462 84.0013 73.0835C85.6277 72.8982 87.2673 72.8168 88.8822 72.5355C91.4255 72.0914 93.905 71.2993 96.4152 70.6718C96.3273 70.6605 96.2401 70.6544 96.1522 70.6397C94.6145 70.3896 93.3689 69.4391 91.9699 68.8071C88.8871 67.4152 85.4293 67.9173 82.2088 68.3544C78.9659 68.7941 75.7919 68.9318 72.5407 68.4843C70.9267 68.2626 69.3542 67.9579 67.7178 68.0532C66.191 68.1423 64.7031 68.5172 63.2335 68.943C60.5856 69.7117 57.8506 70.5246 55.4848 72.0152C55.737 71.9901 55.9885 71.9694 56.2441 71.9226ZM110.317 65.9479C108.682 65.477 107.026 65.3238 105.323 65.2303C103.621 65.1376 102.026 64.5594 100.36 64.2581C98.5553 63.9309 96.5621 63.7881 94.734 63.9084C93.0985 64.0166 91.5625 64.7472 89.9186 64.7845C88.181 64.8243 86.3736 64.2235 84.6717 63.8998C82.7905 63.5431 80.8994 63.2375 78.99 63.106C75.1222 62.8402 71.5889 63.7777 67.9112 64.91C64.0393 66.102 60.5458 68.37 56.6142 69.3646L56.5486 69.3672C56.3395 69.7057 56.1171 70.0303 55.8848 70.3445C57.4025 69.5213 59.0281 68.8989 60.6645 68.4046C63.704 67.4853 66.7411 66.5184 69.945 66.8404C71.6279 67.01 73.2825 67.3676 74.9729 67.4792C76.581 67.5857 78.1942 67.5459 79.7982 67.3909C83.125 67.0689 86.4301 66.2777 89.7759 66.8577C91.633 67.1797 93.0843 68.0627 94.7605 68.8695C96.7571 69.8303 98.8158 69.2486 100.918 69.4624C100.995 69.4702 101.058 69.4971 101.12 69.5265C102.846 69.0469 104.543 68.4834 106.224 67.7822C107.603 67.2074 108.962 66.5824 110.317 65.9479ZM114.186 64.1491C116.571 63.0731 118.974 61.9676 121.3 60.7202C119.852 59.9342 118.292 59.8745 116.659 60.0277C114.96 60.1861 113.338 60.3411 111.626 60.2363C109.701 60.1186 107.885 60.2632 105.97 60.3532C104.159 60.4389 102.348 60.2883 100.535 60.3359C97.3712 60.419 94.1772 61.456 91.0248 60.7886C88.9693 60.3532 86.6442 59.4547 85.1879 57.7796C83.6602 57.3052 82.1424 56.7815 80.5907 56.4179C77.7503 55.7531 74.9189 55.8942 72.1615 56.8681C69.4405 57.8281 67.1751 59.5066 64.7828 61.1046C62.3514 62.7277 59.6678 64.1179 58.0796 66.7417C57.8671 67.0914 57.663 67.4498 57.4597 67.809C60.5839 66.8023 63.4542 65.0848 66.5644 64.0218C70.0031 62.8463 73.6336 61.7391 77.2798 61.7737C81.0745 61.8101 84.7638 62.6913 88.4806 63.3726C90.3833 63.7214 91.9707 63.0298 93.8229 62.7484C95.5837 62.481 97.3712 62.6965 99.1328 62.8523C101.116 63.0263 102.993 63.7864 104.969 63.9517C107.139 64.1326 109.225 64.1976 111.313 64.9273C111.514 64.9974 111.63 65.1411 111.686 65.3056C112.517 64.9152 113.349 64.5265 114.186 64.1491ZM116.683 54.7282C113.552 54.401 110.578 54.9065 107.625 55.9981C106.331 56.4768 105.066 56.978 103.717 57.2706C102.128 57.6143 100.509 57.7753 98.9029 58.0073C95.7546 58.4626 92.6072 59.1993 89.4133 58.7872C89.0307 58.7379 88.6507 58.6738 88.2731 58.5994C89.6373 59.272 91.2065 59.6486 92.4902 59.749C94.0835 59.8719 95.7207 59.5629 97.2965 59.3629C99.1403 59.1283 100.952 59.0461 102.81 59.0876C104.589 59.1274 106.307 59.0443 108.079 58.905C109.819 58.7682 111.551 59.0348 113.289 59.0478C116.439 59.0703 119.478 57.9874 122.352 59.8892L122.52 60.058C124.394 58.9915 126.192 57.7961 127.873 56.4257C124.209 56.888 120.173 55.0926 116.683 54.7282ZM116.512 27.7389C118.365 25.7124 120.058 23.5353 121.899 21.4984C123.711 19.491 125.863 17.8593 127.563 15.7453C128.689 14.3456 129.67 12.8324 130.685 11.3452C128.989 11.8828 127.411 12.3546 125.948 13.5509C124.652 14.6105 123.577 15.9228 122.411 17.1286C119.744 19.8857 116.553 21.3037 112.749 21.0379C112.571 21.0258 112.395 20.9946 112.218 20.9756C112.162 21.1409 112.049 21.2872 111.856 21.366C107.165 23.2756 102.427 25.0641 97.6466 26.7192C95.6368 27.4152 94.076 28.9136 92.1127 29.6849C90.4041 30.3558 88.4864 30.0034 86.7546 29.6122C84.6792 29.1421 82.6677 28.4314 80.6015 27.938C78.1959 27.365 75.6616 27.5874 73.2187 27.7242C70.6853 27.8662 68.2215 28.1492 65.7379 28.7024C65.3537 28.7881 64.9712 28.8807 64.5878 28.9725C64.8525 29.0642 65.1073 29.1595 65.3421 29.2538C66.6764 29.7931 67.761 30.6484 68.9949 31.379C70.7674 32.4299 72.7265 32.2568 74.6899 32.4836C76.8482 32.7329 78.9892 33.1458 81.16 33.2557C83.3382 33.3656 85.4999 32.9493 87.674 33.0661C88.605 33.1163 89.5004 33.3189 90.4107 33.5137C91.6363 33.776 92.7757 33.8045 94.0121 33.6297C96.2244 33.3163 98.3661 32.5874 100.437 31.7391C102.668 30.8258 104.772 29.6027 107.172 29.2503C109.559 28.9006 111.974 29.1534 114.373 29.1638C114.609 29.1655 114.765 29.2876 114.858 29.4503C115.429 28.898 115.979 28.3232 116.512 27.7389ZM98.981 19.0011C96.5687 19.1326 93.9723 19.5118 91.7741 20.6086C89.995 21.4958 88.376 22.7441 86.4683 23.3362C84.7746 23.8634 83.2544 23.5016 81.599 23.0298C79.1983 22.3451 76.7503 22.0957 74.2667 22.0759C71.8296 22.0559 69.3941 22.2135 66.9577 22.2091C64.7886 22.2065 62.6228 22.0161 60.4545 22.0984C58.1684 22.1841 56.0806 22.6567 54.1007 23.8824C52.4394 24.91 50.891 26.0422 48.9318 26.3314C47.7626 26.5036 46.5859 26.4422 45.41 26.469C46.9925 26.7971 48.5276 27.3061 50.0686 27.8419C52.2949 28.6149 54.5454 29.4538 56.9262 29.2789C57.4465 29.2408 57.9659 29.1716 58.4846 29.0885C59.414 28.3752 60.647 28.2202 61.8926 28.3449C62.6493 28.1527 63.4028 27.9571 64.1522 27.7796C66.3844 27.2516 68.6357 26.785 70.9218 26.6006C73.3423 26.405 75.8118 26.2457 78.239 26.3495C80.5052 26.4456 82.5906 27.2533 84.7672 27.8272C86.6276 28.318 88.6498 28.9664 90.5866 28.7734C92.6288 28.5699 94.2129 26.836 96.0293 25.9981C98.4017 24.9048 101.002 24.2157 103.447 23.3051C105.72 22.4585 107.979 21.5755 110.231 20.6709C109 20.4242 107.78 20.1073 106.56 19.8096C104.059 19.1993 101.553 18.8617 98.981 19.0011ZM49.4504 -34.6053C49.5591 -31.5374 50.3474 -28.5284 50.3707 -25.4614C50.3939 -22.4238 49.7317 -19.3992 49.9955 -16.3608C50.1142 -14.9965 50.398 -13.647 50.413 -12.2732C50.4304 -10.8042 50.125 -9.34904 49.7765 -7.93457C49.4379 -6.5677 49.0363 -5.2164 48.779 -3.82877C48.55 -2.58829 48.492 -1.32703 48.3235 -0.0778961C48.1833 0.961761 47.9409 1.98059 47.4397 2.90079C46.8439 3.99583 45.8971 4.78792 45.1337 5.74619C44.3952 6.67244 43.7869 7.69824 43.2417 8.75867C42.709 9.79657 42.3024 10.8986 41.5498 11.7936C40.1325 13.4799 38.0878 14.5724 36.2655 15.7047C34.0225 17.0992 31.7323 18.1665 29.8528 20.1151C28.1882 21.8412 26.4795 23.4236 24.1287 23.9898C22.7744 24.3161 21.4475 24.285 20.1049 23.9145C18.7921 23.5518 17.5433 22.9995 16.2065 22.7389C18.5922 24.2201 20.9712 25.7133 23.3486 27.21C28.1325 30.2207 33.1819 32.4186 38.706 33.4349C44.2425 34.4547 49.8843 33.5708 55.4175 34.53C61.383 35.5635 67.298 36.8404 73.2967 37.6662C76.2633 38.0748 79.2406 38.3985 82.2271 38.6011C84.7895 38.7751 87.3421 38.8478 89.863 38.2514C92.1384 37.713 94.2079 36.6724 96.3953 35.8682C98.7802 34.9913 101.314 34.7221 103.805 34.3629C106.343 33.9958 108.948 33.5552 111.227 32.2602C112.148 31.7374 112.999 31.1054 113.805 30.4112C111.91 30.3757 110.01 30.232 108.12 30.3991C105.887 30.5956 103.99 31.5625 101.952 32.4489C98.3354 34.0227 94.2195 35.5982 90.2588 34.7645C89.2099 34.5438 88.1909 34.3204 87.1163 34.3075C85.9952 34.2945 84.8792 34.4209 83.7631 34.4919C81.6761 34.6243 79.6181 34.42 77.5527 34.1318C75.4782 33.8418 73.3996 33.7335 71.3275 33.4851C69.7658 33.2981 68.4879 32.5727 67.1926 31.6863C65.9362 30.8284 64.6185 30.2199 63.1489 29.8658C62.749 29.7697 62.3041 29.6823 61.8485 29.6304C60.9275 29.8503 60.0039 30.0571 59.0745 30.2311C58.955 30.3324 58.8364 30.4363 58.7343 30.5679C58.4381 30.9505 58.0107 30.767 57.8282 30.4268C55.6151 30.6665 53.5895 30.3333 51.4038 29.6217C48.9002 28.8045 46.4448 27.7779 43.8193 27.4662C43.3861 27.416 43.2061 26.991 43.2625 26.6473C42.4252 26.7625 41.5921 26.9165 40.7623 27.0871C38.3243 27.5909 35.9294 28.1042 33.4333 28.1259C32.1181 28.1371 30.7987 28.1484 29.4909 27.9822C28.4885 27.8549 27.5101 27.5892 26.5193 27.3909C24.7369 27.0351 22.7039 26.7971 21.1513 25.7384C20.5033 25.296 21.1082 24.2053 21.7612 24.6503C23.1445 25.5947 24.9876 25.8094 26.5791 26.1245C28.6396 26.5331 30.5929 26.8776 32.7031 26.8715C35.1071 26.8637 37.3874 26.5175 39.7383 26.0206C41.89 25.5661 44.0184 25.1991 46.2183 25.1982C47.3692 25.1974 48.5251 25.2251 49.6429 24.8978C50.6503 24.6027 51.5432 24.0486 52.427 23.4799C54.1422 22.3762 55.8059 21.4526 57.8182 21.1029C59.8637 20.7479 61.9423 20.7999 64.0061 20.8726C66.2831 20.9531 68.5477 20.9358 70.8255 20.87C73.1772 20.8025 75.5371 20.7488 77.8805 21.0163C79.8463 21.2405 81.6712 21.8828 83.5971 22.2672C85.6667 22.6801 87.5155 21.6196 89.2639 20.5921C91.1111 19.5066 92.8802 18.7015 94.9713 18.2696C97.2981 17.7883 99.6863 17.5935 102.055 17.771C104.209 17.932 106.296 18.4496 108.39 18.9725C112.443 19.9836 116.717 20.4398 120.179 17.5459C123.028 15.1636 124.984 11.8464 128.624 10.6137C129.737 10.2363 130.925 10.0589 131.989 9.53342C132.259 9.17503 132.52 8.81059 132.808 8.46606C134.051 6.97714 135.401 5.58691 136.592 4.06337C137.136 3.17435 137.693 2.29482 138.322 1.46553L138.341 1.43353L138.343 1.43527L138.435 1.30542C138.877 0.736679 139.707 1.46468 139.384 2.06891C138.83 3.10077 138.169 4.04433 137.458 4.94719C136.172 7.05246 134.91 9.18109 132.875 10.425C131.8 11.8707 130.805 13.3752 129.754 14.8537C128.988 15.9314 128.185 16.9849 127.286 17.9475C126.395 18.9024 125.376 19.7031 124.445 20.6138C122.732 22.2905 121.207 24.162 119.655 25.9981C116.58 29.639 113.341 33.2713 108.73 34.6537C106.19 35.4146 103.539 35.6129 100.938 36.0422C98.298 36.4785 95.9945 37.4403 93.5109 38.4029C91.4529 39.2001 89.3427 39.7611 87.1495 39.9333C84.2253 40.1636 81.2363 39.8243 78.3261 39.53C72.3316 38.9231 66.3868 37.8913 60.4636 36.7711C57.507 36.2111 54.5711 35.528 51.5614 35.3835C48.5425 35.2389 45.5162 35.4034 42.4998 35.1896C37.1525 34.8104 31.8517 33.2514 27.0413 30.8024C24.0316 29.2702 21.2119 27.3312 18.3441 25.5358C15.4115 23.6998 12.4706 21.8767 9.50407 20.103C6.81134 18.4929 4.01237 17.3944 1.04996 16.4482C-1.21045 15.7263 -3.48077 15.0217 -5.64243 14.027C-1.02452 18.2661 2.2424 23.9716 6.77898 28.3103C9.64183 31.05 13.0922 32.6636 16.3874 34.7273C18.0545 35.7713 19.6311 36.9685 20.9555 38.4626C22.1761 39.839 23.1952 41.3954 24.176 42.9605C26.4862 46.6482 29.0038 50.0918 31.8111 53.3856C34.6598 56.7278 37.6554 59.9264 40.539 63.235C42.7065 65.7228 44.7495 68.3873 46.8564 70.9886C46.9891 70.8388 47.18 70.741 47.4231 70.7904C49.1193 71.1357 50.7349 71.6292 52.3796 71.8941C52.407 71.7452 52.4991 71.6093 52.6808 71.5236C54.9861 70.4311 55.8789 67.9449 57.1834 65.8665C58.5268 63.7266 60.5699 62.3425 62.6212 61.0223C64.9172 59.5429 67.0847 57.835 69.5343 56.6318C71.8403 55.4986 74.3248 54.7576 76.8873 54.7195C79.7194 54.6771 82.413 55.593 85.0949 56.4301C85.3414 56.3418 85.636 56.3781 85.8285 56.6534L85.8301 56.6551C87.259 57.0897 88.7104 57.4922 90.1983 57.61C91.9691 57.7502 93.7457 57.5537 95.4958 57.2871C98.4723 56.8326 101.577 56.5997 104.488 55.7886C107.408 54.9749 110.037 53.6418 113.104 53.4141C116.329 53.1752 119.313 53.9214 122.429 54.652C124.82 55.213 127.944 55.6917 130.183 54.3759C130.77 54.0296 131.42 54.8598 130.915 55.3644C126.935 59.343 121.939 61.991 116.934 64.2772C111.672 66.6785 106.428 69.5248 100.826 70.9644C97.7297 71.7599 94.6021 72.4481 91.5011 73.2332C88.3088 74.0409 85.0485 74.0331 81.8371 74.6745C79.224 75.1974 76.7852 74.9688 74.2186 74.2651C71.559 73.5362 68.9783 72.4784 66.2624 71.9849C64.5745 71.6785 62.909 71.6906 61.2262 72.03C59.5425 72.3693 57.902 72.9181 56.2075 73.2003C55.357 73.3423 54.5346 73.3631 53.7264 73.3137L53.6915 73.3406C53.3729 73.6245 52.9829 73.4894 52.7796 73.2263C51.1217 73.0125 49.5018 72.5442 47.819 72.1641C50.525 75.4346 53.3837 78.5449 56.7917 80.9998C60.3027 83.5293 64.2526 85.4545 68.0448 87.4732C69.7078 88.3587 71.3707 89.2478 73.0245 90.1515C73.0909 90.0623 73.1755 89.9827 73.3008 89.9377C79.4871 87.6853 86.3819 87.9735 92.8063 88.6582C96.0808 89.0071 99.3453 89.6027 102.459 90.7445C105.635 91.9088 108.547 93.6963 111.4 95.5358C117.268 99.3196 122.925 103.831 129.375 106.505C135.721 109.134 142.689 109.462 149.432 109.11C153.414 108.902 157.441 108.715 161.401 108.227C165.32 107.744 168.981 105.899 172.92 105.663C173.634 105.62 173.691 106.675 173.08 106.9C165.328 109.758 158.517 114.729 150.946 118.018C143.124 121.416 134.367 122.779 125.981 121.295C113.842 119.148 103.469 112.104 93.4072 104.93L93.2171 104.795C90.2646 102.688 87.3371 100.572 84.3996 98.5682C77.1711 93.6383 69.4472 89.7793 61.8477 85.5358C59.2703 84.0954 56.81 82.5736 54.5205 80.7566C54.7471 81.1773 54.962 81.6058 55.152 82.0551C56.9619 86.321 57.2888 91.1392 59.4587 95.2562C62.9398 101.859 69.4629 105.904 73.5829 112.001C75.8815 115.403 76.7454 119.493 78.3295 123.266C79.2613 125.487 80.2239 127.703 80.9218 130.021C81.6504 132.444 82.2097 134.926 82.8271 137.381C84.1008 142.456 85.816 147.385 86.6666 152.568C87.4773 157.517 87.7968 162.533 88.1943 167.532C89.0564 178.374 90.4373 189.404 87.6806 200.093C87.5056 200.773 86.4824 200.644 86.4957 199.926C86.5645 196.08 83.9805 192.322 81.7267 189.496C79.2581 186.402 76.5221 183.652 74.4916 180.19C72.1731 176.236 70.9035 171.969 70.2122 167.413C69.8455 164.989 69.4405 162.65 68.6763 160.319C67.9211 158.019 66.9943 155.787 66.1827 153.508C64.6251 149.132 63.2709 144.593 60.5699 140.798C59.4554 139.232 58.1725 137.817 56.8448 136.442L56.6631 136.408C56.2656 136.359 56.0781 135.995 56.0938 135.669C54.4699 134.018 52.8078 132.401 51.3191 130.63C48.5733 127.365 46.6282 123.591 45.6996 119.345C44.7893 115.18 44.7844 110.856 45.1943 106.625C45.6449 101.978 45.2598 96.9971 46.79 92.5381C48.2612 88.2479 52.0452 84.7879 51.6494 79.9204C51.6179 79.5265 51.8892 79.3291 52.1838 79.3196C51.9547 78.9941 51.7348 78.6643 51.4826 78.3492C49.9814 76.4794 48.2811 74.7957 46.7875 72.9181C46.7053 72.8151 46.6713 72.7052 46.6555 72.5952C45.8 71.5461 44.9512 70.49 44.1056 69.4347C38.6089 62.5831 32.3239 56.4422 27.038 49.407C24.6033 46.1678 22.7819 42.3805 20.1025 39.3533C17.3699 36.2664 13.6067 34.6901 10.2211 32.5615C3.69627 28.4591 -0.0918427 21.4214 -5.42006 15.9721C-7.75681 13.5829 -10.4728 11.901 -13.3074 10.2415C-13.0983 10.5177 -12.9041 10.8129 -12.7166 11.1167C-12.4685 11.0102 -12.1715 11.0492 -12.0047 11.3677C-11.3906 12.5424 -11.0719 13.7985 -10.9101 15.0892C-10.6935 15.7072 -10.4993 16.3037 -10.3275 16.8456C-8.78078 21.7131 -8.04065 26.8109 -6.87061 31.7798C-6.31133 34.1517 -5.55286 36.4188 -4.77615 38.6929C-4.49817 38.7223 -4.22931 38.9145 -4.20525 39.2867C-4.18036 39.6918 -4.17206 40.0978 -4.16376 40.5038C-4.03763 40.8778 -3.90898 41.2491 -3.78452 41.6257C-2.68501 44.9558 -1.89584 48.4003 -0.365677 51.5608C1.11969 54.6286 3.06395 57.4212 4.68954 60.406C6.26785 63.3051 7.61795 66.3288 8.83528 69.4105C10.109 72.6333 11.3687 75.9046 12.0939 79.3161C12.83 82.7736 13.1278 86.3063 13.6191 89.8052C14.5593 96.5132 16.2621 103.308 19.2768 109.344C22.4674 115.732 25.3842 122.271 28.2803 128.811C29.6403 131.883 30.9116 135.006 31.9048 138.229C32.9089 141.486 33.4807 144.776 33.8707 148.166C34.7179 155.537 36.1966 162.828 38.1674 169.959C39.0694 173.222 39.9043 176.521 40.9556 179.735C41.485 181.356 42.0684 182.986 42.8501 184.496C43.5753 185.898 44.5719 187.1 45.566 188.297C46.4805 189.398 47.375 190.507 48.1061 191.75C48.375 192.207 47.9269 192.843 47.4248 192.675C44.7545 191.782 42.2551 190.418 39.8744 188.887C37.6364 187.447 35.3884 185.897 33.3637 184.138C29.3233 180.627 27.0538 175.833 25.5975 170.66C22.221 158.672 21.1397 145.92 15.2033 134.845C12.7254 130.221 9.64348 125.86 8.77798 120.515C8.30582 117.594 7.95403 114.724 7.12338 111.874C6.28279 108.993 5.1501 106.216 3.78671 103.563C2.50301 101.066 1.21838 98.7241 0.656601 95.9159C0.162033 93.4462 0.109756 90.9133 0.0375671 88.4012C-0.052887 85.2588 -0.374786 82.2074 -1.16145 79.1655C-1.87923 76.3911 -2.87338 73.7067 -3.91895 71.0509C-5.14955 67.9242 -6.24826 64.8217 -6.85983 61.4906C-7.46228 58.209 -7.69295 54.8667 -7.75601 51.5305C-7.81328 48.4392 -7.51041 45.4493 -7.22661 42.3788C-6.94199 39.3049 -6.72537 35.9669 -8.0954 33.1241C-8.23978 32.8255 -8.14021 32.5467 -7.95682 32.3676C-8.79576 28.8495 -9.44629 25.2762 -10.2612 21.7486C-10.4213 21.0561 -10.5948 20.3653 -10.7757 19.6771C-10.7997 22.2542 -10.7192 24.8009 -10.4894 27.3771C-10.218 30.425 -10.0845 33.4635 -10.1143 36.5253C-10.145 39.6676 -10.135 42.8973 -10.5143 46.0163C-10.6769 47.3537 -10.9176 48.6782 -11.0935 50.0139C-11.3109 51.6681 -11.3391 53.3345 -11.4022 55.0009C-11.5142 57.9657 -11.8112 60.9133 -11.6552 63.8824C-11.3441 69.8199 -10.0272 75.7644 -8.31282 81.4223C-6.68556 86.7962 -4.65163 92.0455 -3.41936 97.5442C-2.79036 100.347 -2.37631 103.219 -2.32237 106.101C-2.26512 109.108 -2.43854 112.114 -2.31905 115.12C-2.19209 118.281 -1.47432 121.264 -0.869385 124.346C-0.246201 127.516 0.000228882 130.778 0.455795 133.979C0.884811 136.996 1.3255 140.014 1.61842 143.051C1.89973 145.959 2.17188 148.99 2.04823 151.916C1.98683 153.365 1.61174 154.594 0.973618 155.871C0.26413 157.292 -0.311737 158.705 -0.707565 160.257C-1.50667 163.384 -1.51584 166.474 -1.73988 169.669C-1.93571 172.471 -2.7854 174.984 -4.13466 177.402C-5.76857 180.332 -6.96849 183.449 -7.69872 186.754C-7.84975 187.438 -8.92436 187.3 -8.88452 186.587C-8.76006 184.322 -8.50362 182.072 -8.34264 179.811C-8.18996 177.669 -8.23897 175.554 -8.29539 173.41C-8.34933 171.348 -8.34601 169.251 -8.7244 167.219C-9.11607 165.11 -10.3409 163.483 -11.1209 161.538C-12.5979 157.858 -12.6834 153.634 -12.2727 149.724C-12.037 147.477 -11.6138 145.259 -11.3524 143.017C-11.1051 140.893 -11.2744 138.75 -11.6959 136.663C-12.5282 132.538 -14.1439 128.637 -15.0874 124.539C-15.9944 120.592 -16.8258 116.269 -16.6233 112.193C-16.4076 107.85 -15.0907 103.682 -15.4019 99.298C-15.5595 97.0776 -15.9661 94.8875 -16.2284 92.6809C-16.4989 90.4112 -16.6208 88.1259 -16.7403 85.8449C-16.9818 81.2388 -17.8904 76.353 -16.4474 71.8854C-16.069 70.7124 -15.7097 69.5282 -15.5205 68.3033C-15.3263 67.0473 -15.3197 65.7687 -15.1952 64.504C-14.9695 62.1936 -14.031 60.2138 -13.4236 58.0125C-13.3298 57.6749 -13.0585 57.5554 -12.7987 57.5822C-12.7182 55.5107 -12.6162 53.4306 -12.4502 51.3824C-12.3208 49.7818 -12.0246 48.2038 -11.8022 46.6153C-11.5557 44.8624 -11.5092 43.0964 -11.4436 41.3288C-11.3159 37.8636 -11.242 34.3906 -11.4229 30.9263C-11.5988 27.5511 -12.0694 24.2062 -12.0221 20.8189C-11.9972 19.0807 -11.8777 17.2585 -12.0669 15.5038C-12.7415 13.6652 -13.5846 11.7356 -14.9281 10.3333C-15.5114 9.72472 -16.1745 9.28151 -16.991 9.11703C-17.6133 8.99152 -17.5063 8.16827 -17.0325 7.951C-18.4465 6.99965 -19.7916 5.94528 -20.9541 4.67191C-21.9889 3.54224 -22.827 2.25763 -23.4411 0.832779C-23.7564 0.0987091 -22.7192 -0.542755 -22.3955 0.196518C-19.7318 6.42055 -12.9207 8.51973 -7.92441 12.1468C-7.75928 12.2671 -7.6033 12.3952 -7.44232 12.519C-7.31619 12.1979 -6.96771 11.9547 -6.58682 12.165C-2.01041 14.6849 3.244 15.3826 7.88846 17.7467C9.86589 18.7535 11.7711 19.9507 13.6639 21.1453C13.5486 20.7774 13.7295 20.2943 14.2116 20.2926C16.4023 20.2857 17.9657 18.5899 19.4892 17.165C21.1239 15.6389 22.8898 14.3456 24.3469 12.6134C26.0895 10.5419 27.4114 8.17003 28.9358 5.93146C29.554 5.02425 30.1938 4.188 31.0294 3.48683C31.9248 2.73459 32.9247 2.12083 33.7719 1.308C35.5809 -0.429367 35.6556 -2.85924 36.1999 -5.19736C36.7899 -7.72679 37.492 -10.2822 38.7973 -12.5225C39.8254 -14.2867 41.1821 -15.8025 42.2816 -17.5139C42.816 -18.3449 43.2915 -19.2226 43.5985 -20.1749C44.0002 -21.4162 44.0425 -22.713 44.1637 -24.0063C44.3819 -26.3349 44.8665 -28.5769 45.639 -30.773C46.1909 -32.3416 46.9502 -34.4399 48.5417 -35.1489C48.96 -35.3359 49.4322 -35.1238 49.4504 -34.6053Z" fill="#99693F"/>
</svg>
