<svg width="152" height="121" viewBox="0 0 152 121" fill="none" xmlns="http://www.w3.org/2000/svg">
<path opacity="0.16" d="M71.8414 22.8304C72.6484 22.9399 75.2764 22.8064 75.5394 22.6437C75.6274 22.5884 75.8193 22.5404 75.9713 22.5362C76.3663 22.5227 79.6624 21.8811 79.8064 21.7893C79.8734 21.7466 80.2233 21.6694 80.5663 21.6203C80.9183 21.5703 81.4793 21.4482 81.8223 21.346C82.1654 21.2438 82.6083 21.1321 82.8133 21.0956C83.0183 21.0591 83.4693 20.96 83.8213 20.8745C84.4923 20.7117 84.5133 20.7076 85.9753 20.4812C86.4723 20.404 86.9523 20.2966 87.0363 20.2434C87.1193 20.1902 87.5373 20.1088 87.9593 20.0618C89.3563 19.9095 91.4403 19.4485 91.6183 19.2523C91.7193 19.1418 92.3583 19.0489 93.0803 19.0395C93.7873 19.0302 94.5944 18.9853 94.8783 18.9373C95.1623 18.8904 95.7344 18.8121 96.1544 18.7641C96.5743 18.7151 97.1533 18.6442 97.4463 18.6045C97.7333 18.5659 98.0904 18.5326 98.2244 18.5315C98.7334 18.5284 102.915 18.0777 103.218 17.9932C103.391 17.9442 103.567 17.9547 103.602 18.0152C103.638 18.0767 103.875 18.0454 104.127 17.9473C104.379 17.8493 104.61 17.8076 104.639 17.8566C104.668 17.9056 105.043 17.8994 105.489 17.8409C105.935 17.7825 106.652 17.7408 107.112 17.745C107.564 17.7491 108.092 17.7126 108.28 17.6647C108.467 17.6167 109.087 17.5489 109.641 17.5176C110.195 17.4852 110.982 17.4018 111.367 17.3319C111.759 17.262 112.174 17.2223 112.299 17.2443C112.906 17.3507 116.245 17.0575 117.275 16.8082C117.749 16.6935 118.249 16.6184 118.399 16.6392C118.936 16.7164 123.123 15.8777 123.927 15.5314C124.181 15.4218 124.759 15.233 125.226 15.1058C126.094 14.87 127.188 14.4611 127.321 14.3213C127.364 14.2775 127.875 14.0897 128.462 13.903C129.051 13.7163 130.347 13.1947 131.363 12.7367C132.38 12.2777 133.254 11.9053 133.321 11.9032C133.387 11.9012 134.038 11.5673 134.762 11.1647C135.486 10.762 136.245 10.399 136.444 10.3614C136.644 10.3239 137.662 9.78458 138.719 9.15659C139.776 8.52861 140.774 7.97364 140.95 7.91522C141.124 7.85785 141.604 7.61792 142.011 7.38634C142.417 7.15476 142.845 6.96281 142.955 6.96177C143.133 6.96177 143.696 6.66656 145.396 5.68389C145.731 5.48986 146.28 5.2635 146.637 5.1717C146.994 5.0799 147.607 4.77947 148.026 4.49051C148.434 4.20886 149.15 3.79263 149.597 3.57774C150.504 3.14066 151.373 2.61699 153.443 1.25983C154.193 0.768497 155.1 0.204145 155.475 -0.00344467C156.75 -0.708625 158.233 -1.42111 158.329 -1.37312C158.376 -1.34913 159.356 -1.94373 160.51 -2.6969C162.83 -4.20949 165.245 -5.44877 164.487 -4.73733C164.258 -4.52244 163.758 -4.14377 163.388 -3.90384C163.017 -3.66391 162.738 -3.41355 162.774 -3.35201C162.811 -3.28942 162.575 -3.10999 162.238 -2.94413C161 -2.33492 157.311 0.283426 156.823 0.899937C156.746 0.997995 156.27 1.32972 155.779 1.62911C155.281 1.93267 154.133 2.77138 153.214 3.50263C152.295 4.23389 150.851 5.30731 149.988 5.90087C149.127 6.49339 148.295 7.12659 148.135 7.31332C147.974 7.50005 147.284 8.05501 146.586 8.55677C145.889 9.05854 144.988 9.75015 144.567 10.1069C144.153 10.4585 143.494 10.9842 143.121 11.2607C142.743 11.5413 142.167 12.0524 141.837 12.3998C141.511 12.743 141.025 13.1738 140.771 13.3439C140.513 13.517 140.073 13.8832 139.787 14.1627C139.5 14.4444 138.984 14.9201 138.626 15.2341C137.674 16.0686 136.442 17.3173 136.43 17.4591C136.425 17.5259 136.17 17.7585 135.854 17.9859C134.796 18.7464 133.944 19.5903 132.04 21.7622C130.6 23.4041 130.264 23.7713 129.905 24.0937C129.702 24.2762 129.367 24.6038 129.177 24.8072C127.526 26.5649 126.826 27.389 126.747 27.6676C126.645 28.0233 126.491 27.9033 126.577 27.5351C126.616 27.3682 126.476 27.3744 126.043 27.5612C125.721 27.6999 125.371 27.9148 125.269 28.0368C125.165 28.161 124.646 28.5741 124.101 28.9653C123.381 29.4816 123.047 29.8102 122.848 30.1983C122.616 30.6489 122.364 30.8659 121.134 31.6754C120.34 32.198 119.291 32.8135 118.801 33.0461C118.311 33.2777 117.235 33.8754 116.411 34.373C114.65 35.4381 113.1 36.2372 112.855 36.2069C112.755 36.1944 112.247 36.4114 111.74 36.6836C110.255 37.4796 109.637 37.708 108.341 37.9386C107.935 38.0106 107.335 38.1848 107.017 38.3214C106.339 38.6145 105.675 38.7794 104.543 38.9338C104.285 38.9692 103.986 39.0485 103.86 39.1153C103.742 39.1779 103.532 39.2081 103.417 39.1789C103.297 39.1486 103.097 39.1883 102.973 39.2676C102.848 39.3468 102.548 39.3875 102.298 39.3573C102.048 39.3281 101.774 39.3938 101.681 39.5075C101.586 39.6222 101.359 39.6713 101.159 39.6212C100.965 39.5722 100.573 39.5732 100.293 39.6233C100.013 39.6734 99.6764 39.7015 99.5484 39.6859C99.4234 39.6702 99.1983 39.7088 99.0623 39.7683C98.9203 39.8319 98.6524 39.8747 98.4473 39.8684C98.2484 39.8622 97.8483 39.9561 97.5623 40.076C97.2763 40.196 96.7784 40.2899 96.4604 40.2826C95.7553 40.268 94.4334 40.4422 94.4924 40.5423C94.5154 40.582 94.3973 40.5913 94.2273 40.5642C93.8354 40.5027 92.5543 40.6279 92.3683 40.7468C92.2893 40.7968 92.2074 40.7885 92.1713 40.727C92.1384 40.6696 91.9253 40.6894 91.7093 40.7708C91.4943 40.8511 91.0234 40.9085 90.6904 40.8939C90.3574 40.8803 90.0044 40.9064 89.9274 40.9512C89.8464 40.9982 89.7423 41.0076 89.6913 40.9721C89.6413 40.9377 89.2264 40.9585 88.7674 41.019C88.3074 41.0795 87.7483 41.1202 87.5203 41.1098C87.2893 41.0994 86.7894 41.1964 86.3874 41.3299C85.9854 41.4634 85.6423 41.525 85.6093 41.4686C85.5763 41.4113 85.4994 41.4394 85.4304 41.5344C85.3653 41.6241 85.2253 41.6324 85.1233 41.5521C85.0203 41.4707 84.8354 41.4686 84.7114 41.5479C84.5854 41.6283 84.2203 41.6356 83.8853 41.5646C83.5503 41.4937 83.2374 41.4676 83.1774 41.5062C83.1174 41.5438 82.7313 41.6043 82.3043 41.6418C81.8773 41.6794 81.4814 41.7451 81.4094 41.791C81.3374 41.8369 80.7853 41.9287 80.1753 41.9975C78.5053 42.1853 78.0013 42.2625 77.8603 42.3522C77.7873 42.3992 77.4664 42.4722 77.1644 42.5118C76.8624 42.5515 76.4533 42.6516 76.2773 42.7288C76.0983 42.807 75.6773 42.9072 75.3463 42.9499C75.0113 42.9927 74.4643 43.1095 74.1223 43.2118C73.7793 43.314 73.3413 43.434 73.1413 43.4799C72.9383 43.5268 72.6083 43.6405 72.3863 43.7375C71.8203 43.9879 71.2064 44.1757 71.0084 44.16C70.9204 44.1527 70.4553 44.2998 69.9893 44.4824C69.5183 44.667 68.5634 45.0342 67.8664 45.2992C67.1704 45.5641 66.0793 46.069 65.4423 46.4206C64.8103 46.769 64.2354 47.0611 64.1764 47.0611C63.9254 47.0642 63.0804 47.4888 61.7364 48.2878C60.9434 48.7593 60.2853 49.1432 60.2823 49.1359C60.2783 49.1297 59.1113 49.8327 57.6953 50.6954C55.2863 52.1621 54.5313 52.5919 52.6313 53.5777C50.9093 54.4717 49.9573 54.9776 48.9713 55.5243C48.3983 55.8414 47.6253 56.2691 47.2523 56.4756C43.1903 58.7153 37.6104 62.1379 36.7704 62.9057C35.9024 63.6985 35.7774 64.0177 36.1944 64.3713C36.6244 64.7344 37.4964 64.7563 38.2294 64.4225C38.5624 64.2712 39.2244 64.0866 39.7204 64.0073C41.1364 63.782 41.1764 63.7747 41.7664 63.6151C42.4204 63.4388 45.0714 62.889 46.5424 62.624C46.7944 62.5792 47.0214 62.5375 47.0604 62.5312C47.0994 62.5239 47.2284 62.501 47.3534 62.477C47.7644 62.3998 48.9853 62.0649 49.7943 61.8072C50.2513 61.6622 50.7414 61.5704 50.8964 61.6017C51.0504 61.632 51.7553 61.5225 52.4633 61.3566C53.1713 61.1907 54.2094 60.9665 54.7724 60.858C55.3284 60.7505 56.0864 60.5742 56.4344 60.4709C56.7904 60.3656 57.2873 60.2644 57.5543 60.2425C57.8203 60.2206 58.1224 60.1476 58.2324 60.0777C58.3414 60.0088 59.3464 59.7459 60.4813 59.4904C62.1913 59.1054 63.1474 58.8123 64.3524 58.3022C64.4374 58.2657 64.6004 58.2501 64.7334 58.2647C64.9644 58.2907 65.9633 58.0133 66.4643 57.7848C66.6114 57.718 66.8074 57.668 66.9224 57.669C67.2564 57.6711 70.0484 57.0066 70.6044 56.7927C70.8924 56.6822 71.4254 56.5288 71.7714 56.4589C72.1174 56.388 72.5024 56.268 72.6164 56.1961C72.7314 56.123 73.1384 56.0166 73.5224 55.9593C73.9114 55.9008 74.5534 55.711 74.9734 55.5295C75.3933 55.348 75.8563 55.1967 76.0193 55.1873C76.1793 55.1779 76.8223 55.0392 77.4413 54.8806C78.0603 54.721 78.8663 54.5312 79.2234 54.4602C79.9024 54.3246 80.3054 54.1859 80.8584 53.8938C81.0244 53.8062 81.3064 53.7582 81.4704 53.7884C81.6394 53.8197 82.0714 53.7571 82.4404 53.6476C82.8094 53.5381 83.2733 53.4233 83.4813 53.3889C83.6883 53.3555 84.1193 53.222 84.4453 53.0916C84.7693 52.9612 85.4033 52.7724 85.8553 52.6712C86.3073 52.57 86.8434 52.4219 87.0474 52.3405C87.2514 52.2591 87.7734 52.1131 88.2114 52.0151C89.5924 51.7042 90.5273 51.4288 90.9973 51.1951C91.2493 51.0699 91.5863 50.9594 91.7513 50.9489C91.9123 50.9385 92.3153 50.8008 92.6283 50.6495C92.9533 50.4931 93.5074 50.299 93.8884 50.2104C95.2494 49.8901 96.6114 49.4176 97.1424 49.0796C97.4354 48.8929 97.8283 48.726 97.9983 48.7166C98.5123 48.6853 100.564 47.8633 101.472 47.325C101.932 47.0517 102.637 46.6918 103.033 46.527C103.728 46.238 104.448 45.8228 105.648 45.0165C106.152 44.6774 106.631 44.3676 108.646 43.0751C108.877 42.927 109.651 42.4513 110.383 42.009C111.115 41.5657 111.921 41.0211 112.191 40.7864C112.459 40.5538 113.176 40.0218 113.783 39.6035C115.231 38.6072 116.38 37.7445 118.021 36.4208C118.529 36.0108 118.61 36.2361 118.118 36.693C117.907 36.8891 117.694 37.1479 117.657 37.2543C117.616 37.37 117.539 37.4692 117.471 37.4931C117.406 37.5161 117.297 37.6194 117.222 37.7289C117.042 37.9918 116.007 39.1184 115.453 39.6546C114.682 40.4004 114.176 40.9669 113.909 41.3831C113.771 41.597 113.284 42.1404 112.83 42.5827C112.377 43.025 111.82 43.6249 111.599 43.9065C111.377 44.1892 111.015 44.5721 110.796 44.7567C110.578 44.9393 110.362 45.1907 110.321 45.3085C110.281 45.4254 110.124 45.5662 109.981 45.6142C109.838 45.6622 109.657 45.8364 109.59 45.9918C109.422 46.3788 108.903 46.988 108.36 47.4356C108.119 47.6338 107.542 48.195 107.081 48.678C106.62 49.1609 106.048 49.6815 105.813 49.8317C105.576 49.983 105.253 50.2594 105.092 50.4513C104.425 51.2442 103.681 52.0077 103.36 52.2289C103.172 52.3582 102.998 52.5533 102.958 52.6795C102.917 52.8068 102.812 52.933 102.712 52.9737C102.451 53.0791 101.382 54.0346 101.126 54.3914C100.918 54.6803 99.9723 55.4356 99.2043 55.9227C99.0123 56.0448 98.7713 56.2983 98.6483 56.508C98.4283 56.8835 96.5123 58.0967 95.7003 58.3752C95.0303 58.6058 91.4264 60.835 91.2674 61.1188C91.1604 61.3097 90.9153 61.4432 90.4333 61.5725C90.0593 61.6737 89.5333 61.8907 89.2683 62.0555C89.0073 62.2172 88.7053 62.3393 88.6103 62.3205C88.5143 62.3017 87.8863 62.5917 87.2093 62.9693C86.5323 63.3459 85.5644 63.8133 85.0484 64.0125C84.5364 64.2097 83.7054 64.6144 83.2104 64.9065C82.7153 65.1986 81.9623 65.5397 81.5453 65.6586C81.1213 65.7807 80.5763 66.0227 80.3173 66.2052C80.0623 66.3847 79.4854 66.6089 79.0434 66.7007C78.6014 66.7915 78.0133 66.9782 77.7443 67.1128C77.1103 67.431 75.2523 68.1726 74.1303 68.5565C73.6533 68.7203 72.8934 69.0447 72.4654 69.269C72.0264 69.4985 71.6193 69.6821 71.5463 69.6831C71.4743 69.6842 70.8264 69.9074 70.1034 70.1807C69.3804 70.454 68.3683 70.8285 67.8513 71.0153C67.3403 71.1999 66.5083 71.5337 66.0273 71.7476C65.5363 71.9656 64.9314 72.1669 64.6674 72.2003C64.4044 72.2337 63.9114 72.4027 63.5654 72.5779C63.2194 72.7532 62.8174 72.9368 62.6674 72.9879C62.5174 73.039 62.1373 73.1934 61.8173 73.3342C61.4973 73.4751 61.0504 73.6399 60.8184 73.7035C60.5854 73.7671 60.0353 74.005 59.5833 74.2387C59.1313 74.4723 58.5834 74.7081 58.3524 74.7675C57.9544 74.8708 56.6144 75.5551 54.9664 76.495C54.5614 76.7266 53.8094 77.0583 53.2804 77.2388C52.3044 77.5726 51.8824 77.7865 49.0254 79.3867C45.8654 81.1569 40.3853 84.8174 40.0743 85.364C39.9943 85.5048 39.3753 86.088 38.6913 86.6648C38.0073 87.2428 37.3274 87.8624 37.1724 88.0502C37.0174 88.2379 36.6143 88.6051 36.2733 88.869C35.5913 89.3969 35.2003 89.7964 35.1013 90.0687C35.0653 90.1678 34.7484 90.4713 34.3974 90.7436C34.0454 91.0159 33.6223 91.4707 33.4553 91.7544C33.2893 92.0361 32.9494 92.4899 32.7024 92.758C32.4554 93.025 32.1743 93.412 32.0803 93.6134C31.9863 93.8126 31.7044 94.1224 31.4614 94.2893C31.2184 94.4562 31.0414 94.643 31.0734 94.6972C31.1084 94.7577 31.0734 94.7984 30.9864 94.8005C30.9034 94.8026 30.8554 94.8912 30.8754 95.0081C30.9104 95.2219 30.3024 95.8155 29.3134 96.5332C29.0093 96.7543 28.7603 97.0329 28.7613 97.1518C28.7623 97.2749 28.3854 97.6608 27.8844 98.0489C27.4044 98.4203 26.7643 99.0107 26.4763 99.3476C26.1823 99.6919 25.8504 100.047 25.7284 100.147C25.6024 100.25 25.4503 100.409 25.3723 100.518C25.2973 100.623 25.0154 100.887 24.7424 101.109C24.1104 101.62 22.2604 103.324 20.7894 104.752C20.1574 105.366 19.2173 106.191 18.6923 106.593C16.1373 108.551 14.8884 109.524 14.4574 109.888C14.2014 110.105 12.6034 111.191 10.9134 112.299C7.76836 114.359 5.97736 115.6 4.99935 116.4C4.69535 116.649 4.20035 117.005 3.90435 117.189C3.60935 117.372 3.22336 117.683 3.05236 117.876C2.86536 118.086 2.68635 118.201 2.60635 118.159C2.53335 118.122 2.21336 118.295 1.89636 118.546C1.57836 118.797 1.11735 119.156 0.86935 119.344C0.48335 119.638 0.439345 119.734 0.558345 120.018C0.633345 120.196 0.87136 120.41 1.07336 120.482C1.42436 120.606 2.07636 120.404 4.83236 119.32C6.00236 118.86 6.16234 118.792 7.11435 118.352C8.33235 117.789 9.53634 117.32 9.90234 117.269C10.2673 117.218 10.7703 117.033 11.7643 116.59C12.1943 116.398 12.7863 116.205 13.0973 116.155C13.4083 116.105 13.6413 116.039 13.6223 116.007C13.6033 115.975 13.7694 115.914 13.9924 115.872C14.5434 115.769 16.3534 115.198 16.8924 114.955C17.1434 114.843 17.6773 114.657 18.0883 114.539C18.4993 114.421 18.8894 114.249 18.9614 114.153C19.0314 114.061 19.1214 114.03 19.1544 114.087C19.2194 114.197 20.2624 113.916 21.4824 113.462C21.9274 113.296 22.6433 113.038 23.0933 112.882C23.5434 112.725 24.0634 112.531 24.2624 112.446C24.4624 112.359 24.8224 112.237 25.0764 112.17C25.3244 112.105 25.9494 111.876 26.4474 111.67C26.9454 111.463 27.6394 111.22 27.9704 111.137C28.3014 111.054 28.8883 110.788 29.2603 110.551C29.6323 110.314 30.0233 110.134 30.1183 110.153C30.2613 110.182 31.1754 109.895 32.5774 109.382C32.8044 109.298 33.2983 109.094 33.6923 108.92C34.0863 108.746 34.6434 108.531 34.9484 108.435C36.4124 107.975 38.5014 107.22 38.7313 107.069C38.8764 106.974 39.0514 106.934 39.1344 106.977C39.2154 107.02 39.5344 106.893 39.8494 106.692C40.1654 106.49 40.5983 106.283 40.8213 106.223C41.6753 105.999 44.9244 104.716 47.2844 103.671C47.7144 103.48 48.2334 103.256 48.4524 103.167C48.6664 103.079 49.2304 102.842 49.6884 102.647C50.1474 102.452 50.7154 102.216 50.9344 102.131C51.6574 101.848 53.7883 100.765 56.0063 99.5531C56.5813 99.2392 57.3664 98.8323 57.7534 98.6487C58.1414 98.4641 58.6984 98.172 58.9964 97.9957C59.2954 97.8194 59.7453 97.5941 60.0023 97.4929C60.2573 97.3927 60.7023 97.2071 60.9853 97.0829C61.8473 96.7043 67.3653 93.1168 68.0183 92.5107C68.3593 92.1936 68.9274 91.7889 69.3024 91.5959C69.6714 91.406 69.9874 91.1943 70.0033 91.1265C70.0193 91.0586 70.1453 90.9199 70.2863 90.8166C70.4263 90.7144 70.9393 90.2523 71.4283 89.7902C72.2123 89.0474 73.6343 87.7372 74.5373 86.9267C74.7103 86.7712 74.8763 86.5511 74.9203 86.4176C74.9653 86.283 75.0793 86.1829 75.1863 86.1839C75.2923 86.185 75.4534 86.0577 75.5564 85.8898C75.8104 85.4777 76.7573 84.3448 76.8773 84.3104C76.9783 84.2812 77.4953 83.6198 78.0183 82.8468C78.1633 82.634 78.4584 82.3023 78.6904 82.0906C78.9534 81.8517 79.1593 81.473 79.2533 81.0547C79.3624 80.5686 79.5293 80.2817 79.8863 79.9656C80.1513 79.7309 80.3893 79.419 80.4123 79.2761C80.4353 79.1301 80.5773 78.9371 80.7353 78.8359C80.8933 78.7357 81.0773 78.55 81.1544 78.4144C81.5114 77.7812 81.9503 77.2085 82.1993 77.05C82.3463 76.9571 82.5123 76.7256 82.5623 76.5451C82.6133 76.3594 82.8124 76.0861 83.0134 75.9275C83.2164 75.7669 83.4834 75.4206 83.6254 75.1347C83.7674 74.8489 83.9694 74.5693 84.0864 74.4942C84.2034 74.4202 84.4524 74.0874 84.6514 73.739C84.8504 73.3916 85.0864 73.0995 85.1854 73.0766C85.2814 73.0546 85.3244 72.9712 85.2804 72.8951C85.2364 72.8189 85.2783 72.7323 85.3723 72.7073C85.4693 72.6812 85.7634 72.29 86.0344 71.8269C86.3054 71.3637 86.7794 70.6919 87.1023 70.3163C87.4243 69.9408 87.8553 69.3483 88.0713 68.9821C88.2893 68.6129 88.5523 68.2644 88.6693 68.1904C88.7813 68.1184 89.0144 67.8148 89.1734 67.5311C89.3324 67.2474 89.5394 66.9594 89.6214 66.9073C89.7064 66.853 89.8663 66.6507 89.9813 66.4514C90.4213 65.693 91.1483 65.0588 93.6843 63.227C94.3153 62.7711 95.0483 62.2172 95.3223 61.9898C95.5964 61.7624 96.3823 61.1146 97.0833 60.5408C99.0303 58.9458 99.1893 58.8134 99.7133 58.3669C99.9823 58.1374 100.224 57.8714 100.255 57.7712C100.286 57.6701 100.495 57.4791 100.724 57.3415C101.411 56.9273 102.76 55.8038 102.76 55.6463C102.76 55.567 102.918 55.4012 103.109 55.2791C103.624 54.9516 105.215 53.4014 108.651 49.8786C109.377 49.1338 110.113 48.4036 110.292 48.2503C110.473 48.0948 110.855 47.7047 111.155 47.3709C111.454 47.0371 111.961 46.4852 112.295 46.1295C112.629 45.7738 112.96 45.369 113.04 45.2199C113.121 45.0676 113.26 44.8777 113.358 44.7838C113.454 44.691 113.869 44.28 114.289 43.8606C114.709 43.4413 115.112 42.9917 115.192 42.8508C115.269 42.7173 115.429 42.5389 115.53 42.4743C115.637 42.4065 115.872 42.1071 116.063 41.7962C116.253 41.4864 116.563 41.139 116.765 41.0107C117.074 40.8135 117.378 40.4975 117.939 39.7892C118.019 39.688 118.132 39.592 118.197 39.569C118.299 39.5336 119.657 37.9365 120.041 37.4013C120.14 37.2636 120.667 36.7379 121.219 36.2257C121.771 35.7135 122.245 35.2211 122.278 35.1241C122.311 35.0281 122.532 34.7788 122.768 34.5723C123.638 33.8097 125.39 32.0864 125.519 31.8642C125.676 31.5951 127.022 30.0929 127.889 29.2198C127.932 29.177 128.069 28.9715 128.194 28.7629C128.319 28.5553 128.583 28.2236 128.778 28.0275C128.974 27.8324 129.192 27.5768 129.26 27.4621C129.509 27.0479 130.387 26.132 131.51 25.116C131.793 24.8604 132.708 23.8298 133.639 22.7209C133.876 22.4382 134.161 22.1503 134.277 22.0772C134.39 22.0053 134.549 21.8331 134.623 21.7027C134.805 21.3815 135.982 20.2141 137.071 19.2711C137.544 18.8622 137.963 18.447 137.998 18.3552C138.033 18.2613 138.356 17.9484 138.724 17.6511C139.089 17.3569 139.747 16.7394 140.188 16.2762C140.629 15.8141 141.463 15.0547 142.042 14.5884C142.621 14.1221 143.439 13.4064 143.859 12.9965C144.283 12.5834 144.713 12.235 144.825 12.2131C144.933 12.1922 145.132 12.0357 145.255 11.8751C145.387 11.703 145.509 11.6216 145.545 11.6831C145.578 11.7405 145.444 11.9867 145.254 12.2183C144.923 12.6209 144.767 12.8421 143.81 14.2764C143.595 14.5977 143.315 14.9827 143.184 15.1381C143.056 15.2883 142.863 15.6211 142.767 15.8548C142.671 16.0884 142.517 16.3409 142.434 16.3972C142.351 16.4546 142.181 16.7185 142.065 16.9709C141.944 17.2338 141.736 17.6135 141.589 17.8389C141.442 18.0642 141.295 18.4157 141.253 18.6421C141.213 18.8601 141.004 19.3295 140.799 19.6654C140.593 20.0024 140.373 20.4447 140.319 20.6325C140.263 20.8286 140.111 21.0967 139.968 21.2511C139.831 21.4002 139.625 21.7632 139.515 22.0512C139.292 22.6322 138.412 24.2418 137.591 25.5656C137.296 26.0413 136.977 26.6223 136.879 26.8633C136.782 27.1011 136.484 27.5257 136.225 27.7959C135.965 28.0671 135.779 28.3435 135.814 28.404C135.851 28.4677 135.812 28.5584 135.721 28.6168C135.632 28.6732 135.49 28.9235 135.396 29.1864C135.302 29.4503 135.103 29.7362 134.941 29.8384C134.783 29.9385 134.681 30.0689 134.715 30.1273C134.75 30.1868 134.653 30.312 134.495 30.4121C134.337 30.5123 134.194 30.7167 134.171 30.8763C134.147 31.037 134.051 31.1789 133.951 31.2018C133.851 31.2248 133.718 31.3718 133.646 31.5408C133.575 31.7077 133.372 31.9863 133.187 32.172C133.001 32.3576 132.827 32.6205 132.792 32.7676C132.691 33.1911 131.783 34.5097 131.444 34.7256C131.131 34.9249 130.462 35.6154 130.141 36.0713C129.887 36.4312 128.863 37.4618 128.718 37.5025C128.652 37.5213 128.475 37.7341 128.323 37.9782C128.171 38.2213 127.833 38.5958 127.572 38.8117C127.311 39.0266 126.97 39.4032 126.815 39.6483C126.662 39.8903 126.346 40.173 126.124 40.2669C125.766 40.4182 125.468 40.6539 124.168 41.8181C123.02 42.8456 121.526 44.2633 121.29 44.5481C121.045 44.8443 120.238 45.5829 119.939 45.7853C119.89 45.8186 119.52 46.2724 119.114 46.7971C118.709 47.3218 118.329 47.737 118.269 47.7214C118.205 47.7057 118.194 47.7527 118.243 47.8351C118.289 47.9133 118.145 48.0907 117.919 48.2346C117.693 48.3775 117.514 48.5716 117.515 48.6686C117.516 48.7645 117.457 48.8428 117.383 48.8407C117.31 48.8386 117.025 49.1411 116.757 49.5042C116.075 50.4284 115.623 51.1388 114.521 53.0144C114.297 53.3962 113.826 54.1567 113.462 54.7242C113.097 55.2927 112.806 55.8184 112.807 55.9071C112.808 55.9926 112.69 56.1429 112.554 56.2294C112.419 56.315 112.26 56.5257 112.214 56.6801C112.166 56.8397 111.793 57.5751 111.38 58.3241C110.967 59.0731 110.535 59.8857 110.414 60.1413C110.296 60.3906 110.133 60.69 110.059 60.7922C109.796 61.1542 109.138 62.4467 108.358 64.1325C108.078 64.7385 107.685 65.4364 107.478 65.6982C107.273 65.957 107.053 66.3346 106.991 66.5328C106.756 67.2891 105.85 69.1084 105.368 69.7937C105.233 69.9857 105.148 70.1849 105.178 70.236C105.208 70.2871 105.017 70.7148 104.758 71.1728C104.5 71.6307 104.221 72.2838 104.146 72.603C104.071 72.9253 103.958 73.2226 103.897 73.2622C103.789 73.3311 102.908 75.1827 102.861 75.4383C102.811 75.7126 102.345 76.7996 102.253 76.858C102.198 76.8925 102.106 77.1449 102.054 77.4047C102.001 77.6644 101.883 77.9325 101.798 77.9867C101.708 78.0441 101.671 78.1401 101.712 78.211C101.751 78.2778 101.716 78.3779 101.638 78.428C101.559 78.4781 101.417 78.8046 101.33 79.1321C101.243 79.4607 101.132 79.7664 101.09 79.7935C101.046 79.8217 100.877 80.264 100.708 80.7949C100.539 81.3259 100.362 81.7776 100.307 81.8172C100.254 81.8548 100.085 82.2189 99.9413 82.6069C99.7913 83.0096 99.5364 83.6751 99.3624 84.1195C98.8224 85.4996 98.8184 85.5758 99.2804 85.8689C99.7344 86.1568 100.088 85.9972 100.583 85.2816C100.76 85.026 101.173 84.6484 101.511 84.4335C101.861 84.2113 102.282 83.7982 102.501 83.4654C102.714 83.141 102.979 82.8656 103.104 82.8416C103.346 82.7947 106.193 80.2087 106.673 79.5995C106.821 79.4107 107.156 79.129 107.399 78.9871C107.65 78.8411 108.101 78.4395 108.417 78.0817C108.734 77.7228 109.156 77.3087 109.371 77.146C109.85 76.7829 111.153 75.48 111.725 74.7915C111.961 74.5078 112.329 74.1656 112.547 74.0269C112.761 73.8902 113.077 73.5835 113.237 73.354C113.397 73.1245 113.746 72.7417 114 72.5143C114.26 72.2817 114.721 71.7883 115.037 71.4023C115.354 71.0174 115.723 70.6011 115.868 70.4666C116.751 69.6466 117.342 69.0604 117.759 68.5899C118.017 68.2989 118.531 67.7794 118.883 67.4549C119.235 67.1305 119.564 66.7779 119.602 66.684C119.671 66.514 120.005 66.1291 121.102 64.9597C121.455 64.5831 121.75 64.2013 121.75 64.1231C121.75 64.0427 122.038 63.7548 122.389 63.4826C122.741 63.2103 123.199 62.719 123.407 62.3914C123.617 62.0618 123.963 61.6831 124.181 61.5444C124.398 61.4067 125.009 60.7881 125.533 60.1757C126.058 59.5634 126.592 58.9938 126.716 58.9156C126.842 58.8363 127.135 58.4274 127.377 57.9945C127.619 57.5616 127.933 57.1526 128.083 57.0702C128.442 56.8752 129.509 55.6703 130.096 54.7951C130.353 54.4133 130.658 54.0357 130.765 53.9668C130.874 53.898 131.455 53.1469 132.057 52.2977C132.659 51.4486 133.238 50.7007 133.345 50.6339C133.581 50.4868 134.715 48.7666 134.846 48.3556C134.901 48.1845 134.971 48.0917 135.003 48.147C135.035 48.2012 135.105 48.0969 135.157 47.9206C135.211 47.737 135.387 47.4522 135.559 47.2718C135.832 46.986 136.706 45.659 136.978 45.1176C137.041 44.9935 137.224 44.7181 137.382 44.5116C137.54 44.305 137.72 43.9743 137.777 43.7834C137.836 43.5884 138.122 43.024 138.425 42.5076C138.727 41.9913 139.058 41.2736 139.172 40.8866C139.286 40.4995 139.442 40.1501 139.524 40.0979C139.603 40.0479 139.643 39.9519 139.611 39.8893C139.578 39.8257 139.666 39.6264 139.808 39.4439C140.152 39.0005 141.376 35.774 141.354 35.3672C141.344 35.1804 141.406 34.9948 141.5 34.9353C141.588 34.879 141.701 34.5733 141.746 34.2698C141.79 33.9672 141.865 33.6856 141.907 33.6585C141.95 33.6313 142.175 32.778 142.402 31.7776C142.629 30.7772 142.979 29.4347 143.172 28.8182C143.367 28.1975 143.501 27.6467 143.471 27.5945C143.441 27.5424 143.564 26.809 143.744 25.9683C143.924 25.1275 144.028 24.3618 143.975 24.271C143.922 24.1803 143.97 23.9174 144.082 23.6858C144.192 23.4584 144.327 23.0213 144.376 22.7323C144.426 22.4392 144.617 21.3846 144.799 20.3967C144.981 19.4088 145.16 18.2666 145.195 17.8691C145.231 17.4591 145.389 16.9751 145.559 16.7581C145.727 16.5432 145.801 16.343 145.727 16.3044C145.652 16.2658 145.673 16.1854 145.774 16.1208C145.876 16.0561 145.956 15.91 145.958 15.7859C145.96 15.6659 146.093 15.3551 146.253 15.0985C146.413 14.8408 146.828 13.9896 147.174 13.2051C147.52 12.4207 147.885 11.728 147.984 11.6644C148.085 11.6007 148.358 11.1657 148.602 10.6827C148.846 10.1998 149.068 9.79397 149.104 9.76685C149.14 9.73972 149.332 9.38922 149.538 8.97404C149.884 8.27825 150.016 8.14994 151.574 7.00141C152.493 6.32335 153.656 5.42936 154.168 5.00479C154.681 4.58127 155.641 3.85835 156.313 3.39102C156.984 2.92368 157.841 2.27274 158.227 1.93789C158.935 1.32137 160.278 0.362707 163.436 -1.781C164.4 -2.43506 165.416 -3.20283 165.697 -3.48762C165.979 -3.77345 166.288 -4.05614 166.389 -4.11873C167.218 -4.63301 168.914 -5.74816 169.374 -6.08197C169.692 -6.31147 170.699 -7.03334 171.616 -7.6874C172.534 -8.34251 173.381 -9.01535 173.503 -9.18643C173.818 -9.62769 174.13 -9.86136 174.365 -9.83111C174.483 -9.81546 174.993 -10.1461 175.605 -10.6354C176.175 -11.0902 176.972 -11.7182 177.37 -12.0238C177.765 -12.3274 178.297 -12.7468 178.536 -12.9429C178.78 -13.1421 179.554 -13.6783 180.272 -14.1436C180.527 -14.3094 180.824 -14.5181 181.125 -14.735L180.27 -15.9931C180.175 -15.9524 180.108 -15.9482 180.082 -15.992C179.996 -16.1402 177.222 -14.1853 175.884 -13.0326C175.524 -12.7228 175.131 -12.4046 175.002 -12.318C174.873 -12.2314 174.113 -11.6942 173.304 -11.1173C172.266 -10.3777 171.77 -10.0846 171.601 -10.1128C171.124 -10.191 170.336 -9.89474 168.632 -8.99658C168.277 -8.80985 167.918 -8.65337 167.842 -8.65337C167.765 -8.65337 167.253 -8.40406 166.703 -8.09945C166.154 -7.79485 165.436 -7.46521 165.11 -7.36924C164.782 -7.27222 164.213 -7.02395 163.839 -6.81636C162.987 -6.34068 160.664 -5.31003 160.067 -5.14104C159.814 -5.0701 159.463 -4.92406 159.27 -4.81035C159.081 -4.69873 158.631 -4.54017 158.275 -4.45985C157.919 -4.37953 157.474 -4.24287 157.291 -4.15733C157.105 -4.07075 156.57 -3.92053 156.087 -3.82039C155.604 -3.72024 155.042 -3.56273 154.823 -3.46675C154.194 -3.1924 153.25 -2.88363 152.705 -2.77409C151.805 -2.59258 151.194 -2.42046 150.991 -2.29111C150.878 -2.21913 150.757 -2.21391 150.719 -2.27963C150.678 -2.35057 150.619 -2.36726 150.571 -2.32136C150.455 -2.20974 149.727 -2.01884 149.283 -1.98337C149.061 -1.96564 148.837 -1.92496 148.78 -1.89157C148.678 -1.83211 147.389 -1.6506 146.363 -1.5515C146.026 -1.51917 145.707 -1.46596 145.657 -1.43467C145.525 -1.35017 142.86 -1.1092 141.453 -1.05391C140.757 -1.02679 139.928 -0.966287 139.619 -0.920387C139.306 -0.874488 139.027 -0.887007 138.991 -0.948553C138.955 -1.0101 138.824 -0.995495 138.7 -0.917257C138.576 -0.837976 138.345 -0.804596 138.187 -0.841106C138.026 -0.87866 137.838 -0.869272 137.759 -0.819201C137.682 -0.770171 137.419 -0.738876 137.18 -0.750351C136.941 -0.761826 136.596 -0.769129 136.42 -0.767042C136.242 -0.764956 135.732 -0.765999 135.281 -0.769129C134.83 -0.772258 134.355 -0.773301 134.219 -0.772258C134.083 -0.770171 133.498 -0.707582 132.909 -0.631431C130.895 -0.37064 130.574 -0.340387 130.453 -0.40402C130.383 -0.440531 130.137 -0.396718 129.897 -0.304919C129.34 -0.0921135 127.785 0.247957 127.564 0.205189C127.474 0.187454 127.316 0.217707 127.237 0.268822C127.154 0.322021 126.72 0.403391 126.282 0.448246C125.844 0.493103 125.26 0.600548 124.997 0.685043C123.745 1.08562 123.524 1.14508 123.004 1.22123C122.69 1.26713 122.426 1.32033 122.416 1.34015C122.406 1.35997 122.225 1.38397 121.999 1.39544C121.773 1.40692 121.546 1.46638 121.476 1.53418C121.409 1.59781 121.123 1.67188 120.857 1.69379C120.591 1.71569 120.207 1.79915 120.026 1.87425C119.23 2.20807 118.879 2.31969 118.695 2.29778C118.584 2.28422 118.027 2.42505 117.44 2.61386C116.854 2.80267 116.298 2.95184 116.189 2.94871C116.075 2.94663 115.912 2.97897 115.801 3.02591C115.695 3.07076 115.308 3.21576 114.937 3.34929C114.566 3.48281 114.163 3.63407 114.036 3.68832C113.912 3.74048 113.748 3.77073 113.68 3.75404C113.609 3.73631 113.365 3.83749 113.126 3.98458C112.892 4.12853 112.452 4.32778 112.153 4.42584C111.854 4.52285 111.41 4.69184 111.172 4.79929C110.934 4.90673 110.289 5.12997 109.75 5.29166C109.209 5.4544 108.286 5.77882 107.708 6.00832C107.131 6.23886 106.499 6.47566 106.312 6.53303C106.123 6.5904 105.22 6.94091 104.293 7.31645C103.367 7.69094 102.504 8.01641 102.365 8.04249C102.003 8.11134 100.13 8.87807 99.2433 9.32141C98.8243 9.53109 98.3143 9.7126 98.0973 9.73033C97.8793 9.74807 97.3703 9.92958 96.9503 10.1382C96.2093 10.5085 95.0294 10.9561 93.5684 11.4213C93.1534 11.5527 92.3483 11.8761 91.7873 12.1359C91.2273 12.3946 90.4634 12.7232 90.0994 12.8619C89.7344 13.0007 89.1333 13.274 88.7663 13.468C88.3994 13.661 87.8793 13.8717 87.6143 13.9343C87.3453 13.9969 86.7893 14.2441 86.3603 14.4893C85.9313 14.7354 85.5284 14.9326 85.4513 14.9336C85.2143 14.9378 84.4094 15.2435 83.3364 15.7379C83.1174 15.8391 82.8264 15.957 82.6734 16.0071C81.1794 16.4953 80.5684 16.7331 80.1644 16.9835C79.9034 17.1452 79.4673 17.3465 79.2003 17.4268C78.9353 17.5071 78.3183 17.7857 77.8463 18.0371C77.3743 18.2885 76.7553 18.5753 76.4883 18.6661C76.2153 18.7589 75.8123 18.979 75.5793 19.1637C75.3503 19.3441 74.7854 19.6195 74.3324 19.7708C73.0894 20.186 70.9004 21.4816 70.8144 21.854C70.6974 22.3839 71.0514 22.724 71.8414 22.8304ZM92.3064 48.8219C91.9104 48.9648 91.3113 49.0191 91.3373 48.9106C91.3493 48.8595 91.5904 48.7614 91.8624 48.6967C92.4314 48.5611 92.7684 48.6561 92.3064 48.8219ZM92.6504 48.5111C92.6133 48.4474 92.6254 48.3828 92.6804 48.3504C92.8533 48.2482 93.2633 48.3024 93.2343 48.4245C93.1963 48.5841 92.7334 48.6529 92.6504 48.5111ZM98.9363 44.1183C98.6263 44.2758 98.2364 44.4166 98.0864 44.425C97.9354 44.4333 97.5474 44.5877 97.2334 44.7661C96.9194 44.9434 96.6013 45.0613 96.5333 45.0258C96.4594 44.9862 96.3833 45.0144 96.3433 45.0978C96.3073 45.174 96.0693 45.2522 95.8173 45.271C95.2383 45.3138 94.1674 45.5547 93.9434 45.6924C93.8424 45.754 93.3993 45.8468 92.9503 45.9C92.5013 45.9532 91.9813 46.0565 91.7863 46.1316C91.5963 46.2046 91.2634 46.3037 91.0684 46.3465C90.8674 46.3893 90.1813 46.5906 89.5413 46.793C88.9013 46.9953 87.9644 47.2008 87.4564 47.2499C86.6904 47.3239 85.9853 47.4877 84.8803 47.8476C84.8013 47.8737 84.4314 47.9269 84.0524 47.9665C83.6734 48.0062 83.1633 48.1282 82.9113 48.2388C81.9743 48.6488 81.5354 48.8011 81.4314 48.7541C81.2234 48.6602 79.1903 49.1724 79.2043 49.3143C79.2083 49.3487 79.0154 49.332 78.7663 49.2778C78.5223 49.2246 78.1994 49.2736 78.0484 49.3873C77.9004 49.4989 77.5284 49.6241 77.2403 49.6596C76.9444 49.6961 76.4343 49.8161 76.0984 49.9298C74.8694 50.3439 74.3583 50.467 73.6443 50.5244C73.2453 50.5567 72.8804 50.6224 72.8324 50.6715C72.6874 50.8206 71.4613 51.3015 71.2833 51.2786C71.1843 51.2661 70.9083 51.3391 70.6873 51.4371C70.4653 51.5352 70.0954 51.6061 69.8874 51.5905C69.6774 51.5759 69.3754 51.6416 69.2284 51.7344C69.0814 51.8273 68.8363 51.917 68.6923 51.9295C67.7473 52.0088 66.4324 52.3791 65.5814 52.8047C65.4734 52.859 65.3214 52.8986 65.2324 52.8955C65.1454 52.8934 64.7203 53.0259 64.2783 53.1959C63.8353 53.3649 63.1914 53.5746 62.8274 53.6664C62.4634 53.7582 61.9693 53.9939 61.7133 54.1973C61.4593 54.3987 61.2284 54.5207 61.1984 54.4686C61.1224 54.3392 59.9633 55.0767 59.9623 55.2551C59.9613 55.4638 60.3254 55.3323 61.4644 54.7116C61.6174 54.6282 61.7614 54.6104 61.7964 54.671C61.8304 54.7294 61.9143 54.7012 61.9843 54.6084C62.0533 54.5155 62.1834 54.4508 62.2724 54.4654C62.3614 54.48 63.0043 54.3403 63.7003 54.1546C64.3973 53.9689 65.2104 53.8009 65.5084 53.7801C65.8044 53.7592 66.2893 53.6194 66.5753 53.4734C66.8613 53.3273 67.3904 53.2209 67.7403 53.2418C68.0933 53.2627 68.7284 53.1844 69.1554 53.0686C69.5824 52.9529 70.1313 52.8287 70.3783 52.7912C70.6244 52.7547 71.0984 52.6858 71.4274 52.6399C71.7564 52.594 72.0684 52.5168 72.1164 52.4688C72.1674 52.4177 72.2884 52.3916 72.4054 52.4062C72.5174 52.4208 72.9483 52.3426 73.3783 52.231C73.8083 52.1194 74.2744 52.0526 74.4274 52.0808C74.5804 52.1079 74.8743 52.0766 75.0833 52.0109C75.2923 51.9452 75.5174 51.9212 75.5864 51.9577C75.6534 51.9942 75.8343 51.9452 75.9813 51.8523C76.1283 51.7595 76.3184 51.6969 76.3974 51.7167C76.4844 51.7386 76.5754 51.7355 76.6254 51.7094C76.6704 51.6854 76.9903 51.6458 77.3333 51.6228C77.6753 51.5999 78.1673 51.506 78.4203 51.4163C78.6763 51.3255 79.0294 51.3057 79.2143 51.3714C79.3923 51.4351 79.7063 51.4194 79.8903 51.337C80.0743 51.2546 80.3803 51.12 80.5493 51.047C80.7203 50.9729 81.1114 50.9093 81.4044 50.9072C81.7013 50.9051 82.5393 50.7309 83.2683 50.5212C83.9963 50.3116 84.9073 50.1175 85.2913 50.0904C85.6783 50.0633 86.2504 49.9308 86.5723 49.7931C86.8943 49.6554 87.2664 49.574 87.4054 49.6106C87.6664 49.6794 89.6273 49.3268 90.5323 49.0483C90.8473 48.9513 91.1014 48.9043 91.0914 48.945C91.0544 49.0952 89.0623 49.8432 88.2483 50.0122C87.7653 50.1123 87.0484 50.3032 86.6344 50.4409C86.2194 50.5786 85.6924 50.7215 85.4444 50.7612C85.1994 50.8018 84.4453 51.0126 83.7683 51.2295C83.0913 51.4476 81.9573 51.7584 81.2473 51.9201C80.5373 52.0818 79.5163 52.3363 78.9763 52.4845C78.4423 52.6305 77.7894 52.7859 77.5434 52.8256C77.1294 52.8924 76.8793 52.9612 75.3433 53.4317C74.6603 53.6403 74.5124 53.6904 74.4234 53.7373C74.3914 53.755 74.0993 53.8197 73.7794 53.8802C73.0554 54.0179 71.3723 54.4967 70.8463 54.7148C70.2483 54.962 68.6603 55.3302 68.2433 55.3188C68.0453 55.3135 67.7403 55.398 67.5713 55.5055C67.4023 55.6129 67.1053 55.7141 66.9193 55.7266C66.7313 55.7402 66.0533 55.9134 65.4113 56.1126C64.7713 56.3118 63.4034 56.7291 62.3784 57.04C61.3524 57.3508 60.3904 57.6794 60.2424 57.7681C60.0934 57.8578 59.9473 57.886 59.9153 57.8307C59.8833 57.7754 59.1983 57.9027 58.4063 58.1092C55.1963 58.9469 50.7753 59.9535 50.1433 59.9921C49.7093 60.0182 47.3143 60.7662 46.9763 60.9811C46.8633 61.053 46.6403 61.0729 46.5053 61.0228C46.3613 60.9696 46.1694 60.9779 46.0684 61.0426C45.9704 61.1052 45.5043 61.2168 45.0504 61.2867C44.5854 61.3587 43.5563 61.5903 42.7393 61.8083C41.1593 62.2297 40.2544 62.3914 40.2884 62.2485C40.2984 62.2068 41.1014 61.6664 42.0724 61.0499C43.0424 60.4324 44.2293 59.7188 44.7053 59.4643C45.1843 59.2087 46.0904 58.709 46.7294 58.3471C47.3654 57.9872 48.6003 57.3508 49.4713 56.9346C50.3423 56.5184 51.0644 56.1429 51.0734 56.1011C51.0834 56.0594 51.2913 55.9707 51.5323 55.9061C51.7723 55.8414 52.3944 55.5524 52.8964 55.2729C53.3984 54.9933 54.0424 54.6647 54.3094 54.552C54.5794 54.4383 55.1453 54.1546 55.5663 53.922C55.9873 53.6893 56.6133 53.3587 56.9553 53.1876C57.5784 52.8757 59.1294 52.0088 61.7374 50.5118C62.4674 50.0925 63.2154 49.6846 63.3924 49.6085C64.2804 49.2267 65.7713 48.5403 66.8563 48.0145C67.5193 47.6922 68.3374 47.3636 68.6734 47.2833C69.0124 47.2019 69.4294 47.0444 69.6114 46.9286C69.9373 46.721 71.7473 46.1347 72.2913 46.0596C72.4553 46.0367 73.0284 45.8645 73.5554 45.6799C74.0824 45.4953 74.8233 45.3117 75.1913 45.2752C75.8773 45.2074 76.5223 45.0363 77.2013 44.7411C77.6453 44.5481 79.4184 44.3332 79.6323 44.4469C79.7193 44.4928 79.8864 44.4636 80.0214 44.377C80.1564 44.2904 80.3223 44.2789 80.4073 44.3499C80.4893 44.4177 80.6624 44.4156 80.7924 44.3467C81.2044 44.1256 83.2483 43.8617 83.8853 43.9462C84.2313 43.9921 84.8983 43.9858 85.3933 43.9316C88.1283 43.6332 89.1533 43.5665 89.2943 43.6791C89.3843 43.7511 89.5004 43.774 89.5644 43.7334C89.6284 43.6927 89.8894 43.6802 90.1674 43.7052C90.4454 43.7302 90.6923 43.677 90.7393 43.5842C90.7823 43.4986 90.8494 43.4674 90.8794 43.5195C90.9124 43.5758 91.2463 43.5654 91.6393 43.4966C92.0323 43.4277 92.6553 43.387 93.0554 43.4037C93.4524 43.4204 93.8343 43.3922 93.9163 43.3411C93.9953 43.2911 94.2163 43.2587 94.3943 43.2712C94.5823 43.2848 94.8793 43.2535 95.0793 43.1993C95.2703 43.1471 95.7433 43.1179 96.1093 43.1335C96.4753 43.1502 96.9764 43.0908 97.2024 43.0042C97.4344 42.9155 97.9324 42.8498 98.3234 42.8561C98.7144 42.8634 99.0854 42.8394 99.1594 42.8029C99.3824 42.6923 100.312 42.5514 101.918 42.3866L102.765 42.3L102.071 42.6495C101.406 42.9844 101.193 43.1064 100.448 43.58C100.256 43.7021 99.9803 43.8033 99.8113 43.8147C99.6453 43.8179 99.2473 43.9608 98.9363 44.1183ZM94.4643 47.9874C94.4454 47.954 94.5823 47.8987 94.7773 47.8612C94.9723 47.8236 95.1373 47.7391 95.1533 47.6703C95.1693 47.6014 95.2193 47.6118 95.2683 47.6943C95.3163 47.7767 95.3294 47.857 95.2984 47.8768C95.1744 47.9561 94.4983 48.0458 94.4643 47.9874ZM104.019 44.4469C103.852 44.4792 103.644 44.5429 103.533 44.595C103.427 44.6451 103.123 44.7546 102.861 44.836L102.384 44.9862L102.941 44.5752C103.395 44.2403 103.573 44.185 103.905 44.2779C104.293 44.3853 104.298 44.3926 104.019 44.4469ZM70.0033 78.2225C70.8253 77.7218 71.9274 77.0093 72.2724 76.7548C72.8384 76.3385 73.0863 76.1883 74.7963 75.2213C75.6353 74.7467 77.0603 73.9184 77.9673 73.378C78.8743 72.8366 79.6973 72.3954 79.8003 72.3954C79.9993 72.3954 82.2813 70.9735 82.3874 70.7837C82.4203 70.7242 83.5944 69.9356 84.9874 69.0364L87.5273 67.3976L87.3163 67.8712C87.2023 68.1267 86.9333 68.5002 86.7303 68.6827C86.2343 69.1324 84.6624 71.0632 84.6044 71.2959C84.5794 71.3971 84.3603 71.6067 84.1233 71.758C83.8183 71.952 83.6563 72.1805 83.5803 72.5237C83.5123 72.8304 83.3053 73.1392 83.0273 73.352C82.7813 73.5397 82.5043 73.8631 82.4063 74.077C82.3103 74.2877 81.8943 74.8426 81.4933 75.2954C81.0923 75.7481 80.4844 76.4877 80.1594 76.9185C79.8274 77.3577 79.5063 77.7458 79.4373 77.7896C79.1663 77.9617 77.9994 79.7445 77.8924 80.1513C77.8264 80.4017 77.5424 80.771 77.1894 81.0683C76.8674 81.3384 76.4793 81.8099 76.3383 82.102C76.1983 82.392 75.9513 82.7238 75.8003 82.8239C75.6483 82.9251 75.2454 83.3319 74.9144 83.7179C74.5834 84.1049 74.2943 84.4053 74.2794 84.3793C74.2644 84.3542 74.1013 84.5514 73.9253 84.8059C73.7493 85.0615 73.4474 85.4057 73.2714 85.5528C73.0944 85.6999 72.8393 85.9649 72.7173 86.1276C72.5093 86.4051 72.1623 86.7139 71.0073 87.6517C70.7934 87.8248 70.4034 88.1806 70.1384 88.4424C69.8734 88.7042 69.1823 89.2707 68.6003 89.7036C68.0173 90.1365 67.4014 90.6153 67.2273 90.7707C66.5663 91.3612 60.0734 95.5359 59.5994 95.6747C59.3274 95.7539 58.7803 95.9949 58.3683 96.2171C57.9563 96.4393 57.3723 96.7345 57.0543 96.8826C56.7413 97.0287 55.9824 97.4324 55.3784 97.7746C54.3154 98.3765 53.5104 98.7895 52.3184 99.3456C52.0024 99.4926 51.5273 99.7336 51.2553 99.8838C50.9823 100.035 50.4134 100.297 49.9744 100.472C49.5354 100.648 48.9313 100.908 48.6143 101.058C47.2803 101.688 45.9074 102.247 45.7764 102.214C45.6954 102.193 45.4443 102.296 45.2083 102.447C44.9713 102.597 44.5724 102.784 44.3024 102.869C44.0364 102.954 43.4944 103.182 43.0984 103.377C42.7014 103.571 42.0403 103.835 41.6303 103.964C41.2243 104.09 40.7184 104.263 40.5204 104.342C40.0324 104.539 39.0234 104.982 38.7834 105.104C38.6784 105.157 38.3703 105.258 38.1013 105.328C37.8283 105.398 37.2544 105.588 36.8104 105.754C36.3654 105.92 35.8513 106.093 35.6523 106.143C35.4583 106.192 34.9813 106.385 34.6063 106.565C34.2323 106.746 33.8443 106.897 33.7553 106.897C33.6663 106.896 33.3094 107.047 32.9664 107.229C32.6194 107.413 31.7073 107.776 30.9193 108.043C28.8913 108.731 25.8573 109.973 25.6483 110.201C25.5533 110.304 25.4044 110.361 25.3324 110.323C25.2564 110.281 25.0774 110.324 24.9304 110.417C24.7834 110.511 24.5804 110.564 24.4744 110.537C24.3694 110.511 23.8833 110.677 23.3983 110.906C22.9133 111.134 22.1653 111.424 21.7444 111.545C21.3204 111.667 20.7233 111.892 20.4113 112.046C20.0993 112.199 19.4904 112.403 19.0514 112.499C18.6134 112.595 17.7524 112.871 17.1344 113.112C16.5174 113.353 15.5784 113.682 15.0464 113.842C14.5204 114.001 13.8303 114.245 13.5323 114.377C13.2373 114.508 12.7604 114.655 12.4964 114.697C12.2244 114.74 11.6984 114.92 11.3104 115.104C10.9224 115.287 10.3814 115.506 10.0904 115.597C9.80236 115.687 9.40635 115.825 9.21035 115.906C9.01335 115.986 8.31136 116.274 7.63736 116.55C6.95036 116.832 6.43735 116.976 6.46035 116.879C6.48235 116.785 7.35735 116.123 8.40835 115.406C9.45935 114.688 10.3983 114.052 10.4973 113.988C10.5963 113.926 11.2893 113.489 12.0243 113.026C13.8123 111.9 16.1284 110.277 16.3614 109.986C16.4664 109.855 16.8614 109.544 17.2504 109.283C18.2514 108.613 20.0364 107.276 20.4683 106.871C20.6684 106.683 20.8983 106.505 20.9683 106.482C21.0393 106.459 21.1794 106.314 21.2764 106.162C21.4414 105.904 21.9023 105.379 22.5504 104.714C22.7154 104.544 23.1463 104.224 23.5113 104.001C23.8763 103.778 24.3523 103.407 24.5743 103.172C24.7933 102.94 25.3253 102.458 25.7433 102.114C26.1633 101.768 26.8744 101.096 27.3144 100.631C27.7554 100.164 28.5463 99.4676 29.0673 99.0879C29.5883 98.7082 30.0393 98.2972 30.0673 98.1772C30.0963 98.0541 30.2933 97.8486 30.5183 97.7047C30.7443 97.5617 30.9864 97.3333 31.0724 97.1831C31.1564 97.037 31.4323 96.7669 31.6823 96.5853C31.9323 96.4038 32.1203 96.2223 32.0973 96.1837C32.0753 96.1451 32.3244 95.8437 32.6464 95.5203C32.9684 95.1969 33.2714 94.8318 33.3144 94.716C33.3564 94.6023 33.4724 94.5063 33.5644 94.5084C33.6574 94.5105 33.7713 94.4124 33.8123 94.2977C33.8833 94.0974 34.2744 93.6311 35.4184 92.3845C35.6644 92.1164 35.9593 91.817 36.0793 91.7148C36.1973 91.6136 36.5954 91.2203 36.9534 90.8521C37.3114 90.4839 37.9133 89.932 38.2733 89.641C38.6343 89.3499 39.2974 88.771 39.7284 88.3694C40.1594 87.9678 40.7744 87.4336 41.0784 87.1969C41.3864 86.9559 41.7784 86.6367 41.9524 86.4812C42.6824 85.8355 44.1364 84.7631 45.2504 84.0475C46.5004 83.2464 50.3124 81.0338 50.9604 80.7344C51.1694 80.6385 51.9024 80.2807 52.5984 79.9364C53.2944 79.5922 54.0773 79.2479 54.3473 79.1686C54.8313 79.0257 56.1704 78.3675 57.3054 77.7145C57.6414 77.5215 58.3884 77.1574 58.9564 76.9112C59.5244 76.6651 60.3434 76.3052 60.7664 76.1153C61.1954 75.9234 61.7264 75.7189 61.9604 75.6553C62.1924 75.5927 62.9543 75.2776 63.6623 74.9522C64.3703 74.6267 65.0014 74.392 65.0734 74.4264C65.1454 74.4619 65.3673 74.4129 65.5743 74.3179C65.7793 74.223 66.2494 74.0436 66.6244 73.9163C66.9994 73.789 67.5434 73.5595 67.8404 73.402C68.1394 73.2435 68.6963 73.0255 69.0933 72.9107C69.7653 72.7177 70.4954 72.4507 71.1334 72.1648C71.5874 71.9614 71.9123 71.8383 72.2613 71.7382C72.4493 71.6839 73.0134 71.4503 73.5004 71.2239C73.9874 70.9975 74.7964 70.6741 75.2754 70.5135C76.1843 70.2089 76.2813 70.1693 77.8423 69.4766C78.9483 68.9853 79.1084 68.9248 79.3144 68.9237C79.3984 68.9227 79.9644 68.6984 80.5644 68.4272C81.1644 68.1559 81.8664 67.8482 82.1164 67.747C82.3664 67.6458 82.6333 67.5384 82.7053 67.5102C82.7783 67.4821 83.2023 67.2338 83.6453 66.9605C84.1463 66.6517 84.4833 66.514 84.5323 66.5985C84.5863 66.6903 84.2903 66.9125 83.6013 67.2953C83.0403 67.6072 82.3533 68.0694 82.0573 68.3333C81.7623 68.5962 81.4443 68.7985 81.3463 68.785C81.2473 68.7714 81.0274 68.8872 80.8444 69.051C80.2564 69.5767 76.7384 71.6662 75.4094 72.2775C74.4584 72.7156 64.3284 79.1739 63.5814 79.8196C63.2834 80.0772 62.4354 80.7052 61.7074 81.208C60.9794 81.7108 59.9933 82.4129 59.5273 82.7603C58.5673 83.4759 58.1604 83.7471 57.5434 84.0788C56.8534 84.4512 55.3544 85.6039 54.5654 86.3717C54.1264 86.7973 53.0373 87.5974 51.7823 88.4153C50.6503 89.1528 49.3234 90.0843 48.8404 90.4797C48.3594 90.874 47.5794 91.4331 47.1164 91.7148C45.5074 92.6954 42.1594 95.1562 41.9744 95.4952C41.9174 95.5995 41.6104 95.7998 41.3024 95.9344C40.5014 96.2849 39.2333 97.2227 39.0873 97.5732C38.9743 97.8444 38.3454 98.2627 37.4044 98.6925C37.1844 98.7927 36.9754 98.9805 36.9264 99.1202C36.8764 99.2642 36.3164 99.719 35.6044 100.195C34.9254 100.648 34.2273 101.154 34.0543 101.317C33.8853 101.478 33.5764 101.711 33.3844 101.826C31.4214 102.996 30.4454 103.71 30.2414 104.128C30.1414 104.333 29.8543 104.619 29.6103 104.756C29.3663 104.894 29.1613 105.086 29.1613 105.179C29.1603 105.293 29.4903 105.107 30.1623 104.615C30.7134 104.211 31.6834 103.577 32.3184 103.205C34.5094 101.923 43.1854 96.2474 43.8964 95.6319C43.9534 95.5829 44.5554 95.1958 45.2464 94.765C49.5564 92.0768 55.2294 88.384 55.7294 87.9406C56.0544 87.6527 57.9063 86.3686 59.8373 85.0917C61.7683 83.8149 63.6024 82.5715 63.9054 82.3326C65.0934 81.3958 67.8923 79.5098 70.0033 78.2225ZM143.309 21.806C143.332 22.0146 143.208 22.4935 143.031 22.8794C142.854 23.2644 142.717 23.7234 142.725 23.9049C142.734 24.0937 142.7 24.3774 142.648 24.5673C142.598 24.7477 142.594 24.9647 142.639 25.0419C142.685 25.1212 142.6 25.4394 142.448 25.7607C142.296 26.082 142.146 26.5994 142.112 26.9269C142.052 27.4944 141.834 28.4301 141.558 29.3095C141.481 29.5536 141.244 30.4142 141.037 31.1997C140.18 34.4492 139.583 36.3321 139.365 36.4708C139.284 36.522 139.095 36.9361 138.944 37.392C138.793 37.8489 138.547 38.3965 138.396 38.6125C138.244 38.8294 138.15 39.0516 138.184 39.1111C138.216 39.1664 138.172 39.2634 138.093 39.3135C138.008 39.3677 137.855 39.6869 137.748 40.0333C137.641 40.3796 137.489 40.7019 137.406 40.7593C137.323 40.8167 137.194 41.0858 137.114 41.3727C137.034 41.6595 136.897 41.9308 136.802 41.9913C136.71 42.0497 136.482 42.4242 136.304 42.8081C136.123 43.1982 135.632 44.0557 135.212 44.7129C134.79 45.3743 134.03 46.5822 133.511 47.4168C132.992 48.2513 132.336 49.1808 132.041 49.4979C131.746 49.815 131.315 50.3648 131.074 50.7299C130.682 51.3255 129.621 52.7453 128.573 54.0774C128.346 54.3663 127.818 54.9839 127.415 55.4335C127.012 55.8831 126.522 56.5038 126.338 56.7959C126.152 57.0921 125.772 57.5616 125.488 57.8443C125.204 58.127 124.904 58.5129 124.816 58.707C124.729 58.8999 124.395 59.2577 124.073 59.5018C123.752 59.7459 123.396 60.0495 123.283 60.1757C122.827 60.6848 121.673 62.0284 120.861 62.9965C120.387 63.5619 119.661 64.3661 119.236 64.798C118.818 65.2215 118.436 65.6534 118.397 65.7462C118.322 65.9246 117.822 66.4838 117.563 66.6767C117.235 66.9219 114.948 69.3264 114.044 70.3758C113.537 70.9641 112.541 72.0157 111.833 72.7104C111.125 73.4052 110.368 74.2386 110.152 74.562C109.939 74.8823 109.424 75.3955 109.023 75.6887C108.381 76.1581 107.655 76.8445 105.185 79.3178C104.248 80.2567 104.003 80.4914 103.561 80.8826C103.346 81.0714 103.185 81.2717 103.211 81.3165C103.238 81.3624 103.009 81.5544 102.692 81.7515C102.374 81.9487 101.977 82.2491 101.791 82.4338C101.352 82.8667 101.258 82.6862 101.654 82.1719C101.821 81.9549 101.994 81.5971 102.032 81.3885C102.072 81.1694 102.162 80.966 102.243 80.9159C102.322 80.8659 102.438 80.5654 102.508 80.2306C102.577 79.8989 102.763 79.395 102.926 79.0925C103.09 78.791 103.193 78.5031 103.159 78.4447C103.126 78.3884 103.176 78.2882 103.266 78.2308C103.356 78.1735 103.466 78.0024 103.5 77.8636C103.535 77.7239 103.665 77.3921 103.783 77.1428C103.902 76.8914 104.21 76.1508 104.459 75.5186C104.708 74.8854 105.049 74.2199 105.207 74.0582C105.372 73.8892 105.464 73.6451 105.42 73.4949C105.377 73.3488 105.516 72.9451 105.73 72.5957C105.946 72.242 106.302 71.5619 106.535 71.0591C106.767 70.5563 107.125 69.8782 107.343 69.5288C107.559 69.1824 107.809 68.6828 107.9 68.4157C107.991 68.1497 108.445 67.2964 108.907 66.5244C109.369 65.7525 110.028 64.5925 110.369 63.9541C111.986 60.9206 116.158 53.9387 116.472 53.7394C116.522 53.7071 116.785 53.3221 117.064 52.8715C117.876 51.5592 118.554 50.7017 119.244 50.1134C119.595 49.814 119.965 49.429 120.062 49.2611C120.162 49.0879 120.343 48.8678 120.478 48.7541C120.609 48.6446 120.851 48.413 121.014 48.2409C122.633 46.5353 123.018 46.1692 124.359 45.0665C124.662 44.8172 124.936 44.5595 124.963 44.498C124.991 44.4354 125.74 43.8533 126.639 43.1951C128.406 41.9016 128.544 41.7889 128.653 41.5552C128.695 41.4645 128.879 41.3184 129.071 41.2235C129.263 41.1286 129.388 41.0107 129.355 40.9544C129.322 40.8991 129.388 40.7989 129.502 40.7301C130.088 40.3744 130.826 39.6577 131.605 38.6865C131.892 38.3298 132.275 37.9 132.461 37.7289C132.642 37.562 132.908 37.2689 133.036 37.0967C133.166 36.9215 133.413 36.6878 133.579 36.5825C133.747 36.4761 134.171 35.9263 134.522 35.362C134.873 34.7966 135.261 34.2812 135.385 34.2166C135.503 34.154 135.589 33.9923 135.565 33.8765C135.539 33.7471 135.594 33.6084 135.695 33.5437C135.79 33.4832 135.986 33.1682 136.126 32.85C136.265 32.5318 136.471 32.2106 136.579 32.1417C136.692 32.0697 136.805 31.8945 136.842 31.7317C136.878 31.5753 137.088 31.2394 137.31 30.9827C137.531 30.7261 137.684 30.4695 137.65 30.4121C137.615 30.3527 137.667 30.2557 137.769 30.191C137.871 30.1263 137.926 30.0345 137.895 29.9813C137.821 29.8509 138.278 29.0404 138.408 29.0738C138.52 29.103 138.161 30.119 138.003 30.2192C137.946 30.2557 137.753 30.6385 137.566 31.0871C137.379 31.5346 137.173 31.9268 137.1 31.9727C137.032 32.0155 137.034 32.0885 137.103 32.124C137.176 32.1615 137.14 32.294 137.026 32.415C136.911 32.536 136.856 32.7739 136.905 32.9356C136.957 33.1108 136.816 33.5239 136.561 33.937C136.323 34.324 136.012 35.0845 135.87 35.628C135.726 36.1767 135.565 36.6065 135.506 36.5939C135.451 36.5825 135.438 36.6367 135.479 36.7076C135.523 36.7827 135.461 36.9549 135.341 37.0936C135.221 37.2324 135.08 37.4879 135.025 37.6653C134.972 37.8384 134.898 37.9375 134.864 37.8802C134.83 37.8217 134.721 38.1128 134.622 38.5259C134.523 38.939 134.384 39.2978 134.313 39.3218C134.103 39.3927 133.754 39.9905 133.678 40.4098C133.638 40.6289 133.546 40.849 133.475 40.8939C133.404 40.9387 133.235 41.2256 133.102 41.5271C132.969 41.8285 132.723 42.2218 132.558 42.3971C132.396 42.5702 132.256 42.7778 132.254 42.8488C132.249 43.0532 131.332 44.6294 131.151 44.7442C130.989 44.8475 130.889 44.9852 130.509 45.6319C130.408 45.804 130.17 46.0461 129.99 46.1608C129.81 46.2756 129.642 46.432 129.625 46.5019C129.542 46.8347 128.727 47.7725 125.913 50.7695C125.741 50.9521 125.529 51.2327 125.428 51.41C125.329 51.5842 125.232 51.6969 125.211 51.6614C125.19 51.6249 125.021 51.8784 124.827 52.2362C124.634 52.594 124.397 52.9299 124.289 52.9977C124.183 53.0645 123.942 53.3701 123.751 53.6789C123.56 53.9877 123.293 54.3079 123.155 54.3945C122.906 54.551 121.596 56.0886 121.56 56.267C121.495 56.5893 121.1 57.1286 120.62 57.5511C120.099 58.0101 118.935 59.4393 118.665 59.9525C118.596 60.0829 118.242 60.473 117.874 60.8235C117.506 61.173 117.168 61.5798 117.12 61.7311C117.072 61.8803 116.881 62.1442 116.7 62.3101C116.267 62.7085 115.878 63.2301 115.772 63.5556C115.678 63.8425 114.902 64.7145 114.511 64.9733C114.366 65.0692 114.179 65.2653 114.103 65.401C114.027 65.5366 113.884 65.7421 113.792 65.8495C113.7 65.9559 113.659 66.1113 113.704 66.1885C113.81 66.369 114.373 65.9038 114.466 65.5595C114.515 65.378 114.598 65.3154 114.756 65.3404C114.996 65.378 115.595 64.7375 116.204 63.7924C116.366 63.5399 116.63 63.2259 116.778 63.107C117.506 62.5249 117.738 62.2339 117.629 62.0461C117.532 61.8803 117.621 61.7937 118.14 61.5433C118.624 61.3107 118.92 61.0499 119.428 60.4094C119.793 59.9494 120.216 59.4966 120.376 59.3954C120.534 59.2953 120.664 59.1357 120.665 59.0418C120.666 58.95 120.868 58.7403 121.103 58.5859C121.551 58.2928 121.808 58.0435 122.83 56.9064C123.597 56.0531 123.667 55.9822 124.666 55.0423C125.575 54.1869 126.534 53.1271 126.641 52.86C126.679 52.764 127.003 52.4469 127.369 52.1465C127.735 51.8461 128.121 51.483 128.237 51.3276C128.353 51.1743 128.768 50.7653 129.166 50.4138C129.56 50.0654 130.197 49.4363 130.573 49.0212C131.411 48.098 132.394 47.1174 132.636 46.964C132.726 46.9067 132.781 46.8149 132.754 46.7679C132.725 46.7179 132.841 46.5457 133.019 46.3736C133.194 46.2046 133.635 45.5735 134.006 44.9632C134.377 44.353 134.736 43.8606 134.81 43.8627C134.887 43.8648 134.944 43.7699 134.944 43.6405C134.944 43.3182 135.44 42.3564 135.688 42.1989C135.922 42.0497 136.307 41.1922 136.347 40.7311C136.362 40.5611 136.449 40.3587 136.533 40.3066C136.826 40.1198 137.17 39.3865 137.148 38.9953C137.135 38.7731 137.249 38.433 137.401 38.2411C137.657 37.9177 137.821 37.3721 137.823 36.838C137.823 36.7389 137.966 36.3331 138.144 35.9242C138.322 35.5143 138.445 35.0845 138.422 34.9562C138.398 34.8258 138.449 34.6808 138.538 34.6244C138.68 34.5337 138.749 34.3125 138.964 33.2558C139.007 33.0461 139.157 32.5183 139.291 32.1115C139.425 31.7046 139.607 31.1309 139.686 30.867C139.765 30.6051 139.934 30.2045 140.05 30.0063C140.166 29.8071 140.291 29.4316 140.32 29.1968C140.35 28.9527 140.521 28.5084 140.708 28.1912C140.891 27.8793 141.167 27.2284 141.319 26.7475C142.069 24.3753 142.714 22.5404 143 21.9698L143.272 21.4273L143.309 21.806ZM76.5193 20.3998C76.9843 20.162 77.4763 19.9367 77.6114 19.8991C77.7484 19.8616 78.2933 19.6227 78.8373 19.3619C80.3493 18.6379 82.1854 17.8618 83.1684 17.5311C83.6474 17.3705 84.3774 17.0993 84.7714 16.9365C85.1724 16.7707 86.1444 16.3868 86.9524 16.0738C87.7604 15.7619 88.7413 15.3321 89.1523 15.111C89.5643 14.8888 90.0274 14.6927 90.1934 14.6676C90.5424 14.6165 92.3303 13.9291 93.2133 13.5066C93.5523 13.3449 94.1104 13.1415 94.4834 13.0445C94.8464 12.9506 95.4074 12.744 95.7194 12.5897C96.0313 12.4353 96.5114 12.2506 96.7804 12.1807C97.0454 12.1119 97.4643 11.9345 97.6923 11.7948C97.9193 11.655 98.2574 11.5267 98.4274 11.5173C98.7354 11.4995 100.343 10.9029 101.162 10.5023C101.909 10.1372 102.212 10.0224 103.354 9.67087C103.957 9.48519 104.583 9.2463 104.758 9.13469C104.927 9.02724 105.14 8.95213 105.215 8.97299C105.352 9.01159 105.692 8.90623 105.98 8.7362C106.081 8.67674 106.625 8.47645 107.184 8.29389C107.743 8.11134 108.442 7.83386 108.73 7.6826C109.014 7.53238 109.315 7.41972 109.383 7.43641C109.451 7.45415 109.629 7.39364 109.764 7.30706C109.899 7.22048 110.125 7.17562 110.248 7.209C110.372 7.24343 110.456 7.23404 110.43 7.19022C110.403 7.14328 110.541 7.07652 110.75 7.03584C110.951 6.9962 111.493 6.81051 111.943 6.62796C113.994 5.79447 116.255 5.02774 117.485 4.74922C117.909 4.65325 118.502 4.50929 118.814 4.42688C119.122 4.34551 119.514 4.26102 119.68 4.24015C119.846 4.21929 120.48 4.04612 121.081 3.85731C121.683 3.6685 122.554 3.45882 123.007 3.39206C123.463 3.3253 124.108 3.18238 124.446 3.07389C124.785 2.9654 125.2 2.87152 125.375 2.86317C125.545 2.85483 125.839 2.78285 126.011 2.70566C126.285 2.58465 127.864 2.35307 128.905 2.28213C129.054 2.2717 129.253 2.21328 129.353 2.14861C129.567 2.01195 132.169 1.73864 132.305 1.83774C132.362 1.87947 132.426 1.8513 132.465 1.76785C132.501 1.6917 132.565 1.68753 132.607 1.75846C132.65 1.83253 132.784 1.82314 132.92 1.7376C133.055 1.65102 133.188 1.63954 133.229 1.71048C133.27 1.78141 133.403 1.76994 133.538 1.68335C133.673 1.59677 133.8 1.57591 133.834 1.63328C133.867 1.68857 134.162 1.6917 134.503 1.63954C135.099 1.54774 135.314 1.55609 136.006 1.69483C136.199 1.73343 136.418 1.72612 136.492 1.67918C136.566 1.63224 136.883 1.61972 137.195 1.65102C137.508 1.68335 137.814 1.6771 137.876 1.63745C137.938 1.59781 138.615 1.52479 139.375 1.47472C140.135 1.42465 141.205 1.35371 141.743 1.31616C142.725 1.24836 143.054 1.36519 142.524 1.59364C142.376 1.65727 141.738 1.85026 141.123 2.01717C140.508 2.18407 139.853 2.41357 139.684 2.52102C139.515 2.62846 139.313 2.68688 139.241 2.64933C139.167 2.61073 138.916 2.64933 138.673 2.73591C138.43 2.82249 138.094 2.8903 137.911 2.88925C137.73 2.88821 137.326 3.00087 137.006 3.1417C136.686 3.28253 136.346 3.38789 136.246 3.37746C136.071 3.35868 134.773 3.66433 133.742 3.9658C132.909 4.2099 131.554 4.48425 131.112 4.49781C130.884 4.50512 130.595 4.56979 130.489 4.63655C130.383 4.70436 130.027 4.78573 129.717 4.81285C129.4 4.84102 128.855 4.99228 128.499 5.15188C128.143 5.31148 127.551 5.47839 127.177 5.52429C126.802 5.57123 126.305 5.71415 126.064 5.84454C125.823 5.97494 125.325 6.11576 124.948 6.15853C124.571 6.20235 124.116 6.32857 123.93 6.44228C123.747 6.55494 123.301 6.67699 122.949 6.71037C122.195 6.78339 121.263 7.03062 120.496 7.35922C120.187 7.4917 119.915 7.55638 119.884 7.50422C119.834 7.41763 119.135 7.62731 117.803 8.12699C117.473 8.25113 117.026 8.4149 116.803 8.49418C116.585 8.57137 116.279 8.71846 116.138 8.81235C115.982 8.91666 115.878 8.91458 115.88 8.80713C115.882 8.70282 115.847 8.6976 115.796 8.79566C115.748 8.88954 115.482 9.00012 115.199 9.04602C114.817 9.10756 114.675 9.1858 114.631 9.35897C114.588 9.52796 114.555 9.5363 114.508 9.38922C114.447 9.19832 113.931 9.36627 112.709 9.97756C112.541 10.061 112.278 10.1048 112.138 10.0725C111.923 10.0224 111.878 10.0506 111.878 10.2384C111.877 10.5659 112.244 10.6097 113.004 10.375C113.567 10.2008 113.662 10.1351 113.677 9.9108C113.691 9.69591 113.705 9.69174 113.752 9.88785C113.806 10.1132 114.379 10.0516 115.097 9.74494C115.506 9.56969 116.578 9.25465 116.907 9.21397C117.07 9.1931 117.384 9.09087 117.589 8.99073C117.797 8.88954 118.29 8.74663 118.682 8.67569C119.283 8.56616 119.42 8.49418 119.553 8.21879C119.637 8.04458 119.697 7.96112 119.682 8.04041C119.628 8.31267 120.402 8.33354 120.994 8.07483C121.316 7.934 122.042 7.77544 122.627 7.71702C123.212 7.65861 123.845 7.55429 124.052 7.48127C124.259 7.40825 124.711 7.31123 125.069 7.2622C125.421 7.21422 126.042 7.07339 126.435 6.9503C126.828 6.82825 127.438 6.70411 127.777 6.67803C128.117 6.65195 128.636 6.53303 128.924 6.41724C129.212 6.30041 129.651 6.21904 129.894 6.23677C130.136 6.25451 130.374 6.24616 130.417 6.21904C130.498 6.16792 132.466 5.93738 133.691 5.83619C133.986 5.8122 134.443 5.71623 134.684 5.62861C134.933 5.53785 135.584 5.42102 136.154 5.36364C136.724 5.30731 137.408 5.16857 137.698 5.05174C137.988 4.9349 138.499 4.82015 138.855 4.79303C139.877 4.71479 140.002 4.69289 140.219 4.55832C140.514 4.37472 143.696 3.48699 143.945 3.51828C144.053 3.53184 144.328 3.47238 144.542 3.38789C144.761 3.30235 145.211 3.14274 145.548 3.03112C145.885 2.91951 146.246 2.7912 146.355 2.74425C146.463 2.69731 146.704 2.6535 146.887 2.64724C147.481 2.62742 148.771 2.32177 149.511 2.02656C149.912 1.86591 150.401 1.70526 150.601 1.66771C150.937 1.60407 150.927 1.63015 150.467 2.0349C150.191 2.27796 149.82 2.50641 149.631 2.55127C149.055 2.68688 148.913 2.75364 147.858 3.38476C147.296 3.72066 146.753 3.99397 146.65 3.99188C146.454 3.98771 144.449 4.83371 143.359 5.37929C142.988 5.56497 142.454 5.77465 142.188 5.83828C141.916 5.90296 141.567 6.08238 141.402 6.24094C141.234 6.40264 140.865 6.56641 140.555 6.61857C140.206 6.67699 139.76 6.88666 139.335 7.19231C138.965 7.45936 138.625 7.63566 138.575 7.58663C138.526 7.53864 138.047 7.75562 137.516 8.06648C136.988 8.3763 136.045 8.83217 135.441 9.07105C134.837 9.30994 133.972 9.72408 133.536 9.98382C133.1 10.2436 132.621 10.4679 132.479 10.4783C132.336 10.4887 131.996 10.593 131.724 10.7088C131.451 10.8246 131.167 10.9404 131.092 10.9654C131.017 10.9905 130.668 11.1407 130.312 11.3003C129.956 11.4599 129.428 11.6758 129.132 11.7843C128.839 11.8918 128.112 12.1578 127.526 12.3727C125.5 13.1164 123.606 13.7371 123.122 13.8154C122.853 13.8592 122.655 13.9166 122.672 13.9458C122.689 13.975 122.352 14.0605 121.931 14.1346C121.51 14.2086 120.936 14.3349 120.669 14.4121C120.112 14.5738 118.562 14.8053 117.196 14.9316C117.049 14.9451 116.859 15.0025 116.768 15.0599C116.678 15.1172 116.137 15.1976 115.558 15.2403C114.979 15.2821 114.443 15.3603 114.359 15.4135C114.279 15.4646 114.054 15.4625 113.884 15.4083C113.707 15.353 112.784 15.3926 111.839 15.498C110.894 15.6023 109.737 15.7264 109.275 15.7723C108.807 15.8182 108.356 15.9111 108.26 15.982C108.166 16.0498 107.873 16.0613 107.624 16.0071C107.37 15.9507 105.946 16.0227 104.467 16.1656C102.984 16.3096 100.523 16.5412 98.9964 16.682C97.4694 16.8228 96.1774 16.9647 96.1244 16.9981C96.0723 17.0314 95.5364 17.1034 94.9484 17.1566C94.3604 17.2098 93.8163 17.287 93.7553 17.3256C93.6953 17.3642 93.4373 17.3903 93.2003 17.382C92.6813 17.3632 92.0493 17.479 90.8643 17.8076C90.3983 17.9369 89.7933 18.059 89.5283 18.0767C89.2603 18.0955 88.9083 18.1967 88.7393 18.3031C88.5703 18.4105 88.4073 18.4502 88.3733 18.3907C88.2953 18.2561 86.9073 18.4512 86.6143 18.6379C86.4973 18.712 85.9843 18.8173 85.4883 18.8695C84.9923 18.9217 84.3633 19.0458 84.1074 19.1418C83.8534 19.2377 83.4883 19.3181 83.3123 19.317C83.1313 19.316 82.6124 19.4172 82.1464 19.5465C81.0404 19.8511 80.1014 20.0535 79.6164 20.0911C79.4094 20.1067 79.1193 20.1922 78.9883 20.2747C78.8553 20.3591 78.4673 20.4562 78.1303 20.4885C77.7903 20.5219 77.1304 20.6564 76.6514 20.791C76.1724 20.9256 75.7614 20.9892 75.7284 20.9339C75.6994 20.8786 76.0543 20.6377 76.5193 20.3998Z" fill="#99693F"/>
</svg>
