<svg width="81" height="167" viewBox="0 0 81 167" fill="none" xmlns="http://www.w3.org/2000/svg">
<path opacity="0.55" d="M54.2231 185.054C53.8504 184.667 53.4257 184.272 53.2901 184.188C53.1545 184.103 52.8084 183.81 52.5257 183.54C52.243 183.27 51.8146 182.901 51.5775 182.726C51.3379 182.549 50.9716 182.184 50.7561 181.908C50.5406 181.632 50.1539 181.245 49.8915 181.042C48.8863 180.265 48.1308 179.551 47.1369 178.435C46.8555 178.12 46.5081 177.81 46.3725 177.753C46.2394 177.697 45.991 177.457 45.835 177.233C45.4484 176.677 44.5142 175.684 44.3227 175.625C44.2315 175.597 44.0806 175.441 43.9767 175.269C43.8753 175.101 43.5647 174.71 43.2896 174.405C43.0158 174.101 42.4466 173.425 42.0372 172.916C41.6277 172.407 40.9546 171.629 40.5553 171.203C40.1572 170.778 39.5678 170.036 39.2597 169.576C38.9517 169.115 38.4421 168.454 38.1404 168.126C37.8387 167.797 37.362 167.146 37.0908 166.694C36.4138 165.563 35.1715 163.866 34.8027 163.572C34.6366 163.439 34.5263 163.243 34.5618 163.145C34.5986 163.047 34.4148 162.643 34.1574 162.258C33.9014 161.873 33.5223 161.157 33.3258 160.687C32.9747 159.845 32.3688 158.926 32.0328 158.726C31.9403 158.671 31.8211 158.388 31.7641 158.087C31.7083 157.793 31.4941 157.296 31.2951 156.996C31.096 156.696 30.9008 156.294 30.8666 156.115C30.8324 155.935 30.6156 155.441 30.3849 155.018C29.8816 154.096 29.3442 153.081 28.723 151.877C28.1462 150.761 27.5212 149.762 27.3032 149.61C27.2018 149.54 27.1625 149.46 27.2094 149.42C27.2525 149.383 27.1575 149.124 27.0015 148.855C26.8431 148.582 26.483 147.925 26.2016 147.395C25.9202 146.864 25.616 146.343 25.526 146.236C25.4284 146.12 25.4436 146.034 25.5615 146.024C25.6781 146.014 25.7693 146.048 25.7795 146.107C25.7896 146.161 26.1167 146.384 26.4881 146.59C26.8596 146.796 27.1853 147.019 27.1955 147.073C27.2056 147.128 27.3222 147.208 27.4477 147.25C27.5783 147.292 28.0499 147.612 28.51 147.969C29.334 148.608 29.5495 148.763 31.2494 149.943C31.7146 150.265 32.1165 150.588 32.1279 150.649C32.1393 150.711 32.4993 150.979 32.9443 151.259C33.3892 151.537 33.9381 151.919 34.1891 152.126C34.4388 152.331 34.705 152.49 34.7887 152.483C34.8736 152.476 35.0106 152.577 35.1031 152.717C35.2425 152.924 35.7255 153.286 37.0008 154.14C37.0921 154.201 37.3025 154.414 37.4711 154.615C37.6397 154.815 37.9312 155.032 38.1201 155.097C38.3077 155.162 38.7983 155.527 39.2014 155.9C39.6033 156.273 40.071 156.665 40.2295 156.763C40.6491 157.021 42.2894 158.381 42.3097 158.488C42.3198 158.541 42.458 158.646 42.6051 158.711C42.7559 158.778 43.0132 159.021 43.1704 159.246C43.3276 159.47 43.5685 159.727 43.7003 159.811C43.8334 159.897 44.1706 160.241 44.4533 160.579C44.736 160.918 45.205 161.436 45.4991 161.736C45.797 162.038 46.0455 162.345 46.0607 162.429C46.0759 162.511 46.3472 162.897 46.6565 163.278C47.6465 164.496 47.5667 164.378 47.8785 165.098C48.0154 165.415 48.3627 166.087 48.6454 166.583C48.9306 167.082 49.3667 167.982 49.6165 168.583C50.372 170.409 50.9297 171.566 51.504 172.498C51.8082 172.992 52.1492 173.69 52.2671 174.063C52.5219 174.868 53.6159 176.773 54.1027 177.257C54.2878 177.441 54.4741 177.78 54.5185 178.014C54.5628 178.25 54.805 178.697 55.0648 179.026C55.3247 179.355 55.4996 179.665 55.459 179.728C55.4159 179.796 55.4591 179.863 55.5668 179.895C55.7595 179.953 56.586 181.143 57.6268 182.865C58.5483 184.39 59.3786 185.511 60.0936 186.208L62.3158 185.913C62.2321 185.821 62.1497 185.726 62.0673 185.64C61.5501 185.095 60.9974 184.44 60.8377 184.182C60.6767 183.924 60.4029 183.575 60.2254 183.402C60.0442 183.226 59.8895 183.008 59.8692 182.901C59.8489 182.797 59.6208 182.39 59.3596 181.994C59.0985 181.599 58.6269 180.845 58.3113 180.317C57.7941 179.456 57.486 179.033 56.8839 178.356C56.7749 178.233 56.5822 177.856 56.4491 177.505C56.3173 177.154 56.1271 176.821 56.0206 176.755C55.9167 176.689 55.7544 176.444 55.6644 176.213C55.5744 175.983 55.3627 175.657 55.1992 175.495C55.0331 175.331 54.6782 174.684 54.4069 174.051C53.7883 172.609 52.1074 169.218 51.7512 168.696C51.6675 168.574 51.5065 168.14 51.3975 167.742C51.1782 166.946 50.7345 166.135 50.4024 165.926C50.2883 165.853 50.0538 165.361 49.8776 164.822C49.7001 164.282 49.4796 163.784 49.3819 163.704C49.1195 163.489 48.1358 162.168 47.8836 161.692C47.6427 161.237 45.489 158.991 45.2101 158.905C45.1213 158.877 44.9185 158.645 44.7575 158.387C44.5965 158.129 44.2454 157.771 43.9729 157.588C43.7041 157.407 43.4734 157.221 43.4671 157.178C43.4556 157.102 42.4073 156.233 42.202 156.13C42.1513 156.104 41.9674 155.959 41.8039 155.815C40.5477 154.71 40.0621 154.311 39.6413 154.04C39.3624 153.86 39.0227 153.602 38.8655 153.45C38.7095 153.298 38.3115 152.999 37.9591 152.768C37.608 152.538 37.1897 152.226 37.0058 152.057C36.656 151.735 35.2628 150.802 34.4731 150.36C34.217 150.216 33.8443 149.915 33.663 149.704C33.4779 149.489 32.9075 149.044 32.3941 148.714C31.8807 148.384 31.1784 147.863 30.8323 147.557C30.4825 147.246 29.9298 146.844 29.5888 146.649C29.2427 146.452 28.8219 146.177 28.6254 146.018C28.4352 145.864 28.1234 145.677 27.9396 145.607C27.757 145.536 27.5897 145.408 27.5745 145.326C27.558 145.239 27.4262 145.124 27.2614 145.053C27.1042 144.986 26.407 144.514 25.7123 144.008C25.0177 143.5 24.3775 143.073 24.2913 143.059C24.1975 143.043 24.1265 142.992 24.1138 142.932C24.0859 142.796 22.6535 141.718 22.3835 141.629C22.1236 141.544 21.2362 141.726 20.9535 141.923C20.6911 142.105 20.7748 142.458 21.2121 143.009C21.4048 143.253 21.9626 144.066 22.4456 144.806C22.9273 145.546 23.5446 146.487 23.8109 146.886C24.0745 147.283 24.484 148.006 24.7109 148.473C24.9391 148.944 25.3764 149.741 25.6781 150.236C25.9798 150.731 26.3474 151.398 26.4894 151.712C26.6326 152.025 26.9851 152.694 27.269 153.19C27.9548 154.388 28.7027 155.905 28.9296 156.557C29.0298 156.844 29.2706 157.332 29.4722 157.654C29.6737 157.976 29.8702 158.395 29.9121 158.596C29.9552 158.797 30.1288 159.143 30.305 159.377C30.4812 159.612 30.7474 159.969 30.9059 160.186C31.0618 160.399 31.2735 160.811 31.3736 161.097C31.4738 161.381 31.7704 161.952 32.0239 162.348C32.2787 162.745 32.5868 163.287 32.6996 163.536C32.9417 164.07 33.8557 165.417 34.0801 165.57C34.2259 165.669 34.4997 166.134 34.7355 166.679C34.9129 167.09 35.9689 168.396 36.4392 168.786C36.6864 168.992 36.8981 169.23 36.9158 169.323C36.9678 169.596 38.3977 171.551 39.0975 172.307C39.4473 172.685 39.7389 173.019 39.7389 173.044C39.7389 173.07 39.9886 173.357 40.3005 173.692C40.6136 174.028 40.8747 174.364 40.8912 174.451C40.9077 174.535 41.1105 174.766 41.3323 174.952C41.5542 175.137 41.8787 175.517 42.0372 175.774C42.1956 176.032 42.6025 176.459 42.922 176.7C43.2503 176.949 43.7206 177.402 43.9805 177.719C44.3861 178.215 45.5536 179.43 46.2648 180.094C47.2865 181.048 47.6478 181.335 48.2132 181.637C48.5605 181.822 48.9395 182.142 49.0422 182.336C49.2729 182.771 49.9549 183.458 50.5837 183.892C50.8473 184.073 51.1896 184.384 51.3367 184.575C51.4837 184.766 51.6738 184.92 51.755 184.913C51.8361 184.906 52.0972 185.116 52.3229 185.369C52.5549 185.629 53.1291 186.166 53.6159 186.577C53.801 186.733 53.9632 186.874 54.1052 187L56.0473 186.742C55.634 186.442 54.99 185.85 54.2231 185.054Z" fill="#D1B8C4"/>
<path opacity="0.55" d="M85.0424 87.6262C84.5036 88.215 83.288 90.2984 83.3336 90.5559C83.3488 90.6425 83.3019 90.8074 83.2296 90.9272C83.0395 91.2373 82.0431 94.0072 82.0697 94.15C82.0824 94.2162 81.9873 94.5136 81.8631 94.7957C81.7364 95.0855 81.5804 95.5613 81.5158 95.8612C81.4511 96.1611 81.3459 96.5418 81.28 96.7134C81.2141 96.885 81.0911 97.2674 81.0024 97.569C80.8351 98.1442 80.8287 98.1612 80.3229 99.3703C80.1505 99.7816 80.0212 100.189 80.0364 100.272C80.0516 100.354 79.9261 100.706 79.7588 101.048C79.2036 102.182 78.6357 103.952 78.7599 104.156C78.8309 104.27 78.6027 104.797 78.2389 105.36C77.8827 105.911 77.5151 106.553 77.42 106.789C77.3249 107.025 77.1145 107.494 76.951 107.836C76.7874 108.179 76.5669 108.65 76.4591 108.892C76.3526 109.127 76.2043 109.415 76.1358 109.519C75.8747 109.915 74.2078 113.307 74.1457 113.571C74.1102 113.721 74.0075 113.854 73.9213 113.861C73.8351 113.869 73.7464 114.064 73.7248 114.291C73.7033 114.52 73.6284 114.713 73.5612 114.719C73.4915 114.725 73.3052 115.018 73.1379 115.383C72.9705 115.749 72.6473 116.318 72.4026 116.674C72.1631 117.022 71.9298 117.444 71.8867 117.606C71.8436 117.766 71.5964 118.27 71.3441 118.71C71.0919 119.151 70.7788 119.789 70.6558 120.111C70.5303 120.439 70.3592 120.773 70.2704 120.863C69.8382 121.298 68.4323 123.984 68.1763 124.866C68.0584 125.272 67.8822 125.685 67.7807 125.794C67.4169 126.185 66.1772 129.711 66.1442 130.449C66.1341 130.683 66.0441 131.194 65.9427 131.598C65.7538 132.35 65.641 133.335 65.7272 133.484C65.7538 133.532 65.6968 133.991 65.5991 134.508C65.5015 135.027 65.4077 136.205 65.39 137.147C65.3722 138.087 65.3316 138.89 65.2999 138.943C65.2683 138.995 65.3012 139.611 65.3722 140.306C65.4432 141.001 65.4521 141.711 65.3912 141.877C65.3304 142.046 65.4001 143.014 65.5484 144.043C65.6967 145.072 65.7956 146.031 65.769 146.186C65.7424 146.34 65.7601 146.793 65.8058 147.185C65.8527 147.577 65.8438 147.972 65.7867 148.058C65.6942 148.196 65.7297 148.731 65.9388 150.377C65.9807 150.701 65.9465 151.203 65.8641 151.509C65.7804 151.817 65.7969 152.392 65.8996 152.814C65.9997 153.224 66.091 153.918 66.0973 154.336C66.1125 155.185 66.2431 156.033 66.6754 158.09C66.8326 158.835 66.9872 159.726 67.024 160.087C67.1457 161.31 67.1672 162.698 67.0645 162.756C67.0138 162.784 67.166 163.742 67.4017 164.887C67.8771 167.19 68.0001 169.475 67.6033 168.651C67.4841 168.402 67.3219 167.887 67.2484 167.52C67.1736 167.153 67.0405 166.853 66.9543 166.861C66.8655 166.869 66.7895 166.626 66.7793 166.31C66.7451 165.146 65.7525 161.415 65.3228 160.831C65.2543 160.738 65.1326 160.258 65.0553 159.778C64.9767 159.291 64.6421 158.121 64.3074 157.166C63.9727 156.21 63.5303 154.732 63.3199 153.865C63.1095 153 62.8382 152.145 62.714 151.959C62.5897 151.772 62.3324 151.052 62.1384 150.344C61.9432 149.637 61.6428 148.708 61.4653 148.263C61.2904 147.825 61.0482 147.139 60.9354 146.757C60.8201 146.371 60.5513 145.754 60.3371 145.382C60.1254 145.015 59.8998 144.495 59.8427 144.241C59.7844 143.984 59.6057 143.52 59.4434 143.206C59.2799 142.889 59.02 142.33 58.8565 141.948C58.4242 140.932 57.6776 139.56 57.5267 139.504C57.4557 139.478 57.329 139.203 57.2415 138.882C56.9461 137.809 56.4518 136.867 55.0307 134.667C53.9557 133.004 53.7238 132.621 53.5514 132.235C53.4538 132.016 53.2649 131.647 53.1381 131.433C52.0441 129.568 51.4927 128.75 51.2252 128.595C50.8829 128.398 51.0972 128.319 51.4597 128.508C51.6245 128.594 51.6904 128.482 51.7082 128.085C51.7209 127.789 51.6638 127.446 51.5814 127.326C51.4978 127.205 51.3089 126.664 51.1568 126.111C50.9565 125.381 50.765 125.012 50.4393 124.729C50.0602 124.399 49.9499 124.13 49.6888 122.908C49.5202 122.118 49.3808 121.1 49.3782 120.643C49.3744 120.185 49.2705 119.152 49.145 118.348C48.8775 116.627 48.7939 115.159 48.9536 114.98C49.0195 114.906 49.041 114.44 49.003 113.957C48.8902 112.54 48.9574 111.984 49.3732 110.903C49.5037 110.564 49.6216 110.041 49.6343 109.749C49.6609 109.126 49.8219 108.556 50.2377 107.627C50.3328 107.415 50.3987 107.157 50.3911 107.036C50.3835 106.924 50.4583 106.751 50.5496 106.672C50.6459 106.588 50.7042 106.421 50.6814 106.298C50.6586 106.174 50.7689 105.928 50.9311 105.745C51.0934 105.561 51.1618 105.326 51.0845 105.217C51.0059 105.106 51.0693 104.913 51.229 104.774C51.3837 104.64 51.5865 104.337 51.6765 104.102C51.7665 103.868 51.9098 103.597 51.9934 103.503C52.0758 103.411 52.1493 103.224 52.1531 103.1C52.1569 102.968 52.2469 102.746 52.361 102.59C52.4713 102.438 52.574 102.096 52.5892 101.834C52.6044 101.573 52.7591 101.155 52.9315 100.911C53.3143 100.369 53.8049 99.2854 53.6629 99.2981C53.6071 99.3032 53.6579 99.208 53.7757 99.0848C54.047 98.801 54.5718 97.7662 54.5376 97.5826C54.5224 97.5045 54.5743 97.4433 54.6618 97.4365C54.7429 97.4297 54.8304 97.258 54.8532 97.0635C54.876 96.8697 55.0561 96.4857 55.245 96.2325C55.4326 95.9784 55.5859 95.6972 55.5771 95.6216C55.5669 95.5434 55.61 95.4593 55.676 95.4321C55.7406 95.4049 55.932 95.0761 56.1032 94.6997C56.2743 94.3233 56.5189 93.8755 56.6495 93.7022C56.7814 93.5263 56.9335 93.1066 56.993 92.7506C57.0526 92.3946 57.1629 92.1082 57.2415 92.1014C57.3226 92.0946 57.3302 92.0258 57.2618 91.9408C57.1959 91.8601 57.2592 91.7488 57.4012 91.697C57.5445 91.6443 57.6421 91.5007 57.6193 91.3784C57.5952 91.2543 57.7764 90.9688 58.0287 90.7326C58.281 90.4964 58.4724 90.2628 58.461 90.2033C58.4496 90.1447 58.5839 89.8252 58.7627 89.4819C58.9427 89.1386 59.0745 88.809 59.0606 88.7376C59.0479 88.6671 59.2304 88.2083 59.4713 87.712C60.1279 86.3543 60.3042 85.9379 60.2775 85.7986C60.2636 85.7264 60.3485 85.4528 60.4613 85.2055C60.5742 84.9583 60.6743 84.6074 60.6806 84.4459C60.687 84.2811 60.7934 83.9217 60.9189 83.6506C61.0444 83.377 61.1978 82.914 61.2625 82.614C61.3271 82.3141 61.421 81.9343 61.4729 81.7644C61.5262 81.591 61.5718 81.2979 61.5782 81.0931C61.5946 80.5714 61.7036 80.0319 61.8228 79.884C61.876 79.8178 61.9546 79.4091 61.9939 78.9868C62.0332 78.5603 62.1207 77.697 62.1879 77.0691C62.2551 76.4412 62.2601 75.4267 62.2006 74.8158C62.141 74.21 62.1156 73.6662 62.1461 73.6203C62.2728 73.4249 62.2398 72.6279 62.0497 71.3194C61.9381 70.5479 61.8532 69.9098 61.8621 69.909C61.871 69.9081 61.696 68.7687 61.4729 67.3837C61.0939 65.0276 61.009 64.2986 60.9 62.4973C60.8011 60.8643 60.7326 59.9576 60.6375 59.0111C60.5818 58.4614 60.5083 57.7196 60.474 57.3611C60.095 53.4653 59.1912 47.9994 58.7741 47.092C58.3444 46.1548 58.0553 45.9509 57.4469 46.1573C56.8206 46.3698 56.3453 47.0385 56.3351 47.7182C56.3313 48.0266 56.1919 48.6019 56.022 49.0122C55.5378 50.1856 55.5264 50.2188 55.3971 50.7294C55.2538 51.2953 54.4894 53.5342 54.0217 54.7628C53.9418 54.9735 53.8683 55.163 53.8556 55.1953C53.8429 55.2284 53.8024 55.3355 53.7643 55.4408C53.6376 55.7858 53.3764 56.8436 53.242 57.5565C53.1673 57.9592 53.0139 58.3696 52.8985 58.4801C52.7844 58.5897 52.5423 59.1725 52.3585 59.7767C52.176 60.3808 51.8869 61.2602 51.7158 61.7326C51.5472 62.1999 51.3495 62.8457 51.2835 63.1498C51.2151 63.4617 51.0705 63.8797 50.9565 64.0947C50.8424 64.3079 50.7676 64.5671 50.7879 64.675C50.8081 64.7829 50.5787 65.6496 50.2732 66.6148C49.8143 68.0686 49.6445 68.9081 49.5849 70.0126C49.5811 70.0908 49.5139 70.2225 49.4289 70.3202C49.2806 70.491 49.0702 71.3585 49.0651 71.8224C49.0639 71.9583 49.017 72.1274 48.9561 72.2167C48.7799 72.475 48.0713 74.8617 48.0206 75.3638C47.994 75.6247 47.8875 76.0886 47.7861 76.38C47.6859 76.6715 47.6188 77.0105 47.639 77.1226C47.6606 77.2365 47.568 77.5874 47.4324 77.9043C47.2955 78.2255 47.1738 78.7863 47.1573 79.1729C47.1408 79.5586 47.0686 79.9682 46.995 80.0982C46.9215 80.2256 46.7428 80.7703 46.5983 81.3039C46.4538 81.8366 46.2472 82.5248 46.1419 82.8256C45.9404 83.3974 45.8859 83.756 45.9226 84.2819C45.934 84.4391 45.8415 84.6745 45.7223 84.7909C45.5994 84.9115 45.446 85.2675 45.375 85.5904C45.3053 85.9133 45.1924 86.3109 45.1214 86.4834C45.0517 86.655 44.9757 87.0331 44.9529 87.3297C44.93 87.6245 44.8109 88.1794 44.6879 88.5634C44.5662 88.9474 44.4521 89.4131 44.4357 89.5975C44.4192 89.7827 44.3114 90.2364 44.1935 90.6086C43.8234 91.7837 43.6434 92.6002 43.6599 93.042C43.6687 93.2791 43.6155 93.5773 43.5432 93.7082C43.471 93.8373 43.4152 94.1942 43.4203 94.4882C43.4254 94.7923 43.3531 95.286 43.2555 95.6114C42.9056 96.7729 42.7243 97.9871 42.8232 98.5113C42.8777 98.801 42.86 99.1605 42.7826 99.2956C42.5506 99.7042 42.3985 101.569 42.5266 102.453C42.5912 102.9 42.6254 103.568 42.6026 103.929C42.5621 104.563 42.6508 105.26 42.9221 106.46C43.0362 106.964 43.1325 107.438 43.5217 109.431C43.566 109.66 43.6928 110.419 43.8044 111.133C43.9159 111.848 44.1035 112.655 44.2227 112.942C44.3419 113.228 44.5612 113.96 44.7095 114.57C45.0644 116.025 45.4257 117.203 46.0431 118.916C46.2345 119.446 45.9429 119.434 45.6906 118.901C45.5829 118.672 45.4054 118.421 45.3066 118.356C45.2001 118.286 45.1291 118.193 45.1379 118.133C45.1455 118.075 45.0872 117.956 45.0048 117.861C44.8058 117.634 44.0934 116.455 43.7854 115.848C43.3582 115.002 42.9918 114.42 42.6685 114.076C42.5025 113.897 42.1526 113.338 41.8966 112.839C41.6405 112.34 41.2653 111.709 41.0663 111.444C40.8672 111.178 40.6302 110.77 40.5402 110.538C40.4502 110.308 40.2841 110.057 40.1738 109.987C40.0661 109.917 39.99 109.748 40.0116 109.622C40.0331 109.495 39.933 109.296 39.7961 109.192C39.4538 108.934 39.0481 108.328 38.8326 107.757C38.7375 107.505 38.4143 106.87 38.1177 106.352C37.821 105.834 37.5396 105.217 37.4953 104.985C37.4509 104.751 37.3102 104.409 37.1821 104.219C36.6485 103.439 36.187 102.608 36.1085 102.285C36.0616 102.096 35.936 101.896 35.8169 101.823C35.6965 101.749 35.6115 101.625 35.6191 101.534C35.6369 101.297 35.1324 100.149 34.87 99.8325C34.657 99.5751 34.3109 98.5903 34.1664 97.8324C34.1309 97.6429 33.9737 97.3719 33.8051 97.2071C33.5034 96.9114 33.1497 95.0217 33.2613 94.2995C33.3538 93.703 32.7479 90.1659 32.5172 89.9484C32.3613 89.8022 32.3397 89.5677 32.4462 89.1505C32.5286 88.8268 32.559 88.3467 32.5147 88.0867C32.4703 87.8301 32.4918 87.5557 32.5616 87.4886C32.6325 87.4198 32.6351 86.8369 32.5679 86.186C32.5007 85.5352 32.4842 84.6294 32.5312 84.163C32.5781 83.6999 32.5603 82.9216 32.4918 82.4407C32.4234 81.9598 32.4373 81.2622 32.521 80.8986C32.6059 80.5289 32.6199 80.0259 32.5514 79.7643C32.4842 79.5068 32.5349 78.9851 32.663 78.6113C32.791 78.2383 32.8886 77.7199 32.8785 77.4667C32.8544 76.8694 32.9951 75.182 33.151 74.1836C33.2169 73.7588 33.2512 73.0621 33.2246 72.6551C33.1979 72.2387 33.2043 71.8615 33.241 71.8046C33.2765 71.7485 33.3653 71.1716 33.4362 70.5199C33.5072 69.8682 33.6162 68.959 33.6771 68.496C33.7379 68.038 33.7988 67.2826 33.8102 66.8374C33.8229 66.3837 33.9129 65.8476 34.013 65.6317C34.1119 65.4168 34.1804 64.9775 34.1652 64.6512C34.1499 64.3241 34.155 63.9511 34.1765 63.8185C34.1981 63.6851 34.2234 63.3393 34.2323 63.0445C34.2425 62.7497 34.2906 62.3486 34.3413 62.1464C34.392 61.9442 34.4123 61.4386 34.3883 61.0104C34.3629 60.5822 34.3857 60.0792 34.4389 59.8803C34.5302 59.5371 34.4668 58.2711 34.278 56.6796C34.2311 56.2888 34.2526 55.5955 34.3261 55.1248C34.4605 54.2572 34.4428 53.8587 34.1487 51.1101C33.8229 48.0708 32.6034 42.6023 32.1572 42.1792C32.0418 42.0704 31.7173 41.3958 31.4308 40.6736C31.1443 39.9505 30.8097 39.2164 30.6816 39.0337C30.5536 38.8511 30.3558 38.416 30.2405 38.0643C30.0085 37.3599 29.7676 36.924 29.5166 36.7566C29.4254 36.6963 29.253 36.3488 29.1338 35.986C29.0134 35.6223 28.7294 35.1431 28.5013 34.9197C28.2744 34.697 27.9473 34.2824 27.7787 34.002C27.6101 33.7216 27.3262 33.375 27.1525 33.2348C26.9788 33.0954 26.7836 32.7734 26.724 32.5295C26.6644 32.2857 26.5491 32.086 26.473 32.0928C26.3881 32.0996 26.3602 32.0597 26.4033 31.9908C26.4439 31.9263 26.3704 31.8591 26.2309 31.8354C25.9748 31.792 25.6313 31.1225 25.3486 30.1165C25.2611 29.8072 25.0811 29.5209 24.9493 29.4826C24.8124 29.4427 24.5791 29.0221 24.4093 28.5047C24.2458 28.0093 23.9238 27.316 23.6981 26.9803C23.4687 26.6379 23.2481 26.2624 23.1999 26.1341C23.1505 26.0024 23.0529 25.8316 22.9718 25.7348C22.8932 25.6413 22.7461 25.3354 22.6434 25.0499C22.4038 24.3897 21.4721 22.3879 20.652 20.771C20.2996 20.0768 19.8711 19.0725 19.6974 18.5321C18.8493 15.899 18.4196 14.6066 18.2383 14.1512C18.1306 13.881 17.7541 12.2794 17.4017 10.6005C16.7463 7.47539 16.2976 5.67409 15.9173 4.64854C15.7994 4.32992 15.6599 3.82693 15.6105 3.53719C15.5598 3.24746 15.4153 2.84469 15.2898 2.64757C15.1529 2.4326 15.1199 2.25589 15.2061 2.20746C15.286 2.16328 15.2581 1.85738 15.1453 1.52771C15.0324 1.19804 14.8727 0.720526 14.7916 0.465626C14.6661 0.0688313 14.5824 0.00255376 14.2047 4.75963e-06C13.9676 -0.000844908 13.6076 0.112182 13.4238 0.24473C13.1044 0.47499 12.9903 1.0485 12.7646 3.54653C12.6683 4.60776 12.6607 4.75391 12.6569 5.63841C12.6505 6.77102 12.5453 7.86028 12.4135 8.16021C12.2816 8.461 12.2246 8.91217 12.2018 9.83066C12.1916 10.2275 12.0991 10.7509 11.9939 11.0083C11.8874 11.2666 11.8405 11.4688 11.8861 11.4646C11.9318 11.4603 11.9128 11.6099 11.843 11.7968C11.6719 12.2582 11.3677 13.8521 11.3563 14.3509C11.3512 14.5829 11.2802 15.0587 11.1991 15.4172C11.1167 15.7749 11.1065 16.1352 11.1737 16.2227C11.2396 16.3077 11.2269 16.3876 11.1471 16.3944C10.9912 16.4079 10.7617 17.3103 10.6337 18.4072C10.5881 18.8074 10.5019 19.448 10.4423 19.8499C10.3827 20.251 10.3282 20.7183 10.3206 20.9018C10.313 21.0862 10.261 21.4048 10.204 21.6249C10.1482 21.839 10.0772 22.3998 10.048 22.8552C10.0189 23.3106 9.92889 23.9292 9.84903 24.213C9.76917 24.4976 9.76155 25.0414 9.83127 25.4085C9.90099 25.7764 9.89971 26.1392 9.82872 26.2072C9.72223 26.3083 9.56633 27.1121 9.41041 28.3704C9.38506 28.5743 9.3559 29.0255 9.34449 29.3892C9.33308 29.7528 9.28365 30.2558 9.23168 30.5252C8.98322 31.8141 8.73727 33.6842 8.78544 33.9136C8.81586 34.0581 8.76898 34.2076 8.67898 34.2569C8.59024 34.3053 8.56616 34.5951 8.62447 34.9069C8.68405 35.2187 8.69038 35.624 8.63967 35.8169C8.44572 36.5544 8.18459 39.5002 8.12121 41.6787C8.1098 42.0755 8.0895 42.5531 8.07556 42.7527C8.06161 42.9482 8.03246 43.4639 8.01091 43.8845C7.98936 44.3051 7.95643 44.8242 7.93741 45.023C7.87656 45.6781 7.97291 47.691 8.16686 49.8135C8.21756 50.3641 8.26066 51.1075 8.26446 51.4695C8.26826 51.8314 8.30374 52.3608 8.34431 52.6514C8.38487 52.9419 8.40137 53.3659 8.37982 53.5987C8.35827 53.8298 8.33419 54.2368 8.32531 54.4977C8.29869 55.2921 9.41803 60.7657 9.75142 61.4735C9.92636 61.8431 10.081 62.4191 10.1013 62.7734C10.1216 63.1227 10.1926 63.4387 10.2585 63.4736C10.3257 63.5084 10.4131 63.6529 10.455 63.7965C10.4955 63.9392 10.7415 64.4906 11.0013 65.0234C11.4184 65.879 12.1346 67.4169 12.5656 68.388C12.648 68.5733 12.8065 68.7755 12.932 68.8545C13.0575 68.9344 13.1094 69.0559 13.0536 69.1383C12.9979 69.2199 13.0562 69.3873 13.188 69.5232C13.5138 69.858 14.2782 70.9693 14.2554 71.0739C14.2351 71.1622 14.7016 71.7825 15.286 72.4461C15.447 72.6296 15.6625 72.9686 15.7766 73.2193C15.9059 73.5022 16.219 73.7886 16.6335 74.001C17.1152 74.2474 17.3472 74.4725 17.5132 74.854C17.6362 75.1378 17.8593 75.4267 18.0051 75.4913C18.1547 75.5576 18.2954 75.7326 18.3258 75.8881C18.355 76.0444 18.4652 76.2483 18.5768 76.3537C19.094 76.8414 19.5022 77.3724 19.5491 77.618C19.577 77.7624 19.7468 77.9689 19.9218 78.0675C20.1018 78.1694 20.3008 78.4141 20.3731 78.6231C20.4466 78.8339 20.6913 79.1567 20.9346 79.3624C21.178 79.568 21.3834 79.8178 21.4062 79.9333C21.4278 80.048 21.6686 80.3522 21.95 80.6224C22.2327 80.8926 22.4343 81.1721 22.4076 81.2571C22.3823 81.3387 22.452 81.4007 22.5598 81.3914C22.6675 81.382 22.741 81.444 22.7195 81.5248C22.6979 81.608 22.9794 81.9666 23.3533 82.3311C23.7273 82.6956 24.2255 83.287 24.4752 83.6617C24.7249 84.0364 25.1597 84.5683 25.4538 84.8571C25.7505 85.1486 26.0002 85.4689 26.0217 85.5845C26.0433 85.6949 26.2601 85.977 26.492 86.1954C26.724 86.4137 26.937 86.6695 26.9522 86.7502C26.9674 86.8335 27.1094 87.0255 27.2716 87.1819C27.8852 87.7749 28.211 88.5507 28.9285 91.1268C29.1072 91.7683 29.3404 92.5211 29.452 92.8083C29.5623 93.0964 29.8729 93.9214 30.1467 94.6564C30.9073 96.6973 30.9706 96.8647 31.195 97.4195C31.3104 97.7041 31.479 97.9803 31.5741 98.038C31.6691 98.0958 31.7731 98.321 31.8073 98.5444C31.91 99.2148 32.4576 100.635 32.6325 100.688C32.7213 100.715 32.8227 100.892 32.8595 101.082C32.9558 101.59 33.8508 103.34 35.9779 107.177C36.4266 107.988 36.8564 108.802 36.9337 108.992C37.0123 109.184 37.2468 109.611 37.4623 109.955C37.6778 110.298 38.0264 110.874 38.2482 111.251C38.4701 111.628 38.7464 112.02 38.8707 112.132C38.9974 112.246 39.1356 112.417 39.1901 112.524C39.2434 112.629 39.4842 113.087 39.7314 113.553C39.9786 114.019 40.2689 114.48 40.383 114.59C40.492 114.693 40.6061 114.877 40.6251 114.976C40.6454 115.082 40.8558 115.364 41.1005 115.614C41.3464 115.865 41.5695 116.221 41.6075 116.42C41.6658 116.725 41.8585 117.066 42.3542 117.738C42.4252 117.834 42.4734 117.953 42.4645 118.011C42.4505 118.102 43.5179 119.688 43.9134 120.163C44.0148 120.287 44.3254 120.869 44.6068 121.468C44.8882 122.067 45.1886 122.599 45.2799 122.656C45.3699 122.714 45.5309 122.969 45.6387 123.22C46.0329 124.148 47.0369 126.08 47.2156 126.255C47.4324 126.466 48.4009 128.01 48.9206 128.973C48.946 129.02 49.1031 129.195 49.2692 129.362C49.4353 129.528 49.666 129.843 49.7814 130.059C49.8967 130.276 50.0666 130.53 50.1579 130.622C50.4887 130.952 51.049 131.938 51.5941 133.148C51.731 133.452 52.3991 134.506 53.147 135.597C53.3371 135.875 53.5095 136.191 53.5311 136.305C53.5526 136.417 53.6604 136.598 53.7669 136.699C54.028 136.947 54.7138 138.248 55.1942 139.407C55.4034 139.91 55.6455 140.373 55.7305 140.43C55.8167 140.489 55.9967 140.843 56.1348 141.228C56.2717 141.61 56.6166 142.325 56.9005 142.821C57.1845 143.317 57.5939 144.217 57.8107 144.821C58.0274 145.425 58.3976 146.297 58.6334 146.76C58.8717 147.226 59.0352 147.676 59.0023 147.77C58.9693 147.861 59.039 148.066 59.1544 148.215C59.2773 148.375 59.304 148.496 59.2178 148.504C59.1367 148.511 58.9326 148.325 58.7754 148.1C58.5003 147.71 58.3355 147.515 57.2415 146.296C56.9956 146.022 56.7142 145.677 56.6102 145.523C56.5101 145.375 56.2413 145.113 56.0309 144.962C55.8217 144.81 55.6214 144.606 55.6011 144.523C55.5809 144.439 55.3755 144.22 55.1562 144.046C54.9268 143.865 54.6137 143.577 54.4413 143.388C54.2676 143.2 53.9545 142.968 53.725 142.861C53.5045 142.757 53.0912 142.439 52.825 142.167C52.5588 141.895 52.181 141.578 52.001 141.473C51.8134 141.364 51.5941 141.157 51.4965 140.996C51.4027 140.84 51.106 140.559 50.8436 140.378C50.3138 140.012 48.9865 138.793 47.9433 137.716C47.568 137.329 47.0901 136.888 46.8734 136.732C46.6591 136.577 46.3435 136.205 46.1787 135.914C46.0126 135.622 45.8034 135.385 45.7172 135.393C45.6272 135.4 45.5474 135.339 45.5297 135.25C45.5132 135.163 45.3104 134.969 45.0657 134.808C44.8223 134.648 44.6081 134.398 44.5776 134.239C44.5485 134.083 44.4559 133.96 44.3735 133.968C44.2899 133.975 44.2011 133.858 44.172 133.702C44.1428 133.546 43.9895 133.367 43.8247 133.296C43.6586 133.224 43.5508 133.102 43.5775 133.017C43.6041 132.932 43.509 132.779 43.3594 132.668C43.2111 132.557 43.007 132.308 42.8968 132.102C42.7877 131.896 42.5862 131.674 42.4417 131.597C42.0246 131.378 41.032 130.234 40.9686 129.901C40.9103 129.591 40.4907 128.844 40.151 128.442C39.8835 128.125 39.2712 126.988 39.3017 126.861C39.3156 126.804 39.1711 126.595 38.9797 126.397C38.7895 126.199 38.5487 125.811 38.446 125.537C38.3433 125.262 38.1012 124.872 37.9111 124.671C37.7222 124.472 37.5726 124.133 37.584 123.929C37.6018 123.601 37.494 123.292 36.8766 121.895C36.3315 120.662 35.5342 119.032 35.3402 118.755C35.1387 118.466 34.7381 117.595 34.6684 117.295C34.657 117.246 34.3452 116.807 33.9737 116.319C33.6023 115.829 33.3374 115.397 33.3855 115.355C33.4362 115.311 33.3893 115.287 33.2727 115.296C33.1624 115.306 33.0395 115.135 32.9976 114.912C32.9558 114.69 32.8341 114.486 32.7251 114.454C32.6173 114.424 32.5616 114.351 32.6021 114.295C32.6427 114.239 32.4551 113.917 32.1914 113.589C31.5196 112.752 30.9668 112.165 29.4571 110.686C29.1503 110.385 28.5507 109.768 28.1096 109.295C27.6684 108.824 27.2362 108.423 27.1373 108.393C27.0422 108.365 26.9357 108.223 26.9103 108.09C26.885 107.956 26.7341 107.763 26.5871 107.676C26.435 107.586 25.8126 107.051 25.1952 106.481C24.5791 105.911 23.9009 105.305 23.6804 105.128C23.4649 104.953 23.2177 104.727 23.1429 104.636C22.878 104.311 21.7852 103.371 20.3198 102.205C19.7937 101.786 19.2221 101.249 19.0395 101.001C18.8595 100.756 18.554 100.46 18.3664 100.345C17.6502 99.9107 16.1011 98.6022 15.5915 98.0006C15.4482 97.8316 15.2721 97.6999 15.1998 97.7058C15.1275 97.7118 14.7523 97.4212 14.3783 97.0686C14.0044 96.716 13.4251 96.2826 13.1094 96.1186C12.7912 95.953 12.5187 95.7669 12.5073 95.7057C12.487 95.5995 10.8898 94.2995 10.6312 94.178C10.3536 94.048 9.38885 93.3249 9.3711 93.2332C9.36096 93.1788 9.12898 93.0242 8.86784 92.8967C8.60797 92.7693 8.37092 92.5883 8.35444 92.5042C8.33796 92.4149 8.25052 92.3546 8.15038 92.3631C8.05657 92.3708 7.96277 92.3113 7.94882 92.2331C7.93361 92.1549 7.64583 91.9366 7.32765 91.7599C7.0082 91.5831 6.72681 91.3954 6.7192 91.3529C6.71033 91.3095 6.30721 91.0317 5.80649 90.7233C5.3045 90.4148 4.8963 90.1277 4.88109 90.0716C4.86588 90.0181 4.55025 89.7657 4.19531 89.5244C3.82642 89.2737 3.22044 88.8548 2.8186 88.5719C1.56869 87.6934 1.48505 87.6653 0.920948 87.9261C0.366984 88.1819 0.36063 88.5099 0.896847 89.1318C1.08826 89.3544 1.29235 89.7997 1.35574 90.1344C1.42039 90.4794 1.65997 90.9442 1.9173 91.2246C2.16703 91.4973 2.33437 91.7955 2.29634 91.9C2.22282 92.1031 3.61596 95.1721 4.04316 95.7465C4.17499 95.9241 4.31445 96.2775 4.34614 96.5129C4.37783 96.7559 4.58954 97.2394 4.82279 97.6047C5.05604 97.9692 5.29687 98.4348 5.36659 98.6566C5.52125 99.1494 6.29073 100.593 6.75723 101.266C6.94991 101.544 7.13876 101.942 7.17933 102.158C7.21862 102.37 7.39737 102.717 7.56851 102.918C7.73964 103.118 7.9843 103.516 8.10473 103.789C8.22769 104.067 8.537 104.589 8.79941 104.963C9.06308 105.337 9.33183 105.762 9.40662 105.919C9.8579 106.876 10.2027 107.53 10.5082 108.01C10.6971 108.307 11.0064 108.878 11.1838 109.26C11.3613 109.641 11.5819 110.013 11.6656 110.074C11.8189 110.184 12.0712 110.571 12.8014 111.81C13.0359 112.209 13.3059 112.566 13.3934 112.592C13.4821 112.618 13.652 112.938 13.7724 113.301C13.8928 113.664 14.1996 114.183 14.4557 114.454C14.713 114.727 14.9539 115.121 14.9944 115.336C15.035 115.551 15.4039 116.229 15.8108 116.84C16.2177 117.451 16.5726 118.055 16.5955 118.177C16.6196 118.301 16.92 118.665 17.2737 118.996C17.6273 119.328 17.9202 119.707 17.9328 119.852C17.962 120.195 18.7467 121.423 19.4122 122.17C19.7025 122.497 19.9636 122.859 19.9839 122.965C20.0042 123.072 20.5353 123.773 21.1654 124.522C21.7954 125.272 22.3253 125.97 22.343 126.075C22.3836 126.306 23.7032 127.759 24.0911 127.997C24.2521 128.097 24.3193 128.182 24.2407 128.189C24.1646 128.195 24.2432 128.285 24.4131 128.383C24.5893 128.486 24.8124 128.717 24.924 128.912C25.1002 129.218 26.1193 130.338 26.5782 130.729C26.6834 130.819 26.8939 131.053 27.0409 131.245C27.188 131.436 27.4618 131.686 27.6431 131.794C27.8281 131.904 28.3061 132.314 28.7218 132.721C29.1376 133.127 29.7626 133.622 30.1328 133.84C30.5029 134.057 30.8097 134.294 30.8249 134.375C30.8401 134.453 30.925 134.516 31.0112 134.512C31.0987 134.507 31.2749 134.643 31.4029 134.812C31.716 135.227 34.6608 137.25 35.1235 137.368C35.3364 137.423 35.5088 137.533 35.5266 137.625C35.5431 137.712 35.8245 137.902 36.1363 138.037C36.4495 138.172 36.722 138.323 36.7309 138.366C36.7385 138.408 37.5688 138.866 38.5601 139.376C39.5514 139.886 40.8596 140.603 41.444 140.959C42.0309 141.317 42.5722 141.605 42.6457 141.598C42.7192 141.592 43.4684 141.932 44.3076 142.351C45.1468 142.77 45.9416 143.105 46.0697 143.095C46.1977 143.084 46.4639 143.209 46.6629 143.373C46.8581 143.534 47.2727 143.784 47.5681 143.918C47.8672 144.054 48.9384 144.554 49.9386 145.024C50.94 145.494 52.1138 146.013 52.5372 146.173C52.9733 146.337 53.4284 146.62 53.5805 146.825C53.7314 147.027 53.9152 147.151 53.9976 147.106C54.0787 147.061 54.1573 147.104 54.1763 147.204C54.1953 147.304 54.3158 147.416 54.4527 147.458C54.5858 147.5 54.8608 147.706 55.0624 147.915C55.2652 148.125 55.9941 148.73 56.685 149.26C57.3759 149.79 57.9552 150.304 57.9729 150.401C57.9919 150.501 58.3317 150.858 58.7424 151.208C59.1519 151.558 59.4865 151.864 59.4992 151.902C59.5106 151.938 59.7996 152.204 60.1533 152.503C60.7453 153.003 60.8188 153.147 61.2853 154.738C61.5604 155.677 61.9508 156.876 62.1549 157.415C62.359 157.953 62.6632 158.939 62.8331 159.615C63.003 160.291 63.2806 161.173 63.453 161.583C63.7699 162.337 64.1375 163.698 64.8778 166.861C65.1035 167.826 65.428 168.87 65.5991 169.182C65.7703 169.496 65.9236 169.83 65.9401 169.928C66.0808 170.742 66.4383 172.429 66.5702 172.897C66.6602 173.22 66.939 174.241 67.1888 175.171C67.4385 176.1 67.7465 176.982 67.8733 177.133C68.2003 177.524 68.298 177.843 68.142 178.016C68.0634 178.102 68.1661 178.608 68.3918 179.245C68.601 179.838 68.8836 180.666 69.0167 181.076C69.1486 181.484 69.3387 182.035 69.4312 182.286C69.5263 182.541 69.719 183.32 69.8635 184.032C69.9155 184.285 69.9928 184.585 70.0778 184.89L71.9159 184.646C71.9197 184.56 71.9501 184.505 72.0122 184.5C72.2214 184.482 71.4899 181.681 70.9055 180.259C70.7484 179.877 70.5988 179.467 70.5696 179.338C70.5404 179.209 70.3389 178.44 70.1183 177.622C69.8356 176.571 69.7684 176.089 69.8863 175.967C70.2197 175.623 70.2996 174.913 70.1868 173.293C70.1627 172.956 70.1766 172.625 70.2159 172.566C70.2552 172.506 70.2438 172.026 70.1906 171.499C70.1373 170.971 70.1437 170.306 70.2058 170.02C70.2679 169.734 70.2882 169.21 70.2501 168.85C70.1639 168.031 70.2248 165.887 70.3478 165.367C70.3997 165.148 70.42 164.826 70.3947 164.639C70.3693 164.456 70.4264 164.054 70.5214 163.751C70.6165 163.449 70.6951 163.058 70.6951 162.888C70.6951 162.715 70.8054 162.25 70.9448 161.842C71.083 161.434 71.2009 160.947 71.2085 160.744C71.2313 160.165 71.3771 159.331 71.5381 158.872C71.803 158.114 71.9285 157.583 71.8905 157.381C71.8689 157.27 71.926 157.175 72.0185 157.166C72.1187 157.158 72.1668 157.118 72.1415 157.065C72.0781 156.938 72.2429 156.31 72.4343 155.954C72.5294 155.776 72.6004 155.589 72.5928 155.533C72.5788 155.434 73.0466 154.374 73.4675 153.546C73.6056 153.274 73.7134 153.009 73.7032 152.96C73.6779 152.829 74.7922 150.683 75.4602 149.573C75.7911 149.024 76.1536 148.361 76.2626 148.107C76.3742 147.849 76.5314 147.637 76.6201 147.63C76.7063 147.622 76.7583 147.516 76.7355 147.394C76.7127 147.271 76.7938 147.081 76.9167 146.97C77.0422 146.858 77.1297 146.71 77.1145 146.631C77.1005 146.556 77.2019 146.341 77.3376 146.16C77.4732 145.979 77.6609 145.713 77.7509 145.576C77.8409 145.437 78.1058 145.042 78.3441 144.694C78.5812 144.346 78.8296 143.978 78.8981 143.872C78.9665 143.765 79.1998 143.291 79.4203 142.809C80.1746 141.16 80.3077 140.901 80.4408 140.828C80.5181 140.786 80.5967 140.581 80.6183 140.364C80.6715 139.862 81.1 138.543 81.2622 138.385C81.3282 138.321 81.3763 138.189 81.3611 138.111C81.3459 138.029 81.4803 137.665 81.6565 137.311C81.834 136.956 82.0165 136.467 82.0596 136.235C82.2637 135.131 82.3131 134.939 82.4982 134.511C82.6098 134.253 82.6871 134.029 82.6706 134.016C82.6541 134.001 82.7213 133.853 82.8253 133.674C82.9305 133.496 82.9812 133.299 82.9419 133.223C82.9051 133.15 82.9723 132.903 83.0851 132.69C83.1992 132.477 83.3057 132.15 83.3146 131.986C83.3564 131.257 83.4147 130.947 83.5339 130.812C83.6061 130.731 83.7393 130.251 83.8331 129.734C83.9281 129.217 84.0498 128.736 84.1094 128.652C84.1715 128.565 84.2197 128.428 84.2248 128.326C84.2298 128.228 84.2691 127.881 84.3135 127.549C84.3579 127.216 84.3984 126.854 84.4048 126.737C84.4111 126.623 84.4618 126.487 84.5176 126.439C84.5746 126.39 84.5886 126.167 84.548 125.933C84.5087 125.703 84.5163 125.295 84.5632 125.031C84.6101 124.767 84.6532 124.367 84.657 124.146C84.6621 123.926 84.7483 123.351 84.8484 122.879C84.9486 122.406 85.0665 121.581 85.1109 121.057C85.1552 120.533 85.2186 119.964 85.2528 119.8C85.2871 119.634 85.3656 118.817 85.4303 117.974C85.4949 117.131 85.5812 116.353 85.6243 116.237C85.7358 115.934 85.8549 114.225 85.8232 113.391C85.808 112.996 85.8702 112.54 85.964 112.366C86.0578 112.191 86.1212 111.736 86.106 111.34C86.0793 110.643 86.1947 109.578 86.4355 108.29C86.504 107.925 86.5636 107.192 86.5661 106.672C86.5686 106.151 86.6003 105.449 86.6358 105.121C86.6713 104.792 86.6789 104.235 86.6548 103.885C86.6308 103.536 86.6663 103.064 86.7347 102.837C86.8045 102.608 86.8196 102.094 86.7689 101.68C86.7182 101.265 86.7094 100.887 86.7474 100.827C86.8665 100.641 86.9439 99.9158 86.9515 98.9192C86.9528 98.7152 86.973 98.451 86.9971 98.315C87.2291 96.9938 87.2823 96.4407 87.2139 96.0439C87.1695 95.7873 87.1733 95.3828 87.2215 95.1492C87.2696 94.9172 87.2811 94.3462 87.2456 93.8968C87.2113 93.4473 87.2139 92.8712 87.2519 92.6342C87.2899 92.3912 87.2545 92.0054 87.1708 91.7641C87.0884 91.5262 87.077 90.9969 87.1429 90.595C87.3267 89.493 87.0237 87.3645 86.6548 87.1734C86.13 86.8879 85.5697 87.0493 85.0424 87.6262ZM45.6108 94.8407C45.6577 94.4856 45.9074 94.0038 46.0152 94.0591C46.0659 94.0854 46.0507 94.3046 45.9809 94.5374C45.8364 95.026 45.5563 95.2545 45.6108 94.8407ZM45.7781 95.2121C45.8681 95.2044 45.9328 95.235 45.9404 95.2885C45.9645 95.4559 45.6906 95.7567 45.5715 95.6938C45.4143 95.6105 45.5778 95.229 45.7781 95.2121ZM47.3918 101.549C47.3779 101.256 47.4235 100.907 47.492 100.788C47.5617 100.668 47.5909 100.315 47.5566 100.013C47.5224 99.7102 47.5566 99.4239 47.6314 99.3839C47.7138 99.3397 47.7214 99.2709 47.6492 99.2123C47.5833 99.1588 47.62 98.9489 47.7303 98.7467C47.9826 98.2836 48.2703 97.3728 48.2348 97.1527C48.2184 97.0541 48.3451 96.6794 48.5188 96.3132C48.6925 95.9479 48.8471 95.5103 48.8648 95.3327C48.8826 95.1611 48.9447 94.8696 48.9992 94.7048C49.055 94.5349 49.1881 93.9359 49.2958 93.3725C49.4023 92.8083 49.6609 92.0139 49.8688 91.6035C50.1832 90.985 50.367 90.3842 50.5407 89.4071C50.5534 89.3375 50.6865 89.0324 50.8386 88.7257C50.9907 88.4181 51.12 87.9822 51.1289 87.7503C51.1606 86.887 51.2176 86.4962 51.3241 86.4307C51.5358 86.3008 52.0226 84.5538 51.8565 84.5173C51.8172 84.5088 51.9351 84.3643 52.124 84.1902C52.3091 84.0194 52.4219 83.7517 52.375 83.5971C52.3281 83.445 52.3813 83.1153 52.4929 82.88C52.6057 82.6387 52.7363 82.2028 52.7857 81.9045C52.9632 80.8144 53.0912 80.3769 53.398 79.8042C53.5691 79.4839 53.6845 79.1797 53.6553 79.1261C53.5653 78.9639 53.668 77.8533 53.7846 77.7233C53.8493 77.6511 53.9114 77.4124 53.9177 77.2085C53.9241 77.0037 54.0381 76.6936 54.1624 76.5372C54.2879 76.3792 54.3715 76.1234 54.3437 75.9781C54.3158 75.8328 54.3449 75.6128 54.4057 75.4972C54.8076 74.7376 55.0789 73.5948 55.0472 72.7936C55.0434 72.6916 55.0776 72.5599 55.127 72.4928C55.1752 72.4257 55.2475 72.0527 55.2893 71.6525C55.3312 71.2531 55.4325 70.683 55.52 70.3712C55.6062 70.0585 55.6011 69.5971 55.5086 69.3312C55.4173 69.0678 55.4021 68.8477 55.4756 68.8418C55.6582 68.8265 55.4414 67.6811 55.245 67.6216C55.0142 67.552 54.9711 67.8774 55.07 68.9675C55.0827 69.1137 55.0282 69.2309 54.9432 69.2386C54.8608 69.2454 54.8482 69.3201 54.9154 69.4051C54.9825 69.4901 54.9863 69.6116 54.9242 69.6761C54.8621 69.7407 54.6847 70.2854 54.5287 70.8869C54.3728 71.4885 54.1383 72.1759 54.0077 72.4138C53.8771 72.65 53.7808 73.0723 53.7947 73.3433C53.8087 73.6135 53.6515 74.0596 53.4487 74.3238C53.2433 74.5915 52.9999 75.1089 52.9074 75.4794C52.8148 75.849 52.6678 76.3163 52.5803 76.5202C52.4941 76.7225 52.323 77.1141 52.2038 77.3843C52.0847 77.6545 52.0086 77.9222 52.0378 77.9757C52.0682 78.0326 52.0352 78.1346 51.9579 78.2204C51.8844 78.302 51.7462 78.6631 51.6473 79.0335C51.5485 79.404 51.3811 79.7872 51.2709 79.8976C51.1618 80.0072 51.0439 80.2452 51.0084 80.4295C50.9742 80.6139 50.883 80.7966 50.8069 80.8374C50.7321 80.8773 50.6915 81.0337 50.7194 81.179C50.7473 81.3242 50.7169 81.4925 50.6535 81.5469C50.5838 81.6072 50.5394 81.6785 50.5445 81.7261C50.5483 81.7695 50.4253 82.0303 50.2745 82.3039C50.1223 82.5775 49.9715 82.9896 49.9411 83.2156C49.9094 83.445 49.7484 83.7245 49.5785 83.846C49.415 83.9633 49.2705 84.2123 49.2667 84.3822C49.2629 84.5521 49.254 84.8342 49.2464 84.9897C49.2401 85.1469 49.1082 85.4715 48.9586 85.6992C48.8078 85.9303 48.5657 86.6381 48.4211 87.2728C48.2766 87.9075 48.0206 88.6781 47.8507 88.9848C47.6809 89.2933 47.5313 89.7818 47.5173 90.0775C47.5034 90.3732 47.4007 90.6893 47.2879 90.7844C47.0762 90.9637 46.4512 92.6019 46.2915 93.3963C46.2357 93.6725 46.1571 93.8849 46.1166 93.8636C45.9695 93.7846 46.1723 91.9918 46.4056 91.3036C46.545 90.8957 46.7048 90.2755 46.7669 89.9093C46.829 89.5414 46.9443 89.0851 47.028 88.8795C47.1104 88.6764 47.2676 88.0213 47.3766 87.4232C47.4869 86.825 47.729 85.8428 47.9166 85.2378C48.1043 84.6337 48.3527 83.7568 48.4681 83.2895C48.5822 82.8273 48.7482 82.2682 48.8319 82.0643C48.9726 81.721 49.0246 81.5044 49.2997 80.1568C49.4214 79.5578 49.4442 79.4261 49.4366 79.3411C49.434 79.3105 49.5126 79.0633 49.6115 78.7939C49.8333 78.1864 50.1743 76.7225 50.206 76.2424C50.2415 75.6961 50.656 74.3425 50.8855 74.0231C50.9945 73.8718 51.0579 73.6067 51.0262 73.4393C50.9945 73.2719 51.0363 73.0085 51.1187 72.8598C51.2024 72.7095 51.3609 72.1266 51.4724 71.5624C51.584 70.9999 51.8286 69.8002 52.015 68.9013C52.2013 68.0023 52.3369 67.1467 52.3141 67.0023C52.2913 66.857 52.3357 66.7346 52.4143 66.7278C52.4916 66.721 52.7058 66.1483 52.8871 65.4652C53.6211 62.6978 54.7962 58.9338 55.0814 58.4308C55.2779 58.0858 55.6886 55.9795 55.6252 55.6456C55.6037 55.5343 55.6975 55.355 55.8243 55.2666C55.9586 55.1723 56.0474 55.0211 56.0283 54.9208C56.0106 54.824 56.1272 54.4255 56.2857 54.0499C56.4467 53.6659 56.723 52.7907 56.9043 52.0846C57.2554 50.7192 57.5445 49.9639 57.6864 50.0369C57.7283 50.0582 57.9108 50.8611 58.0921 51.8195C58.2734 52.778 58.4508 53.9352 58.4863 54.3889C58.5218 54.8461 58.6068 55.7144 58.6765 56.3313C58.7462 56.9439 58.8121 58.1139 58.8223 58.9278C58.8324 59.7418 58.8755 60.4267 58.9161 60.4479C58.9566 60.4691 58.9465 60.6603 58.8945 60.8685C58.8413 61.0767 58.84 61.6544 58.8895 62.1371C58.9389 62.6197 58.9706 63.228 58.9566 63.4727C58.9427 63.7191 58.9642 64.2527 59.0035 64.6572C59.0428 65.0616 59.0859 65.6564 59.0974 65.9792C59.1202 66.5664 59.2786 68.0575 59.5867 70.5785C59.6729 71.2846 59.7375 72 59.7312 72.1623C59.6944 72.978 59.683 74.3621 59.7045 75.3791C59.7185 76.0002 59.6589 76.7445 59.574 77.0317C59.4878 77.3215 59.4472 77.6979 59.4802 77.8771C59.541 78.1992 59.2545 79.7974 59.0555 80.2452C58.9959 80.3803 58.8894 80.8816 58.821 81.3514C58.7525 81.8213 58.5713 82.4577 58.4217 82.7551C58.1415 83.3091 57.997 83.8664 57.9717 84.4909C57.9552 84.8996 57.2744 86.3458 57.0387 86.4741C56.9423 86.5259 56.8891 86.6653 56.9144 86.7995C56.9398 86.9329 56.8675 87.0655 56.7446 87.1079C56.6267 87.1487 56.5392 87.2838 56.5481 87.4079C56.5798 87.8004 55.8141 89.4734 55.3894 89.9399C55.1587 90.1931 54.8203 90.7122 54.6238 91.1141C53.5374 93.3343 53.0798 94.1517 52.882 94.223C52.7553 94.2689 52.6703 94.3513 52.6818 94.4142C52.6932 94.4771 52.5715 94.6836 52.4003 94.8909C52.2292 95.0982 52.1595 95.3072 52.2381 95.3744C52.3116 95.4364 52.3116 95.4984 52.2368 95.5043C52.1582 95.5111 51.9959 95.7737 51.8692 96.1017C51.7424 96.4296 51.4648 96.9258 51.2392 97.2309C51.0148 97.5334 50.8475 97.8392 50.8627 97.9191C50.8779 97.9964 50.798 98.1791 50.6928 98.3125C50.5813 98.4535 50.4621 98.694 50.4177 98.8682C50.3759 99.0339 50.1642 99.4103 49.9563 99.6881C49.7484 99.966 49.5545 100.375 49.5342 100.579C49.5126 100.788 49.3275 101.196 49.1171 101.497C48.9067 101.798 48.7406 102.094 48.7432 102.163C48.7508 102.372 48.4237 103.141 47.7747 104.441L47.4324 105.127L47.4045 104.473C47.3779 103.846 47.3526 103.639 47.2131 102.904C47.1776 102.715 47.2068 102.467 47.2828 102.332C47.3576 102.199 47.4058 101.842 47.3918 101.549ZM45.4181 96.7933C45.465 96.789 45.4549 96.9148 45.3965 97.0779C45.3382 97.2411 45.3446 97.3974 45.413 97.4331C45.4815 97.4688 45.4435 97.5036 45.3268 97.5138C45.2102 97.524 45.1139 97.507 45.1088 97.4756C45.086 97.3532 45.337 96.8001 45.4181 96.7933ZM44.3938 105.381C44.4446 105.241 44.4826 105.058 44.4813 104.954C44.4813 104.855 44.5168 104.583 44.5612 104.354L44.6423 103.934L44.8096 104.502C44.9452 104.966 44.9148 105.123 44.641 105.349C44.319 105.614 44.3089 105.615 44.3938 105.381ZM24.5627 67.7576C24.692 68.5614 24.9113 69.6532 25.0139 70.0058C25.1825 70.5836 25.2206 70.8257 25.4057 72.4741C25.4969 73.283 25.6769 74.6637 25.8075 75.5473C25.9381 76.4301 26.0002 77.2161 25.947 77.2951C25.8443 77.4489 26.2385 79.6929 26.3944 79.8373C26.4439 79.8832 26.7101 81.0557 26.9852 82.4356L27.4872 84.9506L27.0714 84.6294C26.847 84.4561 26.5719 84.123 26.4743 83.9047C26.2334 83.3702 24.9049 81.5086 24.678 81.3863C24.5792 81.3327 24.46 81.094 24.4156 80.8595C24.3586 80.5587 24.19 80.3565 23.849 80.1832C23.5448 80.0285 23.309 79.7651 23.2177 79.4788C23.1366 79.2256 22.9211 78.9027 22.7347 78.7557C22.5509 78.6112 22.1503 78.104 21.8562 77.6418C21.5621 77.1804 21.0563 76.4625 20.747 76.0665C20.4314 75.6629 20.169 75.2848 20.1551 75.2168C20.1043 74.9492 18.7315 73.4512 18.3372 73.232C18.0938 73.0978 17.8314 72.7545 17.6844 72.3824C17.5513 72.0425 17.2293 71.5845 16.9796 71.378C16.7311 71.1733 16.4915 70.8708 16.4586 70.7204C16.4256 70.5691 16.1835 70.1214 15.9262 69.7356C15.6688 69.3499 15.485 69.0262 15.5205 69.0228C15.556 69.0194 15.4229 68.8273 15.2302 68.6056C15.0388 68.3847 14.8119 68.0354 14.7409 67.8494C14.6686 67.6633 14.5077 67.377 14.391 67.2283C14.192 66.9742 14.0285 66.6029 13.5873 65.3947C13.5062 65.1712 13.3148 64.7498 13.1614 64.4575C13.008 64.1652 12.738 63.4404 12.5605 62.8448C12.3831 62.2484 12.1701 61.6111 12.089 61.425C11.7759 60.7155 10.512 54.2912 10.6033 53.8774C10.6553 53.6404 10.6717 53.1357 10.64 52.7423C10.6071 52.3489 10.5817 51.7974 10.5817 51.5018C10.5817 51.2103 10.5272 50.4881 10.4613 49.9044C10.3447 48.8797 10.3041 48.1184 10.3054 47.0087C10.3054 46.7147 10.2851 46.2661 10.2585 46.0053C10.2319 45.7436 10.2369 45.2151 10.2699 44.8157C10.3016 44.4172 10.3269 43.8616 10.3244 43.5659C10.3168 42.3211 10.4093 41.0712 10.5133 40.9803C10.5779 40.9243 10.5944 40.6957 10.55 40.462C10.5056 40.2284 10.5057 39.8571 10.5513 39.6191C10.5957 39.3855 10.6223 38.8885 10.6121 38.5163C10.602 38.1433 10.6514 37.5434 10.7224 37.1823C10.7922 36.8255 10.8632 36.3751 10.8771 36.1958C10.9113 35.7515 10.9443 34.8219 10.9328 34.5951C10.9278 34.4965 10.976 34.2238 11.0381 33.9918C11.1015 33.7565 11.1889 33.2492 11.2358 32.849C11.2815 32.4488 11.3563 31.9925 11.4044 31.8217C11.4513 31.6544 11.4843 31.221 11.478 30.8701C11.4716 30.5201 11.5046 30.1683 11.5515 30.1003C11.5984 30.0315 11.6174 29.7044 11.5921 29.3781C11.5667 29.0476 11.6364 28.22 11.7492 27.5199C12.0383 25.7186 12.2335 22.9521 12.0877 22.715C12.0218 22.6071 12.0357 22.472 12.1169 22.4295C12.2018 22.3845 12.2487 22.2316 12.2208 22.0871C12.1929 21.9427 12.2385 21.7668 12.3235 21.6937C12.4071 21.6215 12.4743 21.1882 12.4718 20.7361C12.4693 20.2833 12.5364 19.6078 12.6188 19.2407C12.7025 18.8711 12.7634 18.3333 12.7545 18.041C12.7456 17.7479 12.8369 17.2075 12.9573 16.8353C13.0777 16.4632 13.2185 15.7036 13.2704 15.1445C13.3224 14.5854 13.4454 13.7485 13.543 13.282C13.6393 12.8215 13.7268 12.2046 13.7344 11.9302C13.742 11.6583 13.8256 11.2386 13.9169 11.0202C14.0107 10.795 14.083 10.3269 14.0804 9.9649C14.0779 9.60294 14.1159 9.11016 14.1654 8.85441C14.2148 8.60121 14.2655 8.24774 14.2782 8.0693C14.2909 7.88918 14.3352 7.24938 14.3783 6.63422C14.4214 6.00802 14.5279 5.56194 14.623 5.61207C14.7155 5.6605 14.9957 6.55946 15.2467 7.61304C15.4977 8.66663 15.717 9.60719 15.736 9.7049C15.7537 9.80262 15.8793 10.4849 16.0124 11.2097C16.3343 12.971 16.9339 15.3068 17.1355 15.5846C17.2255 15.7095 17.3675 16.1199 17.4537 16.5082C17.6768 17.5083 18.2358 19.3367 18.4615 19.8066C18.5654 20.0241 18.6453 20.262 18.6339 20.3241C18.6224 20.3869 18.7112 20.5441 18.8291 20.6699C19.0294 20.884 19.3716 21.4159 19.7747 22.1398C19.8774 22.325 20.0093 22.7652 20.0676 23.122C20.1259 23.4789 20.2907 23.9725 20.4365 24.2223C20.5797 24.4688 20.8383 25.0423 21.0044 25.4816C21.1717 25.9225 21.5469 26.6974 21.8359 27.1936C22.125 27.6907 22.4862 28.5361 22.6384 29.0663C22.7905 29.5965 23.0111 30.0833 23.1302 30.1454C23.2519 30.2082 23.3787 30.43 23.4205 30.6526C23.4623 30.8752 23.5904 31.1386 23.7121 31.2559C23.8312 31.3697 23.9872 31.6739 24.0594 31.928C24.1304 32.182 24.2343 32.3885 24.2889 32.3834C24.3434 32.3791 24.5487 32.6723 24.7401 33.03C24.9328 33.3869 25.18 33.7446 25.2852 33.8151C25.3892 33.8856 25.4361 34.0071 25.3854 34.0785C25.3347 34.1498 25.3841 34.2714 25.4906 34.341C25.6757 34.4625 25.99 34.9214 26.7798 36.2239C26.9497 36.5034 27.1284 36.8323 27.1804 36.9597C27.2311 37.0846 27.4605 37.5247 27.6836 37.9241C27.9067 38.3243 28.2059 38.9743 28.3428 39.3507C28.4784 39.7271 28.7776 40.434 28.9995 40.9022C29.2213 41.3703 29.4951 42.0246 29.6003 42.3389C29.7081 42.6584 29.8602 43.068 29.9401 43.2549C30.2785 44.0366 30.7146 45.5209 30.9288 46.623C31.1697 47.8592 31.6489 51.5519 31.6451 52.1535C31.6438 52.3472 31.6603 53.0346 31.6818 53.6897C31.7034 54.3448 31.6793 55.0661 31.6273 55.3015C31.5348 55.7246 31.5715 56.9813 31.7071 58.079C31.7477 58.4045 31.7629 59.1046 31.7427 59.6271C31.7211 60.1497 31.6957 60.9042 31.6869 61.2959C31.678 61.6927 31.6298 62.1719 31.5791 62.375C31.5284 62.5763 31.4828 63.2714 31.4765 63.929C31.4701 64.5858 31.4042 65.1542 31.3281 65.1975C31.2521 65.2417 31.1899 65.4304 31.1887 65.6224C31.1874 65.8136 31.143 66.2375 31.0898 66.5706C31.0366 66.9037 31.0099 67.4024 31.0302 67.6845C31.0518 67.9692 31.0049 68.473 30.925 68.8197C30.7919 69.4051 30.7095 70.0602 30.6956 70.6499C30.6854 71.0696 30.6537 71.3627 30.584 71.6669C30.546 71.8301 30.5143 72.3467 30.513 72.7995C30.5118 73.2524 30.4509 73.9874 30.3812 74.4122C30.2481 75.2185 30.2405 75.3069 30.2012 76.7479C30.1733 77.7692 30.1568 77.9137 30.0516 78.0734C30.0085 78.1388 29.9641 78.652 29.954 79.2077C29.9438 79.7634 29.921 80.41 29.9045 80.6377C29.8881 80.8654 29.8691 81.1076 29.8627 81.173C29.8564 81.2384 29.9122 81.6497 29.9844 82.0847C30.0668 82.5758 30.0453 82.8834 29.9261 82.8936C29.7955 82.9046 29.703 82.6013 29.6358 81.9394C29.5813 81.4007 29.4241 80.7142 29.2847 80.3964C29.1452 80.0803 29.0856 79.766 29.1516 79.6946C29.2188 79.6224 29.2036 79.4125 29.1161 79.2162C28.8372 78.5849 28.3441 75.1616 28.3542 73.927C28.3618 73.0434 26.4477 63.0386 26.1193 62.2441C25.9888 61.9263 25.7314 61.0605 25.5514 60.329C25.3714 59.5974 25.1039 58.599 24.9594 58.1215C24.6628 57.1393 24.5741 56.7332 24.5246 56.1435C24.4701 55.4841 23.9669 53.9386 23.5257 53.0703C23.2811 52.5885 22.9578 51.4771 22.7018 50.2315C22.4711 49.1082 22.125 47.7692 21.9373 47.2636C21.7497 46.7589 21.5343 45.9679 21.4607 45.5158C21.2072 43.9414 20.2121 40.5258 19.9319 40.27C19.8457 40.191 19.7823 39.8868 19.7925 39.603C19.8191 38.8655 19.4363 37.5698 19.1231 37.3395C18.881 37.1619 18.7429 36.534 18.7543 35.6623C18.7568 35.4583 18.658 35.234 18.5274 35.1491C18.3943 35.0624 18.18 34.477 18.0203 33.7658C17.8682 33.0886 17.6692 32.3783 17.5779 32.1905C17.4879 32.0061 17.3878 31.6884 17.3611 31.5014C17.0822 29.5897 16.7945 28.5947 16.437 28.2973C16.2621 28.1521 16.0935 27.8343 16.0669 27.5989C16.0402 27.3636 15.9338 27.1409 15.8311 27.1095C15.7056 27.0713 15.7398 27.389 15.9375 28.0739C16.0998 28.6355 16.3001 29.599 16.3838 30.215C16.6703 32.3409 18.4691 40.9582 18.7835 41.7144C18.8088 41.7748 18.9254 42.3704 19.0459 43.0501C19.7938 47.2874 20.9486 52.9156 21.1818 53.4517C21.3327 53.7992 21.7966 55.6634 22.2124 57.5862C22.627 59.509 23.0567 61.3452 23.1645 61.6587C23.5878 62.8941 24.2293 65.692 24.5627 67.7576ZM49.1437 143.386C48.9003 143.336 48.4326 143.079 48.0979 142.814C47.7633 142.548 47.3247 142.29 47.1193 142.235C46.9063 142.179 46.6084 142.058 46.4246 141.955C46.2509 141.856 46.0113 141.781 45.9036 141.79C45.792 141.799 45.4827 141.628 45.2051 141.403C44.9275 141.177 44.4319 140.889 44.0858 140.753C43.4875 140.517 42.5621 140.037 41.7305 139.531C41.4998 139.391 40.6669 138.919 39.9038 138.498C36.7448 136.751 34.965 135.661 34.9245 135.446C34.9093 135.366 34.548 135.082 34.1208 134.813C33.6923 134.544 33.2131 134.171 33.0509 133.982C32.8886 133.791 32.6908 133.644 32.6084 133.651C32.5311 133.658 32.4449 133.592 32.431 133.513C32.4145 133.43 32.1394 133.204 31.8111 133.006C31.4828 132.808 31.2039 132.582 31.1836 132.5C31.1633 132.416 30.9314 132.227 30.655 132.069C30.3787 131.912 30.1492 131.715 30.1315 131.621C30.1137 131.531 29.8171 131.229 29.4837 130.964C29.144 130.693 28.4493 130.027 27.9371 129.483C27.4225 128.934 26.4768 127.943 25.8202 127.263C25.1635 126.583 24.4727 125.764 24.2736 125.431C24.0746 125.097 23.688 124.579 23.4078 124.272C22.9502 123.769 21.926 122.474 20.9917 121.217C20.7889 120.945 20.3769 120.33 20.0879 119.868C19.7976 119.405 19.364 118.818 19.1346 118.58C18.9013 118.337 18.5781 117.885 18.412 117.572C18.2447 117.258 17.9721 116.896 17.8035 116.764C17.6337 116.632 17.4106 116.254 17.3066 115.924C17.2027 115.593 17.0506 115.217 16.9682 115.087C16.6398 114.563 15.7474 113.221 15.0946 112.269C14.713 111.713 14.1971 110.882 13.9397 110.409C13.6862 109.944 13.4048 109.503 13.3224 109.443C13.1627 109.325 12.8027 108.751 12.7228 108.486C12.6214 108.151 11.1395 105.576 10.4448 104.526C10.0544 103.937 9.40535 102.815 9.00224 102.034C8.59912 101.253 8.06669 100.389 7.8195 100.115C7.57484 99.8427 7.27189 99.2726 7.15526 98.8639C6.96765 98.2097 6.58229 97.4186 5.11815 94.6793C4.56292 93.6402 4.42853 93.3725 4.22444 92.8992C4.12556 92.6698 3.98739 92.4778 3.92528 92.4829C3.86063 92.4889 3.76556 92.2476 3.71232 91.9349C3.65781 91.6222 3.52978 91.2152 3.42329 91.0088C3.16976 90.5245 3.4195 90.5108 3.78458 90.9892C3.93797 91.1914 4.24597 91.4446 4.45767 91.5432C4.67951 91.6469 4.85825 91.7845 4.87347 91.8644C4.88868 91.9425 5.16122 92.1329 5.49588 92.2977C5.82801 92.4617 6.29071 92.7735 6.54043 93.0012C6.79016 93.2289 7.05639 93.4048 7.13878 93.3972C7.21865 93.3904 7.30359 93.4626 7.32007 93.5518C7.33654 93.641 7.46962 93.7829 7.60526 93.856C7.74216 93.9299 8.04262 94.1415 8.25812 94.3157C8.47488 94.4915 9.13659 94.9767 9.70957 95.3803C10.2825 95.7839 10.8441 96.2707 10.9417 96.4466C11.0432 96.6302 11.2663 96.7831 11.4564 96.7992C11.6402 96.8145 12.0167 97.0575 12.293 97.3388C12.5732 97.6243 13.1424 98.1264 13.581 98.4739C14.0183 98.8214 14.585 99.3244 14.8601 99.6099C15.1326 99.892 15.5573 100.253 15.8057 100.412C16.0542 100.571 16.7653 101.207 17.3814 101.822C17.9988 102.438 18.9432 103.336 19.4743 103.812C21.9995 106.075 27.5822 111.635 27.6405 111.945C27.6494 111.995 27.941 112.327 28.2959 112.693C29.3303 113.759 29.9299 114.571 30.2253 115.302C30.3749 115.674 30.6106 116.088 30.7463 116.219C30.887 116.354 31.0366 116.568 31.0924 116.71C31.1469 116.849 31.2774 117.113 31.3839 117.297C32.4361 119.12 32.6427 119.541 33.1713 120.948C33.2904 121.265 33.435 121.564 33.4895 121.605C33.544 121.648 33.8013 122.422 34.0663 123.339C34.586 125.14 34.638 125.284 34.8408 125.446C34.9194 125.509 34.9866 125.699 34.9916 125.88C34.998 126.06 35.0639 126.196 35.1437 126.19C35.2223 126.183 35.2984 126.267 35.3174 126.379C35.4087 126.951 35.8207 127.762 36.4938 128.69C36.741 129.031 37.0186 129.471 37.1124 129.673C37.2037 129.869 37.39 130.172 37.5155 130.329C37.6423 130.488 37.7741 130.757 37.8046 130.921C37.8362 131.087 38.2254 131.598 38.6704 132.059C39.1153 132.519 39.4855 132.992 39.4943 133.109C39.5019 133.221 39.6363 133.341 39.7783 133.362C39.9342 133.385 40.061 133.474 40.08 133.575C40.0978 133.669 40.3462 133.925 40.6264 134.14C40.9065 134.354 41.1562 134.62 41.1765 134.727C41.1981 134.838 41.3337 134.984 41.4947 135.067C41.6494 135.148 41.9143 135.423 42.0829 135.679C42.2527 135.937 42.4581 136.14 42.5405 136.132C42.6242 136.125 42.7053 136.197 42.7243 136.298C42.7433 136.398 42.8169 136.471 42.8916 136.465C43.0742 136.451 43.7359 137.076 43.632 137.165C43.542 137.243 42.6001 136.626 42.5709 136.469C42.5595 136.413 42.235 136.135 41.8357 135.841C41.4364 135.547 41.1093 135.257 41.0954 135.186C41.0827 135.118 41.0016 135.095 40.9255 135.138C40.8457 135.182 40.7176 135.11 40.6428 134.981C40.5681 134.852 40.3335 134.729 40.1282 134.713C39.9063 134.695 39.5222 134.448 39.1952 134.113C38.8897 133.8 38.2077 133.305 37.6778 133.014C37.1441 132.72 36.7511 132.451 36.7955 132.41C36.8373 132.371 36.7828 132.343 36.6827 132.351C36.5775 132.36 36.4178 132.255 36.3252 132.116C36.2339 131.976 36.0235 131.782 35.8549 131.681C35.6901 131.581 35.6192 131.491 35.7003 131.484C35.7827 131.478 35.5165 131.297 35.1096 131.082C34.7026 130.868 34.3768 130.64 34.387 130.577C34.4174 130.391 33.9357 129.921 33.5098 129.722C33.2879 129.618 33.0915 129.473 33.0775 129.404C33.0648 129.333 32.8341 129.107 32.5692 128.903C32.3042 128.699 31.9949 128.378 31.8859 128.192C31.7782 128.008 31.621 127.831 31.5424 127.806C31.318 127.734 30.0453 126.498 30.011 126.32C29.9806 126.16 29.8792 126.037 29.3595 125.526C29.2213 125.391 29.0755 125.126 29.0426 124.948C29.0083 124.769 28.9221 124.588 28.8537 124.551C28.5279 124.376 27.9105 123.431 26.0446 120.251C25.9305 120.057 25.7302 119.799 25.5844 119.662C25.4424 119.527 25.3676 119.415 25.4183 119.411C25.469 119.406 25.2764 119.191 24.9797 118.921C24.6831 118.652 24.4334 118.357 24.4131 118.251C24.3928 118.146 24.1799 117.857 23.9365 117.607C23.6931 117.356 23.4763 117.042 23.4522 116.907C23.4078 116.661 22.3823 115.133 22.2023 115.046C21.8778 114.888 21.4848 114.403 21.2655 113.889C21.0272 113.333 20.0447 111.954 19.6163 111.574C19.5073 111.477 19.2575 111.073 19.0611 110.671C18.8633 110.269 18.5882 109.872 18.445 109.784C18.3043 109.697 18.1116 109.462 18.0203 109.266C17.8023 108.797 17.4258 108.322 17.1203 108.131C16.8515 107.963 16.2849 107.071 16.2012 106.682C16.1695 106.537 16.0491 106.327 15.9388 106.223C15.8273 106.119 15.6739 105.94 15.6029 105.833C15.5319 105.726 15.3811 105.643 15.2733 105.651C15.0185 105.673 15.2416 106.265 15.5763 106.451C15.7525 106.55 15.7791 106.635 15.6688 106.749C15.5028 106.922 15.9033 107.6 16.6348 108.387C16.83 108.597 17.0429 108.906 17.0975 109.061C17.3662 109.819 17.5678 110.097 17.8327 110.074C18.066 110.054 18.1166 110.151 18.1255 110.637C18.1331 111.09 18.2688 111.406 18.715 112.013C19.0357 112.45 19.3184 112.928 19.3488 113.086C19.378 113.242 19.487 113.396 19.5909 113.427C19.6924 113.458 19.8204 113.685 19.8685 113.918C19.9611 114.364 20.1043 114.646 20.8358 115.816C21.3847 116.695 21.4278 116.773 21.9513 117.861C22.4292 118.85 23.1074 119.948 23.3482 120.119C23.4344 120.181 23.6183 120.537 23.7615 120.921C23.9048 121.305 24.1076 121.726 24.2191 121.867C24.3294 122.008 24.5678 122.465 24.7503 122.892C24.9316 123.313 25.3004 124.017 25.5654 124.447C26.1548 125.403 26.7329 126.493 26.7773 126.731C26.7938 126.821 26.8673 126.894 26.9332 126.888C27.0029 126.882 27.1347 127.029 27.2336 127.224C27.3312 127.416 27.8015 127.968 28.287 128.459C28.7725 128.949 29.1313 129.392 29.0907 129.449C29.0489 129.507 29.125 129.583 29.2682 129.626C29.6257 129.733 30.4344 130.438 30.4813 130.683C30.5257 130.914 31.2774 131.499 31.768 131.682C31.9493 131.75 32.1268 131.885 32.1432 131.968C32.1978 132.258 32.8328 132.768 33.2791 132.881C33.5313 132.945 33.8508 133.147 33.9839 133.328C34.2095 133.634 34.7292 133.943 35.3212 134.123C35.4303 134.156 35.8068 134.401 36.1693 134.676C36.5319 134.95 36.9438 135.189 37.0985 135.214C37.2557 135.238 37.39 135.326 37.4065 135.414C37.4331 135.554 37.6423 135.681 38.7033 136.2C38.9138 136.303 39.4208 136.595 39.8024 136.835C40.1852 137.073 40.7265 137.406 40.9775 137.555C41.2272 137.704 41.5834 137.968 41.7444 138.124C41.9054 138.28 42.2566 138.502 42.5025 138.603C42.7573 138.707 43.1617 138.988 43.4165 139.238C43.6674 139.484 44.2468 139.915 44.7019 140.193C46.9443 141.565 48.6443 142.676 49.1298 143.087L49.59 143.478L49.1437 143.386ZM85.3124 92.0632C85.3352 92.5025 85.3302 92.9596 85.3023 93.0768C85.2731 93.1958 85.2554 93.698 85.263 94.2061C85.2832 95.6191 85.192 97.3014 85.0487 98.1749C84.979 98.5997 84.9017 99.2565 84.8776 99.6159C84.8535 99.9812 84.7762 100.864 84.7039 101.595C84.6317 102.325 84.6 103.229 84.6317 103.621C84.6646 104.015 84.6431 104.439 84.5835 104.576C84.4593 104.863 84.2945 106.479 84.3059 107.305C84.3097 107.621 84.2463 108.123 84.1601 108.444C84.0765 108.757 84.0143 109.261 84.0245 109.554C84.0346 109.847 83.9902 110.281 83.9268 110.513C83.8647 110.741 83.8445 111.125 83.8825 111.348C83.9205 111.572 83.8863 111.876 83.8102 112.011C83.6708 112.256 83.4984 113.702 83.5187 114.469C83.5364 115.169 83.5073 115.443 83.3057 116.445C83.1992 116.975 83.1396 117.54 83.1726 117.713C83.2043 117.88 83.1777 118.07 83.1156 118.121C83.0015 118.214 82.9419 118.513 82.9812 118.793C82.9951 118.891 82.9343 119.38 82.8481 119.874C82.7619 120.367 82.7061 121.002 82.7251 121.276C82.7441 121.547 82.7137 121.818 82.6592 121.865C82.6047 121.912 82.5793 122.07 82.6047 122.203C82.63 122.337 82.5641 122.528 82.4627 122.611C82.36 122.696 82.3271 122.764 82.3892 122.759C82.4551 122.753 82.4577 122.883 82.3955 123.058C82.3347 123.227 82.2599 123.709 82.2295 124.119C82.0913 125.988 81.7693 127.996 81.441 129.042C81.3282 129.403 81.1799 129.911 81.1101 130.18C81.0404 130.446 80.9314 130.778 80.8693 130.913C80.8072 131.049 80.6702 131.598 80.5676 132.128C80.4649 132.657 80.2468 133.403 80.0859 133.776C79.9236 134.151 79.7474 134.7 79.6929 134.998C79.6371 135.297 79.5269 135.65 79.4457 135.789C79.3671 135.924 79.2949 136.175 79.2911 136.334C79.2834 136.587 78.7219 137.888 78.2604 138.719C78.1945 138.838 78.1565 139.012 78.1755 139.111C78.2161 139.323 77.1715 141.431 76.9903 141.504C76.9155 141.533 76.9129 141.593 76.9839 141.651C77.0498 141.705 77.0207 141.756 76.9206 141.764C76.8166 141.773 76.757 141.88 76.7824 142.014C76.8077 142.148 76.7519 142.255 76.6518 142.263C76.5517 142.272 76.4959 142.378 76.5212 142.512C76.5466 142.646 76.5047 142.751 76.4249 142.758C76.3463 142.765 76.1904 142.993 76.0712 143.274C75.8633 143.767 75.7442 143.931 75.2308 144.421C75.0875 144.557 74.9823 144.729 74.9962 144.803C75.0102 144.877 74.8606 145.126 74.6629 145.358C74.4651 145.59 74.313 145.828 74.3244 145.89C74.3358 145.952 74.067 146.501 73.7273 147.107C73.3889 147.713 72.9135 148.566 72.6752 148.996C72.2416 149.78 71.9412 149.996 71.9627 149.509C71.9691 149.373 72.0857 148.814 72.2188 148.281C72.3519 147.75 72.4381 147.165 72.4064 146.998C72.3747 146.83 72.414 146.654 72.4939 146.611C72.575 146.566 72.6625 146.359 72.6917 146.141C72.7208 145.924 72.821 145.641 72.916 145.5C73.0111 145.36 73.096 145.009 73.1049 144.714C73.115 144.419 73.1734 144.121 73.2367 144.046C73.3483 143.917 73.6817 142.808 73.882 141.908C74.043 141.182 74.441 140.039 74.654 139.692C74.7642 139.513 74.8416 139.267 74.8226 139.163C74.8023 139.057 74.8974 138.755 75.0279 138.506C75.161 138.251 75.2764 137.778 75.284 137.448C75.2916 137.119 75.4133 136.604 75.5565 136.299C75.6998 135.992 75.7987 135.559 75.7784 135.329C75.7581 135.099 75.8608 134.666 76.0091 134.359C76.1561 134.052 76.2512 133.657 76.222 133.475C76.1929 133.296 76.288 132.909 76.4325 132.625C76.7418 132.017 76.951 131.212 76.9839 130.507C76.9966 130.223 77.0663 129.991 77.1411 129.985C77.2628 129.974 77.3921 129.364 77.529 128.163C77.5632 127.866 77.6127 127.465 77.6393 127.265C77.6659 127.07 77.6621 126.784 77.6317 126.643C77.5975 126.487 77.6545 126.407 77.7711 126.444C77.8865 126.481 77.9093 126.455 77.8269 126.383C77.7483 126.314 77.7623 126.071 77.8586 125.837C77.9892 125.52 77.9752 125.384 77.8066 125.292C77.6405 125.202 77.6494 125.174 77.8371 125.187C78.0817 125.203 78.1616 124.746 78.1159 123.596C78.1096 123.438 78.1983 123.219 78.3074 123.121C78.4747 122.971 78.4658 122.927 78.2592 122.864C77.8966 122.754 77.657 123.023 77.5252 123.691C77.4263 124.187 77.4504 124.281 77.6913 124.368C77.922 124.451 77.9207 124.462 77.6786 124.433C77.401 124.4 77.1715 124.865 77.1411 125.523C77.1234 125.898 76.9167 126.834 76.7925 127.103C76.7304 127.237 76.6822 127.515 76.686 127.707C76.6911 127.902 76.5935 128.331 76.4692 128.659C76.2804 129.162 76.2892 129.292 76.525 129.487C76.6746 129.61 76.7355 129.684 76.6569 129.646C76.3831 129.513 75.9584 130.106 75.9381 130.652C75.9267 130.948 75.7277 131.563 75.4881 132.037C75.2498 132.51 75.0381 133.036 75.0115 133.22C74.9848 133.405 74.8593 133.788 74.7275 134.082C74.5982 134.371 74.4334 134.899 74.3649 135.244C74.2965 135.589 74.1178 136.104 73.9707 136.376C73.8237 136.649 73.6855 137.09 73.6665 137.353C73.6462 137.615 73.5105 137.983 73.3648 138.165C73.219 138.347 73.1049 138.535 73.1138 138.577C73.129 138.657 72.3646 140.26 71.841 141.244C71.7143 141.481 71.585 141.866 71.5571 142.083C71.5292 142.307 71.3213 142.85 71.0893 143.312C70.8561 143.773 70.6558 144.349 70.6355 144.613C70.6152 144.877 70.4771 145.311 70.3224 145.596C69.88 146.414 69.8394 146.519 69.8762 146.732C69.9269 147.021 69.2626 149.784 69.0991 149.967C69.0281 150.046 68.9521 150.28 68.9343 150.474C68.9153 150.672 68.8595 151.074 68.8088 151.373C68.7581 151.672 68.7138 151.994 68.7087 152.094C68.7049 152.193 68.6275 152.395 68.5401 152.538C68.2548 153.006 67.924 154.108 67.8682 154.78C67.8378 155.144 67.763 155.577 67.7022 155.745C67.5982 156.027 67.5741 156.011 67.3637 155.519C67.2369 155.224 67.1761 154.86 67.2243 154.699C67.3726 154.207 67.3726 154.075 67.2192 153.047C67.1368 152.499 67.1165 151.988 67.1723 151.908C67.2775 151.757 67.3802 149.92 67.3383 148.894C67.3244 148.544 67.3688 148.061 67.4359 147.833C67.5044 147.601 67.4867 147.27 67.3967 147.089C67.3054 146.906 67.3143 146.564 67.4169 146.307C67.5336 146.017 67.5323 145.601 67.4132 145.17C67.3092 144.794 67.2902 144.472 67.3701 144.449C67.4487 144.427 67.4563 143.984 67.3865 143.469C67.3168 142.957 67.299 142.073 67.3485 141.526C67.3966 140.979 67.3852 140.169 67.3231 139.745C67.261 139.32 67.261 138.874 67.3219 138.76C67.384 138.646 67.4448 138.348 67.4575 138.097C67.4702 137.848 67.4905 137.588 67.5006 137.522C67.5108 137.456 67.526 137.135 67.5336 136.806C67.5412 136.477 67.5754 135.995 67.6084 135.73C67.6413 135.467 67.7237 134.815 67.7884 134.289C68.014 132.47 68.3068 130.795 68.4704 130.394C68.5616 130.172 68.5997 129.998 68.5578 130.002C68.5173 130.005 68.5971 129.715 68.7328 129.364C68.8684 129.014 69.0256 128.527 69.0788 128.294C69.1879 127.808 69.7342 126.529 70.3021 125.428C70.363 125.31 70.3985 125.143 70.382 125.053C70.3655 124.964 70.5556 124.518 70.8092 124.055C71.0627 123.592 71.2541 123.151 71.2389 123.068C71.2237 122.989 71.3429 122.814 71.4899 122.7C71.6433 122.582 72.0769 121.853 72.4508 121.085C72.8235 120.318 73.2874 119.379 73.4751 119.006C73.6665 118.627 73.797 118.247 73.7691 118.149C73.7425 118.054 73.8807 117.823 74.0708 117.648C74.2648 117.469 74.9227 116.342 75.5312 115.146C76.1409 113.948 77.1589 111.963 77.794 110.732C78.4291 109.501 78.9412 108.452 78.931 108.4C78.9209 108.348 79.1186 107.909 79.3646 107.435C79.6105 106.96 79.807 106.513 79.7956 106.453C79.7841 106.394 79.8894 106.185 80.0212 106.004C80.3102 105.608 80.5105 105.079 80.7603 104.05C80.8579 103.646 81.0366 103.136 81.1532 102.924C81.2724 102.71 81.3421 102.404 81.3104 102.237C81.2787 102.07 81.3205 101.93 81.4029 101.924C81.5931 101.907 82.0964 100.766 82.0406 100.477C82.0191 100.362 82.1674 99.9286 82.3677 99.5267C82.5667 99.1248 82.7555 98.5954 82.7809 98.3652C82.8062 98.1366 82.9064 97.8265 82.9989 97.6905C83.094 97.5503 83.2499 97.1145 83.3488 96.71C83.5846 95.7507 83.847 94.9555 84.0562 94.5672C84.1462 94.4015 84.2019 94.1483 84.1778 94.0191C84.1525 93.8883 84.2463 93.5552 84.3845 93.2825C84.5239 93.0072 84.7166 92.4506 84.8155 92.0351C84.9144 91.6188 85.0576 91.279 85.1349 91.2722C85.2072 91.2679 85.2896 91.6231 85.3124 92.0632Z" fill="#D1B8C4"/>
</svg>
