<svg width="188" height="236" viewBox="0 0 188 236" fill="none" xmlns="http://www.w3.org/2000/svg">
<path opacity="0.16" d="M60.9863 5.74214C60.2942 7.9686 59.9548 10.1855 59.759 12.5167C59.5781 14.6678 58.9815 16.5394 57.8247 18.3382C56.6696 20.1336 55.2332 21.7177 54.1885 23.5927C52.9222 25.8668 52.2458 28.4958 51.7065 31.0477C51.4077 32.4622 51.2028 33.8437 50.6866 35.1015C51.4907 34.622 52.3164 34.1736 53.1097 33.662C54.9436 32.4812 55.1071 30.6322 55.8747 28.7105C56.7119 26.613 58.0031 24.7458 59.1366 22.8188C60.2129 20.9889 61.8684 19.4333 62.1256 17.2016C62.202 16.5377 63.0492 16.4303 63.2741 16.8787C63.328 14.6384 63.64 12.4102 63.6616 10.1535C63.6898 7.3436 63.0484 4.57869 62.8144 1.7809C61.8518 2.79285 61.3638 4.52589 60.9863 5.74214ZM47.0123 39.1035C45.8265 40.0038 44.9917 41.0027 44.1594 42.2605C42.7122 44.4497 41.3886 46.716 39.7008 48.7191C38.0968 50.6236 36.1284 52.0614 34.3352 53.7511C34.112 53.9624 33.8847 54.171 33.6557 54.377C35.4281 53.8628 37.2678 53.5443 38.9382 52.7072C41.6849 51.3308 43.5968 48.9373 45.3916 46.4511C47.1235 44.0541 49.4162 42.6449 51.8691 41.1776C54.4465 39.6358 55.1776 36.7082 56.7883 34.306C58.5989 31.6069 61.5165 29.5761 62.6185 26.3992C62.7421 26.046 63.0608 25.936 63.3396 25.9897C63.4782 25.3664 63.5936 24.738 63.6567 24.1026C63.801 22.6509 63.5695 21.2252 63.3919 19.7891C63.3015 19.0515 63.2691 18.3175 63.2658 17.5834C62.919 19.596 61.7663 21.0061 60.6602 22.6751C59.291 24.7449 57.8048 27.0259 56.9119 29.3683C56.2381 31.1369 55.9991 32.9824 54.4706 34.2177C52.6857 35.6599 50.4577 36.342 48.8238 38.0188C48.6462 38.2032 48.4387 38.2248 48.2545 38.1634C47.8462 38.4854 47.4247 38.7901 47.0123 39.1035ZM30.0343 57.534C29.9604 57.257 30.0949 56.9116 30.3696 56.7575C30.3098 56.6935 30.2642 56.6173 30.231 56.5316C29.7787 56.6693 29.3041 56.7506 28.8021 56.761C29.2128 57.0198 29.6236 57.2795 30.0343 57.534ZM38.008 58.0578C40.1796 57.6275 41.762 56.2433 43.2864 54.6627C44.99 52.8941 46.8928 51.7238 48.9864 50.5266C50.8966 49.4341 52.9944 48.2776 54.6092 46.7359C56.2207 45.1985 56.8289 42.7807 58.1168 40.9551C58.725 40.092 59.4411 39.3545 60.1291 38.5633C60.939 37.6344 61.3738 36.5706 61.5796 35.3439C61.7472 34.3398 61.797 33.3174 61.9248 32.3072C62.0593 31.2347 62.2891 30.1881 62.548 29.1459C61.4684 30.7646 60.0602 32.1592 58.8197 33.6473C56.9692 35.8677 56.1825 38.8784 54.1777 40.9456C53.1421 42.0138 51.7986 42.6232 50.5647 43.3945C49.271 44.203 48.0579 45.1249 47.0497 46.3048C46.0456 47.4795 45.2273 48.8169 44.2207 49.9934C43.2515 51.1239 42.162 52.1462 40.9389 52.9712C39.5249 53.9251 37.9906 54.5043 36.3658 54.9328C34.5867 55.4019 32.7752 55.7699 31.1886 56.7714C33.4921 57.2579 35.5792 58.5391 38.008 58.0578ZM1.02663 97.296C1.1619 97.1194 1.37929 97.0449 1.5909 97.0735C1.59006 96.6251 1.58261 96.1767 1.59673 95.7283L1.60248 95.5526C1.4025 96.1326 1.20338 96.7108 1.02663 97.296ZM-0.221405 105.568C-0.800613 107.77 -1.5226 109.723 -1.53339 112.048C-1.54417 114.18 -1.29105 116.315 -1.17155 118.444C-1.04709 120.656 -0.956619 122.872 -0.788177 125.083C-0.612259 127.383 -0.265427 129.652 0.032486 131.938C0.307144 134.047 0.466446 136.155 0.282242 138.282C0.10051 140.384 -0.31517 142.451 -0.618881 144.535C-1.25287 148.893 -0.676987 153.247 0.173569 157.535C0.989273 161.645 2.44473 165.523 3.50439 169.558C4.00395 171.461 4.37404 173.414 4.45535 175.388C4.53999 177.473 4.18156 179.505 3.87952 181.556C3.24471 185.873 2.79576 190.331 3.93924 194.606C4.5309 196.822 5.925 198.593 6.61789 200.745C7.27095 202.776 7.31412 205.051 7.37469 207.17C7.44273 209.525 7.55473 211.874 7.41699 214.229C7.37633 214.928 7.32242 215.627 7.2635 216.324C7.58713 215.5 7.92982 214.684 8.31569 213.888C9.47826 211.488 10.8458 209.374 11.3345 206.681C11.81 204.058 11.5934 201.336 11.951 198.689C12.0398 198.024 12.1469 197.359 12.2755 196.7C12.1593 196.598 12.0805 196.446 12.0797 196.24C12.0631 192.96 11.615 189.739 10.8167 186.568C10.035 183.464 8.80196 180.501 8.02525 177.403C6.46106 171.156 7.91566 164.677 7.22858 158.346C6.87923 155.113 5.27525 152.236 4.78566 149.037C4.29109 145.802 4.63376 142.525 4.67358 139.271C4.71425 135.882 4.2612 132.537 3.28949 129.302C2.40076 126.339 0.968491 123.555 0.361893 120.502C-0.355896 116.887 -0.102768 113.034 0.163605 109.381C0.44574 105.512 0.873108 101.652 0.895523 97.766C0.722916 98.3997 0.581009 99.0446 0.512131 99.7198C0.308838 101.695 0.287262 103.638 -0.221405 105.568ZM14.1152 191.069C14.8006 189.703 15.3002 188.514 15.3458 186.949C15.3865 185.543 15.2678 184.132 15.2155 182.727C15.096 179.525 14.7351 176.341 14.3036 173.17C13.8929 170.148 13.4273 167.133 13.0638 164.104C12.6854 160.949 11.951 157.922 11.4158 154.799C10.4092 148.926 11.4408 142.941 10.6384 137.052C9.87741 131.466 7.99202 126.144 6.24942 120.831C4.46864 115.407 2.97748 109.899 2.15927 104.219C2.06883 103.588 1.98839 102.956 1.91536 102.322C1.54941 107.647 0.818344 112.967 1.27225 118.3C1.54526 121.514 2.88037 124.368 3.93008 127.357C4.9715 130.325 5.62213 133.43 5.81879 136.585C6.02791 139.928 5.60719 143.271 5.75989 146.615C5.91339 149.97 7.26926 152.82 8.04762 156.017C9.58774 162.349 7.77132 169.032 8.85175 175.434C9.44423 178.949 10.9453 182.273 11.8465 185.714C12.5046 188.225 12.9568 190.778 13.1617 193.361C13.4314 192.576 13.7426 191.809 14.1152 191.069ZM7.96463 83.2292C7.6825 89.01 8.1796 95.0816 9.81599 100.625C10.6582 103.481 11.8938 106.187 12.9045 108.98C13.8704 111.646 14.6961 114.374 15.1824 117.183C16.0993 122.48 15.2247 128.066 16.964 133.208C17.9423 136.101 19.6974 138.659 20.8873 141.462C21.6674 143.3 22.3337 145.186 22.8797 147.111C25.2754 151.914 26.3441 157.293 28.7406 162.092C30.8434 166.301 34.7991 169.023 37.0471 173.12C39.5017 177.595 38.9117 182.926 39.4859 187.852C40.1041 193.151 42.952 197.293 45.7792 201.567C47.4728 204.125 48.8552 206.778 50.0643 209.619C51.0111 211.846 52.4027 213.499 54.1661 214.943C53.7885 213.742 53.4483 212.53 53.1147 211.329C51.5256 205.596 49.9772 199.873 48.8204 194.036C48.7034 194.025 48.5865 193.988 48.4778 193.892C45.8066 191.523 44.1345 188.204 43.0118 184.787C42.3819 182.873 41.9679 180.89 41.4252 178.948C40.8368 176.837 40.1779 174.748 39.4701 172.679C38.7473 170.564 38.0088 168.448 37.0562 166.432C36.1699 164.559 35.1758 162.74 34.3792 160.822C33.6009 158.947 33.1072 156.974 32.2549 155.128C31.3629 153.196 30.2916 151.362 29.2054 149.545C27.1259 146.066 24.8646 142.616 23.4896 138.749C22.7983 136.805 22.3138 134.761 21.7495 132.773C21.1545 130.675 20.5928 128.559 20.2642 126.394C19.6152 122.11 20.0799 117.718 19.6642 113.401C19.2526 109.136 18.3 104.593 15.9218 101.029C14.6331 99.0974 13.2315 97.2943 12.171 95.2054C11.1677 93.2274 10.3404 91.1308 9.76372 88.9745C8.62106 84.7042 9.21681 80.4444 9.14711 76.1204C8.99609 75.679 8.85094 75.2366 8.68829 74.7995C8.60199 77.6232 8.0974 80.5006 7.96463 83.2292ZM25.0447 158.027C25.794 160.549 27.0229 162.862 28.3108 165.121C29.6692 167.507 31.0608 169.864 32.2092 172.371C33.4548 175.09 34.4804 177.914 35.3451 180.788C37.0918 186.59 38.1839 192.57 39.5083 198.485C40.899 204.696 42.2898 211.278 46.4612 216.181C48.4984 218.575 51.0875 220.386 53.6408 222.125C55.8083 223.601 58.0704 224.977 60.4727 225.995C59.0653 224.125 57.3965 222.458 56.3078 220.348C55.741 219.251 55.2614 218.103 54.8357 216.932C54.7544 216.919 54.6698 216.889 54.5851 216.827C52.7703 215.515 51.0634 214.033 49.8926 212.051C48.5582 209.792 47.774 207.207 46.4546 204.922C43.937 200.56 40.5688 196.733 39.0585 191.798C37.4852 186.657 38.5607 181.079 36.9434 175.958C35.4738 171.304 31.3064 168.44 28.7257 164.527C26.5749 161.265 25.4446 157.442 24.1866 153.69C24.3958 155.154 24.6248 156.612 25.0447 158.027ZM46.7426 180.063C46.1949 176.739 45.2398 173.502 44.0764 170.358C42.8383 167.016 41.3413 163.796 39.8809 160.556C38.4013 157.272 36.9533 153.971 35.4273 150.709C34.0216 147.7 32.41 144.789 31.1687 141.7C29.9131 138.577 28.9498 135.334 28.1946 132.042C26.6653 125.379 26.6354 118.366 24.653 111.822C22.6739 105.288 19.8351 98.926 16.3383 93.1322C14.6164 90.2773 12.9194 87.4397 11.7776 84.2679C11.2258 82.7357 10.7512 81.1767 10.2732 79.6194C10.1753 82.2882 10.0832 84.9509 10.6707 87.5903C11.5777 91.6597 13.4032 95.3716 15.7823 98.7061C16.91 100.288 18.0104 101.862 18.7232 103.701C19.4385 105.549 19.943 107.538 20.3198 109.488C21.1554 113.813 21.1321 118.214 21.1612 122.605C21.1902 126.945 22.5386 131.072 23.7029 135.19C24.2796 137.232 24.8712 139.204 25.7956 141.113C26.6727 142.923 27.7026 144.646 28.729 146.368C30.7803 149.813 33.0042 153.225 34.3444 157.06C35.058 159.101 35.7659 161.06 36.7218 162.998C37.5566 164.691 38.4238 166.368 39.115 168.133C40.8949 172.683 42.2907 177.374 43.4989 182.118C44.4283 185.766 45.8979 189.423 48.4603 192.137C48.3757 191.673 48.2877 191.211 48.2089 190.746C47.6081 187.2 47.326 183.607 46.7426 180.063ZM61.1473 138.715C60.9116 143.137 60.3448 147.46 60.9506 151.89C61.5663 156.389 63.2152 160.607 65.995 164.126C67.8057 166.417 69.8993 168.432 71.9199 170.517C74.689 171.146 77.1543 173.238 79.0687 175.302C81.666 178.104 82.9472 181.542 84.3147 185.109C85.1553 187.301 86.079 189.426 87.1893 191.484C88.2074 193.373 89.3044 195.218 90.233 197.158C91.1632 199.102 91.8719 201.12 92.9473 202.991C93.9663 204.766 95.114 206.462 96.0201 208.304C97.8996 212.119 98.7676 216.542 102.625 218.78C102.542 214.681 102.196 210.578 101.813 206.535C101.639 204.698 101.496 202.859 101.354 201.018C101.138 201.203 100.819 201.262 100.553 201.011C98.5477 199.107 96.9536 196.816 95.5405 194.413C94.7936 193.144 94.0377 191.95 93.0892 190.83C92.2063 189.786 91.2653 188.795 90.4247 187.712C88.7261 185.521 87.1726 183.001 85.9221 180.502C84.7612 178.181 84.4508 175.64 83.5223 173.244C82.9655 171.807 82.0137 170.67 81.0794 169.49C80.1682 168.343 79.2538 167.197 78.3526 166.042C76.6133 163.807 74.9205 161.527 73.4044 159.12C71.846 156.648 70.5109 154.073 69.5483 151.286C68.5866 148.502 67.9583 145.611 67.3484 142.727C66.6514 139.433 66.2058 136.164 65.9236 132.802C65.6639 129.706 65.4258 126.6 64.7421 123.573C64.2906 124.369 63.8317 125.16 63.4093 125.96C61.3373 129.88 61.3796 134.362 61.1473 138.715ZM75.1404 174.097C77.9352 177.57 79.5384 181.741 81.0038 185.96C82.5639 190.456 84.6666 194.905 85.4848 199.635C85.8815 201.924 86.1254 204.229 86.6648 206.491C87.2224 208.825 88.0631 211.049 89.1526 213.167C90.2563 215.311 91.5938 217.306 93.09 219.17C94.4301 220.84 95.9338 222.357 97.2566 224.043C98.9909 226.254 100.846 228.934 101.708 231.81C102.425 227.918 102.667 223.958 102.639 219.986C102.493 220.045 102.323 220.047 102.146 219.948C99.0938 218.249 97.5262 215.185 96.2458 211.969C95.4931 210.081 94.6924 208.287 93.656 206.546C92.6328 204.828 91.5391 203.15 90.7027 201.32C89.8189 199.387 89.0563 197.435 88.0439 195.564C87.0108 193.652 85.9014 191.781 84.9654 189.812C83.2054 186.113 82.2867 181.834 80.0081 178.426C78.9268 176.808 77.5385 175.37 76.0573 174.152C75.3893 173.603 74.6516 173.054 73.8683 172.605C74.3031 173.092 74.7296 173.587 75.1404 174.097ZM99.1543 183.819L99.0962 183.597C98.9792 183.557 98.8663 183.49 98.78 183.36C97.3486 181.227 96.674 178.57 95.0094 176.607C93.3448 174.644 90.9018 173.643 89.0912 171.844C85.567 168.344 83.7613 163.647 82.0212 159.017C80.1616 154.065 77.9219 149.469 74.8541 145.206C73.4077 143.197 71.973 141.275 70.9565 138.98C70.0254 136.878 69.4047 134.66 68.8869 132.414C67.8538 127.932 66.8273 123.285 66.9883 118.656C66.6597 119.83 66.1543 120.949 65.5809 122.043L65.6565 122.198C67.19 128.013 66.8589 134.12 68.0115 140.003C69.1632 145.88 70.4561 151.719 73.4791 156.893C74.9321 159.379 76.5851 161.729 78.3219 164.005C80.0495 166.267 82.0112 168.402 83.6036 170.768C84.9438 172.758 85.2549 175.149 85.9636 177.41C86.8598 180.27 88.6099 182.75 90.1874 185.232C91.7972 187.767 94.0767 189.723 95.6874 192.252C97.4325 194.99 98.9435 197.723 101.274 199.985C101.055 197.146 100.826 194.307 100.48 191.481C100.166 188.906 99.7451 186.342 99.1543 183.819ZM93.0054 162.05C92.1341 159.867 91.1557 157.73 90.3475 155.518C89.6521 153.613 89.1974 151.651 88.2473 149.854C84.8384 143.401 78.4796 139.383 74.3712 133.482C71.5689 129.458 70.8212 124.761 69.3948 120.129C69.0885 119.135 68.7069 118.193 68.2762 117.28C67.8331 121.929 68.8388 126.61 69.8387 131.132C70.3366 133.388 70.8843 135.65 71.7589 137.783C72.7215 140.131 74.1114 142.125 75.586 144.143C78.4995 148.13 80.7939 152.425 82.5788 157.077C84.3903 161.797 85.9901 166.745 89.4695 170.463C91.3474 172.469 93.929 173.536 95.7512 175.59C96.5844 176.529 97.1843 177.623 97.7369 178.749C97.5079 177.982 97.2822 177.214 97.0723 176.441C95.7645 171.632 94.8517 166.68 93.0054 162.05ZM98.0996 131.753C98.1286 131.467 98.3137 131.204 98.6714 131.209C100.918 131.246 103.112 131.731 105.287 132.289C107.491 132.855 109.709 133.348 111.914 133.904C114.219 134.483 116.511 135.124 118.834 135.624C120.951 136.08 123.093 136.393 125.203 136.899C127.204 137.378 129.169 137.995 131.065 138.82C133.114 139.711 135.037 140.88 137.014 141.928C141.151 144.123 145.35 146.243 149.597 148.199C151.957 149.286 154.363 150.267 156.799 151.155C159.271 152.056 161.754 152.077 164.343 152.074C164.483 152.074 164.589 152.124 164.679 152.191C170.397 149.754 175.699 146.315 181.274 143.525C179.93 143.931 178.581 144.32 177.2 144.526C173.666 145.052 170.092 145.154 166.535 145.416C159.977 145.899 153.253 145.937 146.868 144.09C140.376 142.213 134.698 138.137 129.101 134.365C126.228 132.428 123.34 130.489 120.305 128.836C117.232 127.164 113.888 126.155 110.477 125.567C106.803 124.935 103.012 124.67 99.2896 124.676C95.7836 124.681 92.2394 125.024 88.882 126.116C90.6512 127.101 92.4063 128.111 94.129 129.181C95.4666 130.012 96.7868 130.875 98.0996 131.753ZM108.281 138.875C110.919 138.174 113.775 138.716 116.402 139.195C119.681 139.794 122.906 140.518 125.984 141.877C129.127 143.266 131.697 145.419 134.399 147.543C137.183 149.73 140.136 151.328 143.494 152.324C147.139 153.402 150.91 153.927 154.582 154.889C154.74 154.931 154.841 155.023 154.91 155.131C156.577 154.82 158.229 154.419 159.861 153.941C160.51 153.75 161.15 153.537 161.784 153.315C160.529 153.279 159.277 153.172 158.048 152.867C155.893 152.334 153.78 151.364 151.732 150.497C147.514 148.712 143.406 146.616 139.318 144.53C135.264 142.462 131.394 139.981 127.027 138.685C122.761 137.42 118.325 136.86 114.02 135.743C111.557 135.105 109.075 134.564 106.611 133.931C104.167 133.303 101.728 132.619 99.2066 132.494C102.259 134.567 105.266 136.732 108.281 138.875ZM146.727 155.858C148.509 155.887 150.285 155.779 152.049 155.568C146.485 154.305 140.766 153.516 135.896 150.192C133.213 148.36 130.861 146.037 128.082 144.352C125.053 142.515 121.591 141.467 118.165 140.796C115.491 140.272 112.473 139.491 109.69 139.871C117.322 145.263 125.083 150.405 133.921 153.465C138.069 154.9 142.348 155.79 146.727 155.858ZM70.7441 107.138C73.5107 106.626 76.1619 105.562 79.0131 105.727C84.2119 106.026 88.9767 109.304 94.2327 108.961C95.6633 108.867 97.0723 108.462 98.5013 108.299C100.128 108.114 101.767 108.033 103.382 107.751C105.926 107.307 108.405 106.515 110.915 105.888C110.827 105.876 110.74 105.87 110.652 105.856C109.115 105.605 107.869 104.655 106.47 104.023C103.387 102.631 99.9293 103.133 96.7088 103.57C93.4659 104.01 90.2919 104.148 87.0407 103.7C85.4267 103.478 83.8542 103.174 82.2178 103.269C80.691 103.358 79.2031 103.733 77.7335 104.159C75.0856 104.928 72.3506 105.74 69.9848 107.231C70.237 107.206 70.4885 107.185 70.7441 107.138ZM124.817 101.164C123.182 100.693 121.526 100.54 119.823 100.446C118.121 100.353 116.526 99.7752 114.86 99.474C113.055 99.1467 111.062 99.0039 109.234 99.1243C107.598 99.2325 106.062 99.9631 104.419 100C102.681 100.04 100.874 99.4393 99.1717 99.1156C97.2905 98.7589 95.3994 98.4534 93.49 98.3218C89.6222 98.056 86.0889 98.9935 82.4112 100.126C78.5393 101.318 75.0458 103.586 71.1142 104.58L71.0486 104.583C70.8395 104.921 70.6171 105.246 70.3848 105.56C71.9025 104.737 73.5281 104.115 75.1645 103.62C78.204 102.701 81.2411 101.734 84.445 102.056C86.1279 102.226 87.7825 102.583 89.4729 102.695C91.081 102.802 92.6942 102.762 94.2982 102.607C97.625 102.285 100.93 101.494 104.276 102.074C106.133 102.396 107.584 103.278 109.261 104.085C111.257 105.046 113.316 104.464 115.418 104.678C115.495 104.686 115.558 104.713 115.62 104.742C117.346 104.263 119.043 103.699 120.724 102.998C122.103 102.423 123.462 101.798 124.817 101.164ZM128.686 99.3649C131.071 98.2889 133.474 97.1835 135.8 95.9361C134.352 95.15 132.792 95.0903 131.159 95.2435C129.46 95.4019 127.838 95.5569 126.126 95.4521C124.201 95.3344 122.385 95.479 120.47 95.569C118.659 95.6547 116.848 95.5041 115.035 95.5517C111.871 95.6348 108.677 96.6719 105.525 96.0044C103.469 95.569 101.144 94.6705 99.6879 92.9954C98.1602 92.5211 96.6424 91.9973 95.0907 91.6338C92.2503 90.9689 89.4189 91.11 86.6615 92.0839C83.9405 93.0439 81.6751 94.7224 79.2828 96.3204C76.8514 97.9435 74.1678 99.3337 72.5796 101.958C72.3671 102.307 72.163 102.666 71.9597 103.025C75.0839 102.018 77.9542 100.301 81.0644 99.2376C84.5031 98.0621 88.1336 96.9549 91.7798 96.9895C95.5745 97.0259 99.2638 97.9071 102.981 98.5884C104.883 98.9373 106.471 98.2456 108.323 97.9643C110.084 97.6968 111.871 97.9123 113.633 98.0681C115.616 98.2421 117.493 99.0022 119.469 99.1675C121.639 99.3484 123.725 99.4134 125.813 100.143C126.014 100.213 126.13 100.357 126.186 100.521C127.017 100.131 127.849 99.7423 128.686 99.3649ZM131.183 89.944C128.052 89.6168 125.078 90.1223 122.125 91.2139C120.831 91.6926 119.566 92.1938 118.217 92.4864C116.628 92.8301 115.009 92.9911 113.403 93.2231C110.255 93.6784 107.107 94.4151 103.913 94.003C103.531 93.9537 103.151 93.8896 102.773 93.8152C104.137 94.4878 105.707 94.8644 106.99 94.9648C108.583 95.0877 110.221 94.7787 111.796 94.5787C113.64 94.3441 115.452 94.2619 117.31 94.3034C119.089 94.3432 120.807 94.2601 122.579 94.1208C124.319 93.984 126.051 94.2506 127.789 94.2636C130.939 94.2861 133.978 93.2032 136.852 95.105L137.02 95.2738C138.894 94.2074 140.692 93.0119 142.373 91.6415C138.709 92.1038 134.673 90.3085 131.183 89.944ZM131.012 62.9547C132.865 60.9283 134.558 58.7511 136.399 56.7143C138.211 54.7068 140.363 53.0751 142.063 50.9612C143.189 49.5614 144.17 48.0482 145.185 46.561C143.489 47.0986 141.911 47.5704 140.448 48.7667C139.152 49.8263 138.077 51.1386 136.911 52.3445C134.244 55.1016 131.053 56.5195 127.249 56.2538C127.071 56.2416 126.895 56.2104 126.718 56.1914C126.662 56.3568 126.549 56.503 126.356 56.5818C121.665 58.4914 116.927 60.2799 112.147 61.935C110.137 62.631 108.576 64.1294 106.613 64.9007C104.904 65.5716 102.986 65.2193 101.255 64.828C99.1792 64.358 97.1677 63.6473 95.1015 63.1538C92.6959 62.5808 90.1616 62.8033 87.7187 62.94C85.1853 63.082 82.7215 63.3651 80.2379 63.9182C79.8537 64.0039 79.4712 64.0965 79.0878 64.1883C79.3525 64.28 79.6073 64.3753 79.8421 64.4696C81.1764 65.0089 82.261 65.8642 83.4949 66.5948C85.2674 67.6457 87.2265 67.4726 89.1899 67.6994C91.3482 67.9487 93.4892 68.3616 95.66 68.4715C97.8382 68.5815 99.9999 68.1651 102.174 68.282C103.105 68.3322 104 68.5347 104.911 68.7295C106.136 68.9918 107.276 69.0204 108.512 68.8455C110.724 68.5321 112.866 67.8033 114.937 66.9549C117.168 66.0416 119.272 64.8185 121.672 64.4662C124.059 64.1164 126.474 64.3692 128.873 64.3796C129.109 64.3813 129.265 64.5034 129.358 64.6661C129.929 64.1138 130.479 63.539 131.012 62.9547ZM113.481 54.2169C111.069 54.3484 108.472 54.7276 106.274 55.8244C104.495 56.7117 102.876 57.9599 100.968 58.552C99.2746 59.0792 97.7544 58.7174 96.099 58.2456C93.6983 57.5609 91.2503 57.3116 88.7667 57.2917C86.3296 57.2718 83.8941 57.4293 81.4577 57.425C79.2886 57.4224 77.1228 57.2319 74.9545 57.3142C72.6684 57.3999 70.5806 57.8725 68.6007 59.0983C66.9394 60.1258 65.391 61.2581 63.4318 61.5472C62.2626 61.7195 61.0859 61.658 59.91 61.6848C61.4925 62.0129 63.0276 62.5219 64.5686 63.0577C66.7949 63.8308 69.0454 64.6696 71.4262 64.4947C71.9465 64.4566 72.4659 64.3874 72.9846 64.3043C73.914 63.591 75.147 63.436 76.3926 63.5607C77.1493 63.3685 77.9028 63.1729 78.6522 62.9954C80.8844 62.4674 83.1357 62.0008 85.4218 61.8164C87.8423 61.6208 90.3118 61.4615 92.739 61.5654C95.0052 61.6615 97.0906 62.4691 99.2672 63.043C101.128 63.5339 103.15 64.1822 105.087 63.9892C107.129 63.7858 108.713 62.0518 110.529 61.2139C112.902 60.1206 115.502 59.4315 117.947 58.5209C120.22 57.6743 122.479 56.7913 124.731 55.8867C123.5 55.64 122.28 55.3232 121.06 55.0254C118.559 54.4151 116.053 54.0775 113.481 54.2169ZM63.9504 0.610535C64.0591 3.67841 64.8474 6.68744 64.8707 9.75444C64.8939 12.792 64.2317 15.8166 64.4955 18.855C64.6142 20.2193 64.898 21.5688 64.913 22.9426C64.9304 24.4116 64.625 25.8668 64.2765 27.2812C63.9379 28.6481 63.5363 29.9994 63.279 31.3871C63.05 32.6275 62.992 33.8888 62.8235 35.1379C62.6833 36.1776 62.4409 37.1964 61.9397 38.1166C61.3439 39.2117 60.3971 40.0037 59.6337 40.962C58.8952 41.8883 58.2869 42.9141 57.7417 43.9745C57.209 45.0124 56.8024 46.1144 56.0498 47.0095C54.6325 48.6957 52.5878 49.7882 50.7655 50.9205C48.5225 52.315 46.2323 53.3824 44.3528 55.3309C42.6882 57.0571 40.9795 58.6395 38.6287 59.2056C37.2744 59.532 35.9475 59.5008 34.6049 59.1303C33.2921 58.7676 32.0433 58.2153 30.7065 57.9547C33.0922 59.4359 35.4712 60.9291 37.8486 62.4258C42.6325 65.4366 47.6819 67.6344 53.206 68.6507C58.7425 69.6705 64.3843 68.7866 69.9175 69.7458C75.883 70.7794 81.798 72.0562 87.7967 72.882C90.7633 73.2906 93.7406 73.6144 96.7271 73.8169C99.2895 73.9909 101.842 74.0636 104.363 73.4672C106.638 72.9288 108.708 71.8882 110.895 71.0841C113.28 70.2072 115.814 69.9379 118.305 69.5787C120.843 69.2117 123.448 68.771 125.727 67.476C126.648 66.9532 127.499 66.3212 128.305 65.627C126.41 65.5915 124.51 65.4478 122.62 65.6149C120.387 65.8114 118.49 66.7783 116.452 67.6647C112.835 69.2385 108.719 70.814 104.759 69.9804C103.71 69.7596 102.691 69.5363 101.616 69.5233C100.495 69.5103 99.3792 69.6367 98.2631 69.7077C96.1761 69.8401 94.1181 69.6358 92.0527 69.3476C89.9782 69.0576 87.8996 68.9494 85.8275 68.7009C84.2658 68.5139 82.9879 67.7885 81.6926 66.9021C80.4362 66.0443 79.1185 65.4357 77.6489 65.0816C77.249 64.9856 76.8041 64.8981 76.3485 64.8462C75.4275 65.0661 74.5039 65.2729 73.5745 65.4469C73.455 65.5482 73.3364 65.6521 73.2343 65.7837C72.9381 66.1663 72.5107 65.9828 72.3282 65.6426C70.1151 65.8824 68.0895 65.5491 65.9038 64.8375C63.4002 64.0204 60.9448 62.9937 58.3193 62.6821C57.8861 62.6319 57.7061 62.2068 57.7625 61.8631C56.9252 61.9783 56.0921 62.1324 55.2623 62.3029C52.8243 62.8067 50.4294 63.32 47.9333 63.3417C46.6181 63.3529 45.2987 63.3642 43.9909 63.198C42.9885 63.0707 42.0101 62.805 41.0193 62.6068C39.2369 62.251 37.2039 62.0129 35.6513 60.9542C35.0033 60.5119 35.6082 59.4212 36.2612 59.8661C37.6445 60.8105 39.4876 61.0252 41.0791 61.3403C43.1396 61.7489 45.0929 62.0934 47.2031 62.0874C49.6071 62.0796 51.8874 61.7333 54.2383 61.2364C56.39 60.782 58.5184 60.4149 60.7183 60.414C61.8692 60.4132 63.0251 60.4409 64.1429 60.1137C65.1503 59.8185 66.0432 59.2645 66.927 58.6957C68.6422 57.592 70.3059 56.6684 72.3182 56.3187C74.3637 55.9638 76.4423 56.0157 78.5061 56.0884C80.7831 56.1689 83.0477 56.1516 85.3255 56.0858C87.6772 56.0183 90.0371 55.9646 92.3805 56.2321C94.3463 56.4563 96.1712 57.0986 98.0971 57.483C100.167 57.8959 102.016 56.8354 103.764 55.8079C105.611 54.7224 107.38 53.9173 109.471 53.4854C111.798 53.0041 114.186 52.8093 116.555 52.9868C118.709 53.1478 120.796 53.6655 122.89 54.1883C126.943 55.1994 131.217 55.6556 134.679 52.7617C137.528 50.3794 139.484 47.0623 143.124 45.8296C144.237 45.4521 145.425 45.2747 146.489 44.7492C146.759 44.3909 147.02 44.0264 147.308 43.6819C148.551 42.193 149.901 40.8027 151.092 39.2792C151.636 38.3902 152.193 37.5106 152.822 36.6814L152.841 36.6494L152.843 36.6511L152.935 36.5212C153.377 35.9525 154.207 36.6805 153.884 37.2847C153.33 38.3166 152.669 39.2601 151.958 40.163C150.672 42.2683 149.41 44.3969 147.375 45.6409C146.3 47.0865 145.305 48.591 144.254 50.0695C143.488 51.1473 142.685 52.2008 141.786 53.1634C140.895 54.1182 139.876 54.9189 138.945 55.8296C137.232 57.5063 135.707 59.3779 134.155 61.2139C131.08 64.8548 127.841 68.4871 123.23 69.8696C120.69 70.6305 118.039 70.8287 115.438 71.2581C112.798 71.6944 110.494 72.6561 108.011 73.6187C105.953 74.416 103.843 74.9769 101.65 75.1492C98.7253 75.3794 95.7363 75.0401 92.8261 74.7458C86.8316 74.1389 80.8868 73.1071 74.9636 71.987C72.007 71.4269 69.0711 70.7439 66.0614 70.5993C63.0425 70.4547 60.0162 70.6192 56.9998 70.4054C51.6525 70.0262 46.3517 68.4672 41.5413 66.0183C38.5316 64.4861 35.7119 62.547 32.8441 60.7517C29.9115 58.9156 26.9706 57.0926 24.0041 55.3188C21.3113 53.7087 18.5124 52.6102 15.55 51.6641C13.2896 50.9421 11.0192 50.2375 8.85757 49.2428C13.4755 53.4819 16.7424 59.1874 21.279 63.5261C24.1418 66.2659 27.5922 67.8794 30.8874 69.9431C32.5545 70.9871 34.1311 72.1843 35.4555 73.6784C36.6761 75.0548 37.6952 76.6113 38.676 78.1764C40.9862 81.864 43.5038 85.3076 46.3111 88.6014C49.1598 91.9437 52.1554 95.1422 55.039 98.4508C57.2065 100.939 59.2495 103.603 61.3564 106.204C61.4891 106.055 61.68 105.957 61.9231 106.006C63.6193 106.352 65.2349 106.845 66.8796 107.11C66.907 106.961 66.9991 106.825 67.1808 106.739C69.4861 105.647 70.3789 103.161 71.6834 101.082C73.0268 98.9424 75.0699 97.5583 77.1212 96.2382C79.4172 94.7588 81.5847 93.0508 84.0343 91.8476C86.3403 90.7144 88.8248 89.9734 91.3873 89.9353C94.2194 89.8929 96.913 90.8088 99.5949 91.6459C99.8414 91.5576 100.136 91.5939 100.328 91.8692L100.33 91.871C101.759 92.3055 103.21 92.708 104.698 92.8258C106.469 92.966 108.246 92.7695 109.996 92.5029C112.972 92.0484 116.077 91.8156 118.988 91.0044C121.908 90.1907 124.537 88.8576 127.604 88.63C130.829 88.391 133.813 89.1372 136.929 89.8678C139.32 90.4288 142.444 90.9075 144.683 89.5917C145.27 89.2454 145.92 90.0756 145.415 90.5802C141.435 94.5588 136.439 97.2068 131.434 99.493C126.172 101.894 120.928 104.741 115.326 106.18C112.23 106.976 109.102 107.664 106.001 108.449C102.809 109.257 99.5485 109.249 96.3371 109.89C93.724 110.413 91.2852 110.185 88.7186 109.481C86.059 108.752 83.4783 107.694 80.7624 107.201C79.0745 106.894 77.409 106.906 75.7262 107.246C74.0425 107.585 72.402 108.134 70.7075 108.416C69.857 108.558 69.0346 108.579 68.2264 108.53L68.1915 108.556C67.8729 108.84 67.4829 108.705 67.2796 108.442C65.6217 108.228 64.0018 107.76 62.319 107.38C65.025 110.65 67.8837 113.761 71.2917 116.216C74.8027 118.745 78.7526 120.67 82.5448 122.689C84.2078 123.575 85.8707 124.464 87.5245 125.367C87.5909 125.278 87.6755 125.199 87.8008 125.154C93.9871 122.901 100.882 123.189 107.306 123.874C110.581 124.223 113.845 124.819 116.959 125.96C120.135 127.125 123.047 128.912 125.9 130.752C131.768 134.535 137.425 139.047 143.875 141.721C150.221 144.35 157.189 144.677 163.932 144.326C167.914 144.117 171.941 143.93 175.901 143.443C179.82 142.96 183.481 141.115 187.42 140.879C188.134 140.836 188.191 141.891 187.58 142.116C179.828 144.973 173.017 149.945 165.446 153.233C157.624 156.632 148.867 157.995 140.481 156.511C128.342 154.364 117.969 147.32 107.907 140.146L107.717 140.011C104.765 137.904 101.837 135.788 98.8996 133.784C91.6711 128.854 83.9472 124.995 76.3477 120.752C73.7703 119.311 71.31 117.789 69.0205 115.972C69.2471 116.393 69.462 116.822 69.652 117.271C71.4619 121.537 71.7888 126.355 73.9587 130.472C77.4398 137.074 83.9629 141.12 88.0829 147.216C90.3815 150.619 91.2454 154.709 92.8295 158.482C93.7613 160.703 94.7239 162.919 95.4218 165.237C96.1504 167.66 96.7097 170.141 97.3271 172.597C98.6008 177.672 100.316 182.601 101.167 187.783C101.977 192.733 102.297 197.749 102.694 202.748C103.556 213.59 104.937 224.619 102.181 235.308C102.006 235.989 100.982 235.86 100.996 235.141C101.065 231.296 98.4805 227.538 96.2267 224.712C93.7581 221.618 91.0221 218.868 88.9916 215.405C86.6731 211.452 85.4035 207.184 84.7122 202.629C84.3455 200.205 83.9405 197.866 83.1763 195.535C82.4211 193.235 81.4943 191.003 80.6827 188.724C79.1251 184.348 77.7709 179.809 75.0699 176.014C73.9554 174.448 72.6725 173.033 71.3448 171.658L71.1631 171.624C70.7656 171.575 70.5781 171.21 70.5938 170.885C68.9699 169.234 67.3078 167.617 65.8191 165.846C63.0733 162.581 61.1282 158.807 60.1996 154.561C59.2893 150.396 59.2844 146.072 59.6943 141.841C60.1449 137.194 59.7598 132.213 61.29 127.754C62.7612 123.464 66.5452 120.004 66.1494 115.136C66.1179 114.742 66.3892 114.545 66.6838 114.535C66.4547 114.21 66.2348 113.88 65.9826 113.565C64.4814 111.695 62.7811 110.012 61.2875 108.134C61.2053 108.031 61.1713 107.921 61.1555 107.811C60.3 106.762 59.4512 105.706 58.6056 104.651C53.1089 97.7989 46.8239 91.658 41.538 84.6229C39.1033 81.3836 37.2819 77.5964 34.6025 74.5692C31.8699 71.4823 28.1067 69.9059 24.7211 67.7773C18.1963 63.675 14.4082 56.6372 9.07994 51.188C6.74319 48.7988 4.02724 47.1168 1.1926 45.4573C1.4017 45.7335 1.5959 46.0287 1.78343 46.3325C2.03154 46.226 2.32854 46.265 2.49533 46.5835C3.10939 47.7582 3.42809 49.0143 3.58989 50.305C3.80647 50.923 4.00069 51.5195 4.17245 52.0614C5.71922 56.9289 6.45935 62.0267 7.62939 66.9956C8.18867 69.3675 8.94714 71.6346 9.72385 73.9087C10.0018 73.9381 10.2707 74.1303 10.2948 74.5025C10.3196 74.9076 10.3279 75.3136 10.3362 75.7196C10.4624 76.0936 10.591 76.465 10.7155 76.8415C11.815 80.1717 12.6042 83.6161 14.1343 86.7766C15.6197 89.8445 17.5639 92.637 19.1895 95.6218C20.7679 98.5209 22.118 101.545 23.3353 104.626C24.609 107.849 25.8687 111.12 26.5939 114.532C27.33 117.989 27.6278 121.522 28.1191 125.021C29.0593 131.729 30.7621 138.523 33.7768 144.56C36.9674 150.948 39.8842 157.487 42.7803 164.027C44.1403 167.099 45.4116 170.222 46.4048 173.445C47.4089 176.702 47.9807 179.992 48.3707 183.382C49.2179 190.753 50.6966 198.044 52.6674 205.175C53.5694 208.438 54.4043 211.737 55.4556 214.951C55.985 216.572 56.5684 218.201 57.3501 219.712C58.0753 221.114 59.0719 222.316 60.066 223.513C60.9805 224.613 61.875 225.723 62.6061 226.965C62.875 227.423 62.4269 228.059 61.9248 227.891C59.2545 226.997 56.7551 225.634 54.3744 224.103C52.1364 222.663 49.8884 221.113 47.8637 219.354C43.8233 215.843 41.5538 211.049 40.0975 205.875C36.721 193.888 35.6397 181.136 29.7033 170.061C27.2254 165.437 24.1435 161.075 23.278 155.731C22.8058 152.81 22.454 149.94 21.6234 147.09C20.7828 144.209 19.6501 141.432 18.2867 138.779C17.003 136.281 15.7184 133.94 15.1566 131.132C14.662 128.662 14.6098 126.129 14.5376 123.617C14.4471 120.475 14.1252 117.423 13.3385 114.381C12.6208 111.607 11.6266 108.923 10.5811 106.267C9.35045 103.14 8.25174 100.037 7.64017 96.7065C7.03772 93.4248 6.80705 90.0825 6.74399 86.7463C6.68672 83.6551 6.98959 80.6651 7.27339 77.5946C7.55801 74.5207 7.77463 71.1828 6.4046 68.34C6.26022 68.0413 6.35979 67.7626 6.54318 67.5834C5.70424 64.0654 5.05371 60.492 4.23883 56.9644C4.07867 56.2719 3.90523 55.5811 3.72433 54.8929C3.70027 57.47 3.78078 60.0167 4.01064 62.5929C4.28198 65.6409 4.41554 68.6793 4.38567 71.7411C4.35497 74.8834 4.36497 78.1131 3.98575 81.2321C3.8231 82.5695 3.58243 83.894 3.40651 85.2297C3.1891 86.8839 3.1609 88.5503 3.09784 90.2167C2.98581 93.1815 2.68877 96.1291 2.84476 99.0983C3.15594 105.036 4.47279 110.98 6.18718 116.638C7.81444 122.012 9.84837 127.261 11.0806 132.76C11.7096 135.563 12.1237 138.435 12.1776 141.317C12.2349 144.324 12.0615 147.33 12.181 150.336C12.3079 153.497 13.0257 156.48 13.6306 159.562C14.2538 162.732 14.5002 165.994 14.9558 169.195C15.3848 172.212 15.8255 175.23 16.1184 178.266C16.3997 181.175 16.6719 184.206 16.5482 187.132C16.4868 188.581 16.1117 189.81 15.4736 191.087C14.7641 192.508 14.1883 193.921 13.7924 195.473C12.9933 198.6 12.9842 201.69 12.7601 204.885C12.5643 207.686 11.7146 210.199 10.3653 212.618C8.73143 215.547 7.53151 218.665 6.80128 221.97C6.65025 222.654 5.57564 222.516 5.61548 221.803C5.73994 219.538 5.99638 217.287 6.15736 215.027C6.31004 212.885 6.26103 210.77 6.20461 208.626C6.15067 206.564 6.15399 204.467 5.7756 202.435C5.38393 200.326 4.15913 198.699 3.37912 196.754C1.90205 193.074 1.81659 188.85 2.22734 184.94C2.46301 182.692 2.8862 180.475 3.1476 178.233C3.39488 176.108 3.22563 173.966 2.80408 171.879C1.97179 167.754 0.356125 163.853 -0.587372 159.754C-1.49435 155.808 -2.32581 151.485 -2.12332 147.409C-1.90758 143.066 -0.590683 138.897 -0.901871 134.514C-1.05952 132.293 -1.46614 130.103 -1.72836 127.897C-1.99887 125.627 -2.12085 123.342 -2.24034 121.061C-2.48181 116.455 -3.39044 111.569 -1.9474 107.101C-1.569 105.928 -1.2097 104.744 -1.02051 103.519C-0.826324 102.263 -0.819702 100.985 -0.695221 99.7198C-0.469513 97.4094 0.468964 95.4296 1.07639 93.2283C1.17017 92.8907 1.44153 92.7712 1.70126 92.7981C1.78175 90.7266 1.88383 88.6464 2.0498 86.5983C2.17924 84.9977 2.47545 83.4196 2.69785 81.8311C2.94431 80.0782 2.9908 78.3123 3.05635 76.5446C3.18414 73.0794 3.258 69.6064 3.07709 66.1421C2.90117 62.7669 2.43062 59.422 2.47791 56.0347C2.50281 54.2965 2.6223 52.4743 2.43311 50.7196C1.75847 48.881 0.915421 46.9514 -0.428055 45.5491C-1.0114 44.9405 -1.67445 44.4973 -2.49098 44.3329C-3.11334 44.2073 -3.0063 43.3841 -2.53249 43.1668C-3.94647 42.2155 -5.29158 41.1611 -6.45415 39.8877C-7.48892 38.7581 -8.32701 37.4734 -8.94107 36.0486C-9.25639 35.3145 -8.21916 34.6731 -7.89554 35.4123C-5.23184 41.6364 1.5793 43.7355 6.57559 47.3626C6.74072 47.483 6.8967 47.6111 7.05768 47.7349C7.18381 47.4137 7.53229 47.1705 7.91318 47.3808C12.4896 49.9007 17.744 50.5984 22.3885 52.9625C24.3659 53.9693 26.2711 55.1665 28.1639 56.3611C28.0486 55.9932 28.2295 55.5101 28.7116 55.5084C30.9023 55.5015 32.4657 53.8057 33.9892 52.3808C35.6239 50.8547 37.3898 49.5614 38.8469 47.8292C40.5895 45.7577 41.9114 43.3858 43.4358 41.1473C44.054 40.2401 44.6938 39.4038 45.5294 38.7027C46.4248 37.9504 47.4247 37.3367 48.2719 36.5238C50.0809 34.7865 50.1556 32.3566 50.6999 30.0185C51.2899 27.489 51.992 24.9336 53.2973 22.6933C54.3254 20.9291 55.6821 19.4133 56.7816 17.702C57.316 16.8709 57.7915 15.9932 58.0985 15.041C58.5002 13.7996 58.5425 12.5029 58.6637 11.2096C58.8819 8.88097 59.3665 6.63893 60.139 4.44278C60.6909 2.87422 61.4502 0.775894 63.0417 0.066925C63.46 -0.120056 63.9322 0.0920105 63.9504 0.610535Z" fill="#99693F"/>
</svg>
